<?xml version="1.0" standalone="no"?>
<!DOCTYPE svg PUBLIC "-//W3C//DTD SVG 20010904//EN"
 "http://www.w3.org/TR/2001/REC-SVG-20010904/DTD/svg10.dtd">
<svg version="1.0" xmlns="http://www.w3.org/2000/svg"
 width="157.500000pt" height="50.000000pt" viewBox="0 0 630.000000 172.000000"
 preserveAspectRatio="xMidYMid meet">

<g transform="translate(0.000000,172.000000) scale(0.100000,-0.100000)"
fill="#000000" stroke="none">
<path d="M5823 1330 c-51 -31 -54 -60 -51 -444 l3 -344 25 -21 c17 -13 40 -20
68 -21 52 0 80 13 92 45 5 13 10 179 11 368 1 385 -2 405 -63 426 -42 15 -48
14 -85 -9z"/>
<path d="M294 1140 c-50 -20 -67 -84 -42 -159 25 -79 103 -278 120 -308 10
-18 27 -49 38 -68 33 -59 27 -88 -32 -148 -60 -61 -68 -99 -28 -142 52 -55
162 -16 234 82 106 146 192 333 246 535 27 106 26 152 -5 183 -37 38 -105 35
-139 -5 -21 -25 -66 -145 -66 -176 0 -21 -53 -175 -62 -180 -16 -10 -34 20
-54 85 -32 107 -75 236 -87 260 -11 23 -62 52 -89 50 -7 0 -23 -4 -34 -9z"/>
<path d="M1845 1143 c-65 -9 -107 -25 -141 -55 -66 -58 -69 -70 -72 -303 -3
-239 0 -252 64 -274 35 -12 47 -12 73 -1 55 22 62 50 60 235 l-2 166 30 37
c42 52 82 55 117 9 26 -34 26 -35 26 -216 0 -104 4 -190 10 -201 6 -11 28 -24
49 -31 31 -9 43 -8 69 5 52 27 62 67 62 241 0 155 8 194 45 225 27 22 77 8
102 -29 22 -32 23 -43 23 -216 0 -180 0 -182 25 -205 16 -15 40 -24 72 -27 42
-4 51 -2 73 22 l25 27 -3 211 c-3 206 -4 213 -30 267 -23 47 -35 59 -84 84
-49 24 -69 29 -137 29 -67 0 -90 -5 -137 -28 l-56 -27 -47 21 c-41 19 -149 43
-176 39 -5 0 -23 -3 -40 -5z"/>
<path d="M3610 1140 c-92 -17 -138 -48 -176 -120 -17 -31 -19 -58 -18 -252 1
-159 5 -222 14 -233 22 -26 85 -40 120 -25 53 22 60 50 60 230 0 100 4 170 11
183 41 80 110 89 147 20 8 -14 12 -85 12 -207 0 -201 0 -201 59 -226 41 -16
86 1 112 44 16 27 19 52 19 189 0 98 4 167 11 180 38 73 90 87 133 36 26 -30
26 -31 26 -218 0 -186 0 -188 25 -211 16 -15 41 -24 73 -28 41 -4 52 -1 70 18
32 34 44 98 32 177 -5 37 -10 116 -10 176 0 153 -23 198 -129 252 -24 12 -59
17 -117 18 -72 0 -91 -4 -139 -28 l-55 -28 -48 22 c-26 12 -74 26 -107 31 -66
11 -62 11 -125 0z"/>
<path d="M955 1115 c-30 -29 -28 -16 -25 -235 3 -231 18 -276 110 -334 59 -37
120 -49 227 -43 117 6 162 18 207 57 42 37 47 62 52 265 6 202 -6 269 -50 296
-49 30 -99 25 -130 -12 -26 -31 -26 -31 -26 -220 0 -188 0 -190 -25 -214 -36
-36 -82 -33 -130 8 l-38 33 2 172 c2 221 -11 252 -109 252 -30 0 -47 -6 -65
-25z"/>
<path d="M4645 1116 c-78 -21 -97 -31 -141 -73 -67 -65 -88 -121 -87 -233 1
-169 60 -254 216 -311 105 -38 270 -18 333 42 35 33 33 91 -3 114 -25 17 -29
17 -87 -4 -66 -23 -160 -28 -199 -10 -14 6 -31 22 -38 36 -21 39 10 57 120 71
96 13 166 39 197 73 11 13 19 41 22 79 5 69 -22 138 -66 168 -73 50 -184 70
-267 48z m145 -145 c31 -8 54 -49 38 -68 -32 -39 -172 -61 -195 -30 -22 28
-21 46 3 71 34 33 94 44 154 27z"/>
<path d="M5168 1109 c-64 -33 -87 -105 -47 -148 19 -20 28 -22 72 -17 28 4 58
11 66 16 16 8 75 14 123 11 29 -1 52 -30 43 -53 -10 -26 -47 -39 -144 -51
-138 -18 -186 -51 -205 -144 -4 -18 -4 -53 0 -79 9 -62 68 -123 141 -147 96
-32 312 -16 378 27 44 29 57 89 53 247 -3 130 -6 149 -29 200 -30 64 -53 88
-112 117 -59 30 -119 42 -217 41 -65 0 -94 -5 -122 -20z m269 -385 c18 -24 16
-37 -8 -68 -18 -23 -28 -26 -79 -26 -49 0 -61 4 -74 22 -21 29 -20 51 2 71 35
31 137 32 159 1z"/>
<path d="M2656 538 c-25 -35 -20 -75 11 -95 24 -16 55 -18 298 -18 306 0 340
4 349 40 10 38 -3 71 -30 84 -17 7 -122 11 -319 11 -292 0 -294 0 -309 -22z"/>
</g>
</svg>
