<?xml version="1.0" standalone="no"?>
<!DOCTYPE svg PUBLIC "-//W3C//DTD SVG 20010904//EN"
 "http://www.w3.org/TR/2001/REC-SVG-20010904/DTD/svg10.dtd">
<svg version="1.0" xmlns="http://www.w3.org/2000/svg"
 width="750.000000pt" height="500.000000pt" viewBox="0 0 750.000000 500.000000"
 preserveAspectRatio="xMidYMid meet">

<g transform="translate(0.000000,500.000000) scale(0.100000,-0.100000)"
fill="#000000" stroke="none">
<path d="M4938 3455 c-35 -20 -54 -75 -39 -117 18 -52 61 -89 61 -53 0 10 10
15 29 15 15 0 57 9 91 20 68 22 100 25 100 11 0 -5 11 -22 24 -38 13 -15 26
-45 30 -65 7 -37 26 -53 26 -23 0 8 8 15 18 15 20 1 72 66 72 92 0 24 -35 58
-59 58 -29 0 -51 11 -51 25 0 29 -36 45 -101 45 -40 1 -71 6 -83 15 -25 19
-83 19 -118 0z"/>
<path d="M1955 3389 c-22 -12 -53 -28 -70 -36 -16 -8 -37 -18 -45 -22 -23 -11
-50 -72 -50 -110 0 -21 -20 -76 -47 -135 -39 -82 -48 -111 -48 -156 0 -88 5
-94 76 -87 33 4 68 11 79 17 27 14 43 71 35 124 -6 40 -4 49 19 77 28 33 34
78 16 125 -8 21 -7 32 5 48 9 12 25 36 36 54 18 27 27 32 60 32 93 0 119 -39
119 -177 0 -120 -11 -164 -51 -197 -35 -30 -81 -34 -137 -11 l-37 15 28 -25
c15 -13 43 -27 62 -31 31 -6 35 -10 35 -39 0 -28 5 -34 41 -51 23 -10 100 -51
172 -90 141 -78 144 -78 173 -23 37 73 3 146 -94 197 -74 40 -86 60 -72 133
18 93 16 99 -48 151 -17 14 -22 29 -22 65 0 67 -33 122 -90 151 -55 28 -95 28
-145 1z"/>
<path d="M4985 3270 c-3 -5 3 -10 15 -10 12 0 18 5 15 10 -3 6 -10 10 -15 10
-5 0 -12 -4 -15 -10z"/>
<path d="M5123 3273 c9 -2 23 -2 30 0 6 3 -1 5 -18 5 -16 0 -22 -2 -12 -5z"/>
<path d="M1940 3240 c-11 -7 -5 -10 23 -10 23 0 36 4 32 10 -8 13 -35 13 -55
0z"/>
<path d="M2075 3230 c-4 -6 5 -10 19 -10 14 0 26 5 26 10 0 6 -9 10 -19 10
-11 0 -23 -4 -26 -10z"/>
<path d="M4990 3236 c0 -2 7 -7 16 -10 8 -3 12 -2 9 4 -6 10 -25 14 -25 6z"/>
<path d="M5110 3215 c0 -8 7 -15 16 -15 14 0 14 3 4 15 -7 8 -14 15 -16 15 -2
0 -4 -7 -4 -15z"/>
<path d="M4980 3210 c0 -5 5 -10 10 -10 6 0 10 5 10 10 0 6 -4 10 -10 10 -5 0
-10 -4 -10 -10z"/>
<path d="M1945 3191 c-3 -6 1 -11 9 -11 10 0 13 -6 10 -15 -4 -10 0 -15 11
-15 11 0 15 7 13 22 -3 24 -32 36 -43 19z"/>
<path d="M2075 3190 c-3 -5 1 -10 9 -10 10 0 13 -6 10 -15 -4 -9 0 -15 9 -15
15 0 30 34 19 44 -9 10 -40 7 -47 -4z"/>
<path d="M2030 3187 c0 -3 7 -23 15 -46 8 -23 11 -49 8 -59 -5 -13 -3 -15 7
-5 11 10 11 20 0 58 -7 25 -17 48 -21 51 -5 3 -9 3 -9 1z"/>
<path d="M5076 3085 c-11 -8 -15 -15 -9 -15 6 0 16 7 23 15 16 19 11 19 -14 0z"/>
<path d="M1990 3050 c0 -15 7 -20 25 -20 14 0 25 2 25 4 0 2 -11 11 -25 20
-24 16 -25 16 -25 -4z"/>
<path d="M6153 3031 c-9 -11 -22 -17 -30 -14 -19 8 -45 -17 -40 -38 3 -12 -2
-20 -14 -24 -35 -12 -22 -68 22 -90 41 -22 98 -18 146 9 33 19 43 21 47 10 3
-7 17 -16 31 -20 22 -5 25 -11 25 -49 0 -24 5 -56 12 -72 l12 -28 4 44 c3 42
4 43 32 38 28 -6 29 -5 35 46 10 79 -7 131 -49 151 -19 9 -50 16 -69 16 -19 0
-54 9 -78 20 -55 25 -65 25 -86 1z"/>
<path d="M3667 2902 c-11 -12 -27 -17 -49 -14 -40 4 -59 -14 -77 -76 -9 -33
-20 -46 -49 -61 -43 -22 -67 -47 -75 -79 -8 -32 11 -80 35 -93 20 -11 20 -12
-10 -35 -17 -14 -55 -70 -88 -131 -55 -105 -57 -109 -55 -180 l2 -73 -298 0
c-164 0 -434 0 -600 0 l-303 0 0 -170 0 -169 -47 14 c-60 18 -64 18 -57 0 4
-8 2 -15 -4 -15 -5 0 -15 7 -22 15 -7 8 -20 15 -28 15 -11 0 -5 -11 18 -35 46
-47 32 -56 -18 -11 -51 46 -63 46 -22 0 40 -46 30 -60 -12 -16 -35 39 -47 36
-22 -5 l18 -28 -23 20 c-12 11 -30 31 -38 46 -13 21 -29 29 -92 43 -82 17
-194 66 -268 117 l-46 32 -18 -24 c-35 -45 -59 -126 -59 -199 0 -84 24 -153
74 -215 l36 -44 -100 -3 -100 -3 0 558 0 557 -45 0 -45 0 0 -1130 0 -1130 45
0 45 0 0 220 0 220 166 0 165 0 -31 -55 -31 -54 95 -46 c52 -25 103 -45 113
-45 11 1 43 37 87 100 67 97 70 100 107 100 l39 0 0 -220 0 -220 28 0 27 0 -3
308 -3 308 82 117 c45 64 85 117 89 117 4 0 21 -51 38 -112 l32 -113 0 -312 0
-313 35 0 35 0 2 178 3 177 35 -125 c34 -119 36 -125 60 -122 15 1 30 -4 37
-15 11 -15 13 -15 13 -1 0 12 17 19 70 28 38 6 79 9 91 5 14 -5 19 -3 15 3 -3
6 -1 12 4 14 11 3 -49 286 -166 792 -46 194 -54 240 -43 247 8 5 47 16 88 25
149 33 274 9 540 -104 l93 -40 2 -42 c3 -55 31 -80 92 -80 l44 0 0 -470 0
-470 28 0 27 0 -3 210 -3 210 353 -2 353 -3 0 -208 0 -207 35 0 35 0 -3 295
c-1 162 0 295 2 295 3 0 41 -16 85 -35 43 -19 81 -35 84 -35 2 0 12 18 22 40
13 28 23 39 34 35 13 -3 35 42 105 215 49 121 95 220 101 220 9 0 14 -65 19
-247 10 -352 25 -715 29 -720 3 -2 18 -5 35 -6 43 -3 32 -12 -33 -26 -30 -7
-55 -17 -55 -22 0 -5 68 -9 160 -9 l160 0 0 30 c0 23 4 30 20 30 19 0 20 7 20
190 l0 190 300 0 300 0 0 -220 0 -220 30 0 30 0 1 478 c1 327 4 463 11 432 5
-25 12 -240 15 -477 l5 -433 34 0 34 0 1 193 c0 105 0 210 -1 233 l-1 40 78
21 c43 12 86 25 96 28 16 7 17 -9 17 -249 l0 -256 30 0 30 0 0 215 0 215 355
0 355 0 0 -220 0 -220 45 0 45 0 0 1130 0 1130 -34 0 -33 0 -7 -542 c-3 -299
-9 -704 -12 -900 l-7 -358 -353 0 -354 0 0 187 c0 102 3 184 6 181 3 -3 38
-56 77 -117 l72 -111 88 66 c48 36 87 69 87 74 0 5 -31 57 -70 117 l-70 108
255 3 255 2 0 90 0 90 -112 0 c-103 1 -110 2 -83 14 63 28 105 101 105 182 l0
46 -300 -4 -300 -4 0 198 c0 151 -3 198 -12 199 -7 0 -88 0 -180 -1 l-168 0 0
188 c0 153 -3 192 -15 208 -15 18 -15 18 -9 -7 9 -41 10 -330 1 -361 l-7 -28
-354 0 -354 0 -28 33 -27 32 41 3 42 3 0 97 0 97 -31 -47 -31 -48 -32 27 -31
26 -3 -111 -3 -111 -679 0 c-430 0 -680 3 -680 9 0 6 -7 10 -15 10 -8 0 -15 6
-15 13 0 33 32 114 61 157 37 54 80 75 147 71 l42 -3 0 39 c1 21 7 65 15 98 8
33 15 87 15 120 0 57 2 62 35 88 19 15 35 24 35 19 0 -16 50 -32 100 -32 l50
0 0 -86 c0 -96 -16 -143 -55 -164 -27 -14 -36 -66 -12 -68 6 0 70 -3 141 -6
127 -5 128 -4 151 20 60 65 46 118 -35 132 -40 7 -45 10 -42 32 10 79 9 82
-33 104 -38 20 -40 24 -45 78 -7 74 -25 94 -87 91 -33 -1 -54 4 -71 18 -31 24
-84 25 -105 1z m542 -1037 c34 -9 86 -26 114 -39 52 -23 316 -196 300 -196 -9
0 -80 46 -193 125 -106 73 -214 109 -373 125 l-92 9 91 -4 c49 -2 118 -11 153
-20z m-313 -2 c-81 -17 -155 -46 -246 -98 -86 -49 -140 -76 -140 -71 0 5 204
117 255 139 55 24 134 45 170 45 17 0 -1 -6 -39 -15z m-1203 -50 c-7 -2 -21
-2 -30 0 -10 3 -4 5 12 5 17 0 24 -2 18 -5z m1375 0 c-15 -2 -42 -2 -60 0 -18
2 -6 4 27 4 33 0 48 -2 33 -4z m-1445 -10 c-7 -2 -19 -2 -25 0 -7 3 -2 5 12 5
14 0 19 -2 13 -5z m140 0 c-7 -2 -19 -2 -25 0 -7 3 -2 5 12 5 14 0 19 -2 13
-5z m1196 3 c-2 -2 -26 -6 -54 -9 -34 -4 -42 -3 -25 3 25 8 87 13 79 6z m246
-11 c39 -14 39 -14 5 -8 -19 4 -53 10 -75 14 l-40 6 35 1 c19 0 53 -6 75 -13z
m-1628 -1 c-3 -3 -12 -4 -19 -1 -8 3 -5 6 6 6 11 1 17 -2 13 -5z m1723 -29
c33 -19 21 -19 -21 0 -19 8 -27 14 -19 14 8 0 26 -6 40 -14z m-1410 -5 c8 -5
11 -10 5 -10 -5 0 -17 5 -25 10 -8 5 -10 10 -5 10 6 0 17 -5 25 -10z m890 0
c-8 -5 -19 -10 -25 -10 -5 0 -3 5 5 10 8 5 20 10 25 10 6 0 3 -5 -5 -10z
m-1077 -17 c-13 -2 -33 -2 -45 0 -13 2 -3 4 22 4 25 0 35 -2 23 -4z m-103 -13
c-34 -11 -60 -11 -35 0 11 5 29 8 40 8 16 0 15 -2 -5 -8z m199 -1 c48 -17 32
-20 -19 -4 -25 7 -38 14 -29 14 9 1 30 -4 48 -10z m277 -67 c-5 -4 -126 56
-126 63 0 3 29 -10 65 -27 35 -18 63 -34 61 -36z m1394 4 c30 -22 79 -55 109
-73 30 -18 50 -33 43 -33 -10 0 -46 23 -212 137 -44 31 -52 39 -20 23 14 -7
50 -31 80 -54z m843 57 c-13 -2 -33 -2 -45 0 -13 2 -3 4 22 4 25 0 35 -2 23
-4z m-1633 -8 c0 -2 -18 -14 -40 -25 -22 -11 -40 -18 -40 -15 0 2 17 13 38 24
42 23 42 23 42 16z m1543 -2 c-7 -2 -19 -2 -25 0 -7 3 -2 5 12 5 14 0 19 -2
13 -5z m182 -3 c25 -11 -1 -11 -35 0 -20 6 -21 8 -5 8 11 0 29 -3 40 -8z
m-2435 -60 c63 -32 111 -59 105 -59 -5 0 -62 27 -125 59 -63 32 -110 59 -105
59 6 0 62 -27 125 -59z m2190 50 c-34 -11 -60 -11 -35 0 11 5 29 8 40 8 16 0
15 -2 -5 -8z m300 -10 c8 -5 11 -10 5 -10 -5 0 -17 5 -25 10 -8 5 -10 10 -5
10 6 0 17 -5 25 -10z m-2036 -40 c-22 -11 -60 -22 -85 -25 -39 -4 -37 -3 14
10 32 8 66 19 75 25 9 5 22 9 27 9 6 0 -8 -9 -31 -19z m166 15 c0 -2 -18 -14
-40 -25 -22 -11 -40 -18 -40 -15 0 2 17 13 38 24 42 23 42 23 42 16z m-470
-15 c8 -5 11 -10 5 -10 -5 0 -17 5 -25 10 -8 5 -10 10 -5 10 6 0 17 -5 25 -10z
m2188 3 c-10 -2 -26 -2 -35 0 -10 3 -2 5 17 5 19 0 27 -2 18 -5z m272 -18 c25
-13 41 -24 35 -24 -5 0 -30 11 -55 24 -25 13 -40 24 -35 24 6 0 30 -11 55 -24z
m-655 -7 c-33 -11 -96 -21 -140 -23 l-80 -4 80 9 c44 5 100 16 125 24 25 7 52
14 60 14 8 0 -12 -9 -45 -20z m298 15 c-7 -2 -19 -2 -25 0 -7 3 -2 5 12 5 14
0 19 -2 13 -5z m150 0 c-7 -2 -19 -2 -25 0 -7 3 -2 5 12 5 14 0 19 -2 13 -5z
m-2154 -19 c9 -8 -45 -2 -64 6 -14 7 -8 8 20 3 22 -3 42 -7 44 -9z m2198 10
c-3 -3 -12 -4 -19 -1 -8 3 -5 6 6 6 11 1 17 -2 13 -5z m-718 -20 c10 -9 -35
-3 -49 6 -11 8 -7 9 15 4 17 -4 32 -8 34 -10z m438 10 c-3 -3 -12 -4 -19 -1
-8 3 -5 6 6 6 11 1 17 -2 13 -5z m-1859 -11 c-10 -2 -26 -2 -35 0 -10 3 -2 5
17 5 19 0 27 -2 18 -5z m2202 -3 c8 -5 11 -10 5 -10 -5 0 -17 5 -25 10 -8 5
-10 10 -5 10 6 0 17 -5 25 -10z m-2055 -31 c-22 -10 -47 -18 -55 -18 -8 0 5 8
30 19 59 24 76 24 25 -1z m799 1 c30 -12 58 -26 64 -33 6 -8 1 -31 -14 -67
-13 -30 -23 -49 -24 -42 0 25 -40 52 -75 52 l-35 0 0 55 c0 64 3 65 84 35z
m-1104 0 c8 -5 11 -10 5 -10 -5 0 -17 5 -25 10 -8 5 -10 10 -5 10 6 0 17 -5
25 -10z m47 -16 c-3 -3 -12 -4 -19 -1 -8 3 -5 6 6 6 11 1 17 -2 13 -5z m46
-11 c-7 -2 -19 -2 -25 0 -7 3 -2 5 12 5 14 0 19 -2 13 -5z m130 0 c-7 -2 -21
-2 -30 0 -10 3 -4 5 12 5 17 0 24 -2 18 -5z m1412 -13 l80 -9 -80 3 c-44 1
-89 8 -100 15 -20 12 -20 12 0 6 11 -4 56 -11 100 -15z m162 14 c-3 -3 -12 -4
-19 -1 -8 3 -5 6 6 6 11 1 17 -2 13 -5z m-1640 -10 c-3 -3 -12 -4 -19 -1 -8 3
-5 6 6 6 11 1 17 -2 13 -5z m1596 -1 c-7 -2 -19 -2 -25 0 -7 3 -2 5 12 5 14 0
19 -2 13 -5z m-2965 -215 c-8 -13 -72 -120 -143 -238 -70 -118 -135 -223 -143
-233 -14 -16 -33 -17 -181 -15 l-166 3 -3 253 -2 252 326 0 326 0 -14 -22z
m3970 -203 c-1 -203 -7 -175 -23 105 -6 115 -6 123 9 105 13 -17 15 -52 14
-210z m-348 -30 l0 -235 -302 2 -303 3 -3 233 -2 232 305 0 305 0 0 -235z
m-2010 5 l0 -220 115 0 115 0 0 221 c0 219 0 220 21 217 21 -3 21 -6 20 -225
l-2 -223 109 0 109 0 7 77 c3 42 6 143 6 225 l0 149 28 -3 27 -3 3 -137 3
-138 -28 0 -28 0 28 -23 c27 -21 28 -25 25 -97 l-3 -75 -42 -3 c-31 -2 -43 -8
-43 -19 0 -10 -6 -13 -16 -9 -9 3 -37 6 -64 6 -39 0 -49 4 -53 20 -5 20 -37
29 -37 10 0 -5 -23 -10 -50 -10 -35 0 -49 -4 -48 -12 2 -10 -13 -12 -57 -10
-47 3 -64 8 -77 25 -14 18 -19 20 -29 10 -9 -9 -44 -13 -101 -13 l-88 0 0 233
c0 129 3 237 7 240 3 4 37 7 75 7 l68 0 0 -220z m690 216 c0 -8 -61 -170 -66
-175 -2 -2 -4 37 -4 87 l0 92 35 0 c19 0 35 -2 35 -4z m-41 -245 c10 -7 11
-13 2 -30 -15 -26 -31 -19 -31 15 0 25 7 29 29 15z m-2193 -217 c-5 -14 -46
-20 -46 -8 0 4 10 23 23 43 l22 36 3 -28 c2 -16 1 -35 -2 -43z"/>
<path d="M6255 2840 c-4 -6 9 -10 32 -10 28 0 34 3 23 10 -20 13 -47 13 -55 0z"/>
<path d="M6131 2831 c-8 -5 -9 -11 -3 -15 6 -3 8 -15 5 -26 -6 -23 12 -27 30
-7 18 19 20 39 5 48 -16 11 -20 11 -37 0z"/>
<path d="M6257 2803 c-11 -10 -8 -33 4 -33 15 0 39 26 32 34 -8 8 -28 8 -36
-1z"/>
<path d="M6191 2754 c-10 -29 -10 -38 -1 -47 9 -9 11 -9 7 -1 -4 7 -2 26 4 43
6 18 9 34 7 36 -2 3 -10 -12 -17 -31z"/>
<path d="M3685 2740 c-4 -6 5 -10 19 -10 14 0 26 5 26 10 0 6 -9 10 -19 10
-11 0 -23 -4 -26 -10z"/>
<path d="M3805 2730 c-4 -6 5 -10 20 -10 15 0 24 4 20 10 -3 6 -12 10 -20 10
-8 0 -17 -4 -20 -10z"/>
<path d="M3706 2695 c4 -8 10 -15 15 -15 5 0 9 7 9 15 0 8 -7 15 -15 15 -9 0
-12 -6 -9 -15z"/>
<path d="M3816 2695 c4 -8 10 -15 15 -15 5 0 9 7 9 15 0 8 -7 15 -15 15 -9 0
-12 -6 -9 -15z"/>
<path d="M4881 2574 c0 -11 3 -14 6 -6 3 7 2 16 -1 19 -3 4 -6 -2 -5 -13z"/>
<path d="M6275 2575 c-16 -8 -40 -14 -52 -15 -24 0 -31 -14 -13 -25 15 -9 75
13 95 35 21 23 13 24 -30 5z"/>
<path d="M5342 2520 c-2 -71 5 -110 20 -110 5 0 6 6 1 13 -4 6 -11 46 -14 87
l-6 75 -1 -65z"/>
<path d="M3080 2555 c0 -9 6 -12 15 -9 8 4 15 7 15 9 0 2 -7 5 -15 9 -9 3 -15
0 -15 -9z"/>
<path d="M5966 2552 c-39 -18 -40 -19 -61 -115 -12 -53 -18 -97 -14 -97 8 0
20 37 40 127 11 48 17 57 51 74 36 18 48 29 31 29 -5 0 -26 -8 -47 -18z"/>
<path d="M1665 2468 c-80 -106 -100 -140 -34 -58 68 85 115 150 107 150 -2 0
-35 -42 -73 -92z"/>
<path d="M3088 2523 c7 -3 16 -2 19 1 4 3 -2 6 -13 5 -11 0 -14 -3 -6 -6z"/>
<path d="M6399 2443 l-24 -28 28 24 c15 14 27 26 27 28 0 8 -8 1 -31 -24z"/>
<path d="M6360 2389 c-7 -11 -10 -23 -7 -25 2 -2 9 7 15 21 14 30 7 33 -8 4z"/>
<path d="M6336 2335 c-3 -9 -6 -22 -5 -28 0 -7 5 -1 10 12 5 13 8 26 5 28 -2
2 -6 -3 -10 -12z"/>
<path d="M6073 2285 c0 -27 2 -38 4 -22 2 15 2 37 0 50 -2 12 -4 0 -4 -28z"/>
<path d="M1540 2306 c0 -2 8 -10 18 -17 15 -13 16 -12 3 4 -13 16 -21 21 -21
13z"/>
<path d="M6330 2285 c0 -7 121 -67 126 -63 2 2 -26 18 -61 36 -36 17 -65 30
-65 27z"/>
<path d="M1580 2276 c0 -3 64 -60 143 -127 143 -122 135 -112 -27 36 -86 78
-116 101 -116 91z"/>
<path d="M4103 2268 c-45 -15 -43 -38 2 -38 31 0 35 3 35 25 0 14 -1 25 -2 24
-2 -1 -18 -6 -35 -11z"/>
<path d="M430 2080 c12 -16 24 -30 26 -30 3 0 -4 14 -16 30 -12 17 -24 30 -26
30 -3 0 4 -13 16 -30z"/>
<path d="M460 2036 c0 -2 8 -10 18 -17 15 -13 16 -12 3 4 -13 16 -21 21 -21
13z"/>
<path d="M1879 2018 c7 -9 9 -23 5 -30 -6 -10 -4 -11 7 0 11 10 10 15 -6 30
-17 15 -18 15 -6 0z"/>
<path d="M591 1974 c0 -11 3 -14 6 -6 3 7 2 16 -1 19 -3 4 -6 -2 -5 -13z"/>
<path d="M1824 1918 l-29 -33 33 29 c17 17 32 31 32 33 0 8 -8 1 -36 -29z"/>
<path d="M582 1920 c0 -14 2 -19 5 -12 2 6 2 18 0 25 -3 6 -5 1 -5 -13z"/>
<path d="M550 1786 c0 -2 8 -10 18 -17 15 -13 16 -12 3 4 -13 16 -21 21 -21
13z"/>
<path d="M600 1725 c13 -14 26 -25 28 -25 3 0 -5 11 -18 25 -13 14 -26 25 -28
25 -3 0 5 -11 18 -25z"/>
<path d="M703 1618 c-43 -57 -66 -91 -58 -86 12 7 78 98 72 98 -3 0 -9 -6 -14
-12z"/>
<path d="M987 1433 c-39 -74 -47 -102 -21 -68 25 32 65 116 62 127 -2 6 -21
-21 -41 -59z"/>
<path d="M541 1444 c0 -11 3 -14 6 -6 3 7 2 16 -1 19 -3 4 -6 -2 -5 -13z"/>
<path d="M552 1400 c0 -14 2 -19 5 -12 2 6 2 18 0 25 -3 6 -5 1 -5 -13z"/>
<path d="M852 1310 c0 -48 14 -162 17 -145 5 23 -1 136 -9 162 -7 25 -8 23 -8
-17z"/>
<path d="M6254 1056 c-8 -34 2 -45 23 -23 16 16 16 18 1 34 -16 15 -17 14 -24
-11z"/>
<path d="M817 1031 c-30 -22 -58 -37 -61 -35 -3 2 -4 1 -1 -3 3 -3 -3 -12 -13
-20 -33 -27 53 19 93 50 57 43 61 47 49 47 -6 0 -36 -18 -67 -39z"/>
<path d="M653 980 c3 -14 9 -47 13 -75 7 -51 23 -96 24 -65 0 36 -22 146 -32
155 -7 7 -9 3 -5 -15z"/>
<path d="M600 986 c0 -2 8 -10 18 -17 15 -13 16 -12 3 4 -13 16 -21 21 -21 13z"/>
<path d="M6116 925 c-4 -13 -2 -14 14 -5 23 13 26 20 6 20 -8 0 -16 -7 -20
-15z"/>
<path d="M5823 848 c-5 -7 -13 -20 -16 -29 -4 -13 -1 -16 14 -12 25 7 32 19
21 39 -7 12 -10 13 -19 2z"/>
<path d="M706 835 c-9 -26 -7 -32 5 -12 6 10 9 21 6 23 -2 3 -7 -2 -11 -11z"/>
<path d="M590 678 c0 -7 -9 -71 -20 -142 -11 -71 -20 -133 -20 -137 0 -5 61
-9 135 -9 135 0 135 0 130 23 -2 12 -9 67 -15 122 -6 55 -13 112 -16 128 l-6
27 -94 0 c-68 0 -94 -3 -94 -12z"/>
</g>
</svg>
