<?xml version="1.0" encoding="utf-8"?>
<!-- Generator: Adobe Illustrator 24.0.1, SVG Export Plug-In . SVG Version: 6.00 Build 0)  -->
<svg version="1.1" xmlns="http://www.w3.org/2000/svg" xmlns:xlink="http://www.w3.org/1999/xlink" x="0px" y="0px"
	 viewBox="0 0 500 500" style="enable-background:new 0 0 500 500;" xml:space="preserve">
<style type="text/css">
	.st0{fill:#EBEBEB;}
	.st1{fill:#FAFAFA;}
	.st2{fill:#E0E0E0;}
	.st3{fill:#F5F5F5;}
	.st4{display:none;}
	.st5{display:inline;fill:#EBEBEB;}
	.st6{fill:#F4B545;}
	.st7{opacity:0.3;}
	.st8{fill:#263238;}
	.st9{opacity:0.6;}
	.st10{fill:#FFFFFF;}
	.st11{fill:#455A64;}
	.st12{fill:#003F3A;}
	.st13{fill:#FFBE9D;}
	.st14{fill:#EB996E;}
</style>
<g id="Background_Complete">
	<g>
		<g>
			<g>
				<g>
					<g>
						
							<rect x="243" y="102.4" transform="matrix(-1 -1.224647e-16 1.224647e-16 -1 517.8859 259.7874)" class="st0" width="31.8" height="54.9"/>
					</g>
				</g>
			</g>
			<g>
				<g>
					<g>
						<g>
							
								<rect x="154.2" y="89.7" transform="matrix(-1 -1.224647e-16 1.224647e-16 -1 333.4947 247.9033)" class="st0" width="25.1" height="68.5"/>
						</g>
					</g>
				</g>
				<g>
					<g>
						<g>
							<g>
								<path class="st1" d="M153.9,94.6c0-0.2,5.8-0.4,12.8-0.4c7.1,0,12.8,0.2,12.8,0.4c0,0.2-5.7,0.4-12.8,0.4
									C159.6,95,153.9,94.9,153.9,94.6z"/>
							</g>
						</g>
					</g>
				</g>
				<g>
					<g>
						<g>
							<g>
								<path class="st1" d="M155.3,97.9c0-0.2,5.4-0.4,12.1-0.4c6.7,0,12.1,0.2,12.1,0.4s-5.4,0.4-12.1,0.4
									C160.7,98.3,155.3,98.1,155.3,97.9z"/>
							</g>
						</g>
					</g>
				</g>
				<g>
					<g>
						<g>
							<g>
								<path class="st1" d="M166,144.7c-0.2,0-0.4-9.1-0.4-20.3c0-11.2,0.2-20.3,0.4-20.3c0.2,0,0.4,9.1,0.4,20.3
									C166.4,135.6,166.2,144.7,166,144.7z"/>
							</g>
						</g>
					</g>
				</g>
				<g>
					<g>
						<g>
							<g>
								<path class="st1" d="M154.2,151c0-0.2,5.5-0.4,12.3-0.4c6.8,0,12.3,0.2,12.3,0.4c0,0.2-5.5,0.4-12.3,0.4
									C159.7,151.4,154.2,151.2,154.2,151z"/>
							</g>
						</g>
					</g>
				</g>
				<g>
					<g>
						<g>
							<g>
								<path class="st1" d="M154.2,153.9c0-0.2,5.7-0.4,12.6-0.4c7,0,12.6,0.2,12.6,0.4c0,0.2-5.6,0.4-12.6,0.4
									C159.8,154.3,154.2,154.1,154.2,153.9z"/>
							</g>
						</g>
					</g>
				</g>
			</g>
			<g>
				<g>
					<g>
						<g>
							
								<rect x="179.3" y="82.3" transform="matrix(-1 -1.224647e-16 1.224647e-16 -1 378.8159 240.4933)" class="st2" width="20.2" height="75.9"/>
						</g>
					</g>
				</g>
				<g>
					<g>
						<g>
							<g>
								<path class="st1" d="M179.2,117.2c0.1-0.1,1.3,0.8,3.1,2.2c2.1,1.6,4.6,3.5,7.3,5.5c2.7,2.1,5.2,4,7.3,5.5
									c1.9,1.4,3,2.3,2.9,2.4c-0.1,0.1-1.3-0.7-3.2-2c-1.9-1.3-4.6-3.2-7.4-5.4c-2.8-2.2-5.4-4.2-7.2-5.7
									C180.2,118.2,179.1,117.2,179.2,117.2z"/>
							</g>
						</g>
					</g>
				</g>
				<g>
					<g>
						<g>
							<g>
								<path class="st1" d="M179.1,105.3c0.1-0.2,4.8,3.6,10.3,8.4c5.6,4.8,10,8.8,9.8,8.9c-0.1,0.2-4.8-3.6-10.3-8.4
									C183.4,109.4,179,105.4,179.1,105.3z"/>
							</g>
						</g>
					</g>
				</g>
			</g>
			<g>
				<g>
					<g>
						<g>
							<g>
								<g>
									<g>
										<g>
											
												<rect x="91.5" y="85.9" transform="matrix(-1 -1.224647e-16 1.224647e-16 -1 192.6671 244.198)" class="st0" width="9.7" height="72.3"/>
										</g>
									</g>
								</g>
							</g>
						</g>
					</g>
					<g>
						<g>
							<g>
								<g>
									<g>
										<g>
											<g>
												<path class="st1" d="M91.9,95.8c0,0.3,2,0.5,4.5,0.5c2.5,0,4.5-0.2,4.5-0.5c0-0.3-2-0.5-4.5-0.5
													C93.9,95.3,91.9,95.5,91.9,95.8z"/>
											</g>
										</g>
									</g>
								</g>
							</g>
						</g>
					</g>
					<g>
						<g>
							<g>
								<g>
									<g>
										<g>
											<g>
												<path class="st1" d="M91.7,94.2c0,0.3,2,0.5,4.5,0.5c2.5,0,4.5-0.2,4.5-0.5c0-0.3-2-0.5-4.5-0.5
													C93.7,93.8,91.7,94,91.7,94.2z"/>
											</g>
										</g>
									</g>
								</g>
							</g>
						</g>
					</g>
					<g>
						<g>
							<g>
								<g>
									<g>
										<g>
											<g>
												<path class="st1" d="M91.9,152.7c0,0.3,2,0.5,4.5,0.5c2.5,0,4.5-0.2,4.5-0.5c0-0.3-2-0.5-4.5-0.5
													C93.9,152.2,91.9,152.4,91.9,152.7z"/>
											</g>
										</g>
									</g>
								</g>
							</g>
						</g>
					</g>
					<g>
						<g>
							<g>
								<g>
									<g>
										<g>
											<g>
												<path class="st1" d="M91.7,151.1c0,0.3,2,0.5,4.5,0.5c2.5,0,4.5-0.2,4.5-0.5c0-0.3-2-0.5-4.5-0.5
													C93.7,150.6,91.7,150.8,91.7,151.1z"/>
											</g>
										</g>
									</g>
								</g>
							</g>
						</g>
					</g>
					<g>
						<g>
							<g>
								<g>
									<g>
										<g>
											<g>
												<path class="st1" d="M96.6,141.6c0.3,0,0.5-8.3,0.5-18.5c0-10.2-0.2-18.5-0.5-18.5c-0.3,0-0.5,8.3-0.5,18.5
													C96.2,133.4,96.4,141.6,96.6,141.6z"/>
											</g>
										</g>
									</g>
								</g>
							</g>
						</g>
					</g>
				</g>
				<g>
					<g>
						<g>
							<g>
								<g>
									<g>
										<g>
											
												<rect x="134.8" y="85.5" transform="matrix(-1 -1.224647e-16 1.224647e-16 -1 288.9393 243.2703)" class="st2" width="19.3" height="72.3"/>
										</g>
									</g>
								</g>
							</g>
						</g>
					</g>
					<g>
						<g>
							<g>
								<g>
									<g>
										<g>
											<g>
												<path class="st1" d="M148.7,158.7c0,0,0.1-0.1,0.2-0.4c0.1-0.3,0.3-0.7,0.6-1.2c0.4-1.1,1.1-2.7,1.4-4.9
													c0.3-2.2,0.4-5.1-1.1-8c-0.8-1.4-1.9-2.8-3.4-3.8c-1.5-1-3.5-1.6-5.6-1.3c-1,0.2-2,0.6-2.9,1.3
													c-0.8,0.7-1.5,1.8-1.4,3.1c0.1,1.2,0.7,2.3,1.7,3.1c0.9,0.8,2.1,1.3,3.3,1.4c2.5,0.3,5-0.7,6.8-2.5
													c1.9-1.7,3.1-4.3,3.4-7c0.3-2.7-0.1-5.4-1-8.1c-0.9-2.6-2.4-5.2-4.7-7c-1.2-0.9-2.6-1.5-4.2-1.6
													c-1.5-0.1-3.2,0.4-4.3,1.5c-0.6,0.6-1,1.4-1,2.3c0,0.9,0.2,1.7,0.7,2.4c0.9,1.4,2.3,2.3,3.9,2.7
													c3.2,0.7,6.5-0.6,8.5-2.9c2.1-2.3,3-5.3,3.3-8.1c0.3-2.9,0.1-5.8-0.8-8.4c-0.9-2.7-2.6-5-5-6.4
													c-2.3-1.4-5.2-1.9-7.7-0.8c-1.2,0.5-2.3,1.6-2.5,3c-0.2,1.3,0.1,2.6,0.9,3.6c1.6,2,4.4,2.4,6.5,1.7
													c2.2-0.7,3.8-2.1,5.1-3.6c2.6-3.1,3.7-6.8,3.9-9.9c0.1-3.2-0.8-5.9-1.8-7.9c-1-2-2.2-3.3-3-4.1c-0.4-0.4-0.8-0.7-1-0.9
													c-0.2-0.2-0.4-0.3-0.4-0.3c-0.1,0.1,2.1,1.4,4.1,5.4c0.9,2,1.8,4.6,1.6,7.7c-0.2,3.1-1.3,6.6-3.8,9.5
													c-1.3,1.4-2.9,2.8-4.8,3.4c-1.9,0.6-4.4,0.2-5.7-1.5c-0.6-0.8-0.9-2-0.7-3c0.2-1.1,1-1.9,2.1-2.4
													c2.1-0.9,4.8-0.5,6.9,0.8c2.2,1.3,3.8,3.5,4.6,6c0.8,2.5,1.1,5.3,0.8,8.1c-0.3,2.7-1.2,5.5-3.1,7.6
													c-1.8,2.1-4.9,3.2-7.6,2.6c-1.4-0.3-2.6-1.1-3.3-2.3c-0.7-1.1-0.7-2.6,0.2-3.5c0.9-0.9,2.3-1.4,3.6-1.3
													c1.3,0.1,2.6,0.6,3.7,1.5c2.2,1.7,3.6,4.1,4.5,6.6c0.9,2.5,1.3,5.2,1,7.7c-0.3,2.5-1.3,4.9-3.1,6.5
													c-1.7,1.6-4,2.6-6.2,2.3c-2.1-0.2-4.2-1.8-4.3-3.8c-0.1-1,0.4-1.9,1.1-2.5c0.7-0.6,1.6-1,2.5-1.2
													c1.9-0.3,3.7,0.2,5.1,1.2c1.4,0.9,2.6,2.2,3.3,3.5c1.5,2.7,1.5,5.5,1.2,7.7c-0.3,2.2-0.8,3.8-1.2,4.9
													C148.9,158.2,148.7,158.7,148.7,158.7z"/>
											</g>
										</g>
									</g>
								</g>
							</g>
						</g>
					</g>
				</g>
				<g>
					<g>
						<g>
							<g>
								<g>
									<g>
										<g>
											
												<rect x="101" y="92" transform="matrix(-1 -1.224647e-16 1.224647e-16 -1 235.5538 249.7911)" class="st1" width="33.5" height="65.9"/>
										</g>
									</g>
								</g>
							</g>
						</g>
					</g>
					<g>
						<g>
							<g>
								<g>
									<g>
										<g>
											<g>
												<path class="st2" d="M102.2,102.9c0,0.3,7.3,0.5,16.2,0.5c9,0,16.2-0.2,16.2-0.5c0-0.3-7.3-0.5-16.2-0.5
													C109.4,102.4,102.2,102.7,102.2,102.9z"/>
											</g>
										</g>
									</g>
								</g>
							</g>
						</g>
					</g>
					<g>
						<g>
							<g>
								<g>
									<g>
										<g>
											<g>
												<path class="st2" d="M101.7,107.9c0,0.3,7.2,0.5,16,0.5c8.8,0,16-0.2,16-0.5c0-0.3-7.2-0.5-16-0.5
													C108.9,107.4,101.7,107.6,101.7,107.9z"/>
											</g>
										</g>
									</g>
								</g>
							</g>
						</g>
					</g>
					<g>
						<g>
							<g>
								<g>
									<g>
										<g>
											<g>
												<path class="st2" d="M100.7,150.4c0,0.3,7.6,0.5,16.9,0.5c9.3,0,16.9-0.2,16.9-0.5c0-0.3-7.6-0.5-16.9-0.5
													C108.2,149.9,100.7,150.1,100.7,150.4z"/>
											</g>
										</g>
									</g>
								</g>
							</g>
						</g>
					</g>
					<g>
						<g>
							<g>
								<g>
									<g>
										<g>
											<g>
												<path class="st2" d="M101.1,144.5c0,0.3,7.4,0.5,16.4,0.5c9.1,0,16.4-0.2,16.4-0.5c0-0.3-7.4-0.5-16.4-0.5
													C108.5,144.1,101.1,144.3,101.1,144.5z"/>
											</g>
										</g>
									</g>
								</g>
							</g>
						</g>
					</g>
				</g>
			</g>
			<g>
				<g>
					<g>
						<g>
							<g>
								<g>
									<g>
										
											<rect x="199.5" y="85" transform="matrix(-1 -1.224647e-16 1.224647e-16 -1 418.3147 242.3426)" class="st0" width="19.3" height="72.3"/>
									</g>
								</g>
							</g>
						</g>
					</g>
				</g>
				<g>
					<g>
						<g>
							<g>
								<g>
									<g>
										<g>
											<path class="st1" d="M213.4,158.3c0,0,0.1-0.1,0.2-0.4c0.1-0.3,0.3-0.7,0.6-1.2c0.4-1.1,1.1-2.7,1.4-4.9
												c0.3-2.2,0.4-5.1-1.1-8c-0.8-1.4-1.9-2.8-3.4-3.8c-1.5-1-3.5-1.6-5.6-1.3c-1,0.2-2,0.6-2.9,1.3c-0.8,0.7-1.5,1.8-1.4,3.1
												c0.1,1.2,0.7,2.3,1.7,3.1c0.9,0.8,2.1,1.3,3.3,1.4c2.5,0.3,5-0.7,6.8-2.5c1.9-1.7,3.1-4.3,3.4-7c0.3-2.7-0.1-5.4-1-8.1
												c-0.9-2.6-2.4-5.2-4.7-7c-1.2-0.9-2.6-1.5-4.2-1.6c-1.5-0.1-3.2,0.4-4.3,1.5c-0.6,0.6-1,1.4-1,2.3c0,0.9,0.2,1.7,0.7,2.4
												c0.9,1.4,2.3,2.3,3.9,2.7c3.2,0.7,6.5-0.6,8.5-2.9c2.1-2.3,3-5.3,3.3-8.1c0.3-2.9,0.1-5.8-0.8-8.4c-0.9-2.7-2.6-5-5-6.4
												c-2.3-1.4-5.2-1.9-7.7-0.8c-1.2,0.5-2.3,1.6-2.5,3c-0.2,1.3,0.1,2.6,0.9,3.6c1.6,2,4.4,2.4,6.5,1.7
												c2.2-0.7,3.8-2.1,5.1-3.6c2.6-3.1,3.7-6.8,3.9-9.9c0.1-3.2-0.8-5.9-1.8-7.9c-1-2-2.2-3.3-3-4.1c-0.4-0.4-0.8-0.7-1-0.9
												c-0.2-0.2-0.4-0.3-0.4-0.3c-0.1,0.1,2.1,1.4,4.1,5.4c0.9,2,1.8,4.6,1.6,7.7c-0.2,3.1-1.3,6.6-3.8,9.5
												c-1.3,1.4-2.9,2.8-4.8,3.4c-1.9,0.6-4.4,0.2-5.7-1.5c-0.6-0.8-0.9-2-0.7-3c0.2-1.1,1-1.9,2.1-2.4
												c2.1-0.9,4.8-0.5,6.9,0.8c2.2,1.3,3.8,3.5,4.6,6c0.8,2.5,1.1,5.3,0.8,8.1c-0.3,2.7-1.2,5.5-3.1,7.6
												c-1.8,2.1-4.9,3.2-7.6,2.6c-1.4-0.3-2.6-1.1-3.3-2.3c-0.7-1.1-0.7-2.6,0.2-3.5c0.9-0.9,2.3-1.4,3.6-1.3
												c1.3,0.1,2.6,0.6,3.7,1.5c2.2,1.7,3.6,4.1,4.5,6.6c0.9,2.5,1.3,5.2,1,7.7c-0.3,2.5-1.3,4.9-3.1,6.5
												c-1.7,1.6-4,2.6-6.2,2.3c-2.1-0.2-4.2-1.8-4.3-3.8c-0.1-1,0.4-1.9,1.1-2.5c0.7-0.6,1.6-1,2.5-1.2
												c1.9-0.3,3.7,0.2,5.1,1.2c1.4,0.9,2.6,2.2,3.3,3.5c1.5,2.7,1.5,5.5,1.2,7.7c-0.3,2.2-0.8,3.8-1.2,4.9
												C213.6,157.7,213.3,158.3,213.4,158.3z"/>
										</g>
									</g>
								</g>
							</g>
						</g>
					</g>
				</g>
			</g>
			<g>
				<g>
					<g>
						
							<rect x="64.6" y="81.4" transform="matrix(-1 -1.224647e-16 1.224647e-16 -1 156.1479 238.692)" class="st2" width="26.9" height="76"/>
					</g>
				</g>
			</g>
			<g>
				<g>
					<g>
						
							<rect x="218.8" y="89.7" transform="matrix(-1 -1.224647e-16 1.224647e-16 -1 462.7588 247.0297)" class="st2" width="25.1" height="67.6"/>
					</g>
				</g>
			</g>
			<g>
				<g>
					<g>
						<g>
							<path class="st1" d="M244.6,123.4c0.1-0.1,1.3,1.5,4,2.8c1.3,0.7,3.1,1.2,5.1,1.4c2,0.2,4.2-0.2,6.3-1.1
								c2.1-0.9,4.1-2.1,6-2.7c1.9-0.7,3.9-0.9,5.5-0.5c1.6,0.4,2.6,1.2,3.2,1.9c0.6,0.7,0.7,1.2,0.6,1.2c-0.1,0-0.3-0.4-0.8-1
								c-0.6-0.6-1.6-1.3-3.1-1.6c-1.4-0.3-3.3-0.1-5.1,0.6c-1.9,0.7-3.8,1.8-6,2.8c-2.2,1-4.6,1.3-6.6,1.1
								c-2.1-0.2-3.9-0.9-5.2-1.6c-1.4-0.8-2.3-1.6-2.9-2.2C244.8,123.9,244.5,123.5,244.6,123.4z"/>
						</g>
					</g>
				</g>
			</g>
			<g>
				<g>
					<g>
						<g>
							<path class="st1" d="M244,130.1c0.1-0.1,1.3,1.5,4,2.8c1.3,0.7,3.1,1.2,5.1,1.4c2,0.2,4.2-0.2,6.3-1.1c2.1-0.9,4.1-2.1,6-2.7
								c1.9-0.7,3.9-0.9,5.5-0.5c1.6,0.4,2.6,1.2,3.2,1.9c0.6,0.7,0.7,1.2,0.6,1.2c-0.1,0-0.3-0.4-0.8-1c-0.6-0.6-1.6-1.3-3.1-1.6
								c-1.4-0.3-3.3-0.1-5.1,0.6c-1.9,0.7-3.8,1.8-6,2.8c-2.2,1-4.6,1.3-6.6,1.1c-2.1-0.2-3.9-0.9-5.2-1.6
								c-1.4-0.8-2.3-1.6-2.9-2.2C244.2,130.6,244,130.1,244,130.1z"/>
						</g>
					</g>
				</g>
			</g>
			<g>
				<g>
					<g>
						<g>
							<path class="st1" d="M244.4,108.5c0-0.2,6.9-0.4,15.4-0.4c8.5,0,15.4,0.2,15.4,0.4c0,0.2-6.9,0.4-15.4,0.4
								C251.3,108.8,244.4,108.7,244.4,108.5z"/>
						</g>
					</g>
				</g>
			</g>
			<g>
				<g>
					<g>
						<g>
							<path class="st1" d="M233,100.6c-0.1,0.1-0.8-0.6-2.2-0.2c-0.6,0.2-1.4,0.6-1.7,1.4c-0.3,0.8-0.1,1.8,0.6,2.5
								c0.7,0.7,1.7,0.9,2.5,0.5c0.8-0.4,1.2-1.1,1.3-1.8c0.3-1.4-0.4-2.1-0.3-2.2c0,0,0.2,0.1,0.5,0.5c0.2,0.4,0.4,1,0.3,1.8
								c-0.1,0.8-0.6,1.7-1.6,2.3c-1,0.6-2.4,0.2-3.3-0.6c-0.9-0.8-1.3-2.3-0.8-3.3c0.5-1,1.5-1.5,2.2-1.6c0.8-0.1,1.4,0,1.8,0.2
								C232.9,100.3,233.1,100.6,233,100.6z"/>
						</g>
					</g>
				</g>
			</g>
			<g>
				<g>
					<g>
						<g>
							<path class="st1" d="M231.4,150.6c-0.2,0-0.4-9.5-0.4-21.2c0-11.7,0.2-21.2,0.4-21.2c0.2,0,0.4,9.5,0.4,21.2
								C231.8,141.1,231.6,150.6,231.4,150.6z"/>
						</g>
					</g>
				</g>
			</g>
		</g>
		<g>
			<g>
				<rect x="41.1" y="157" class="st0" width="260" height="14.8"/>
			</g>
		</g>
		<g>
			<g>
				<rect x="278.4" y="157" class="st2" width="22.7" height="14.8"/>
			</g>
		</g>
	</g>
	<g>
		<g>
			<g>
				<g>
					<path class="st0" d="M428,340.8c7-3.6,15.1-4.1,22.9-2.8c4.1,0.7,8.5,1.9,11.3,5c2.8,3.1,3.4,8.6,0.1,11.3
						c-1.9,1.6-4.6,1.8-7.1,1.8c-6-0.1-12.8-1.1-17.6,2.5c-2.8,2.1-4.6,5.5-7.9,6.5c-3.2,1-6.9-0.9-8.6-3.8c-1.7-2.9-1.8-6.5-1-9.8
						C420.1,351.6,421,344.4,428,340.8z"/>
				</g>
			</g>
			<g>
				<g>
					<path class="st0" d="M412,310c4.3,6.1,12.5,4.1,16.4,0.4c3.8-3.7,5.5-9.1,6.9-14.2c3.4-11.7,6.8-24,4.3-35.9
						c-0.7-3.6-2.1-7.1-4.6-9.8c-2.5-2.6-6.4-4.2-9.9-3.3c-4.2,1.1-6.8,5.2-8.6,9.1c-5.5,11.4-8.4,24.1-8.5,36.7
						C408,298.9,408.7,305.1,412,310"/>
				</g>
			</g>
			<g>
				<g>
					<path class="st0" d="M400.4,318.7c4.6-5.5,5.5-13.5,3.4-20.3c-2.1-6.9-6.7-12.7-12-17.5c-6.3-5.6-13.6-9.9-21.6-12.7
						c-3.1-1.1-6.4-2-9.7-1.6c-3.3,0.3-6.6,2-8.1,4.9c-2.3,4.3-0.1,9.6,2.3,13.9c4.1,7.6,8.9,14.8,14.2,21.6
						c4.2,5.5,9.1,10.9,15.6,13.4c6.5,2.5,13.2,2.2,16.6-2.3"/>
				</g>
			</g>
			<g>
				<g>
					<g>
						<path class="st2" d="M411.7,401.7c0.1,0,0.2-1,0.4-2.8c0.2-2,0.4-4.5,0.7-7.5c0.4-3.2,0.8-6.9,1.7-11.1c0.9-4.1,2.3-8.5,4-13
							c1.8-4.5,4.1-8.5,6.7-11.8c2.6-3.3,5.6-5.6,8.4-7c2.8-1.4,5.3-2,7.1-2.2c1.8-0.2,2.7-0.3,2.7-0.4c0-0.1-1-0.1-2.8,0
							c-1.8,0.1-4.4,0.6-7.4,1.9c-3,1.3-6.2,3.7-8.9,7.1c-2.7,3.3-5,7.5-6.9,12c-1.8,4.6-3.1,9.1-4,13.3c-0.8,4.2-1.2,8-1.5,11.2
							c-0.2,3.2-0.3,5.8-0.4,7.6C411.6,400.7,411.7,401.7,411.7,401.7z"/>
					</g>
				</g>
			</g>
			<g>
				<g>
					<g>
						<path class="st2" d="M412.3,395.9c0,0,0.1-0.4,0.1-1.3c0-1,0-2.2,0-3.7c0-3.2,0-7.8,0.2-13.5c0.3-11.4,1.3-23.6,3.1-40.8
							c1.8-16.2,4.2-35.1,6.7-47.3c0.5-2.8,1.1-5.3,1.6-7.5c0.5-2.2,0.9-4.1,1.3-5.6c0.3-1.4,0.6-2.6,0.9-3.6
							c0.2-0.8,0.3-1.3,0.2-1.3c0,0-0.2,0.4-0.4,1.2c-0.3,0.9-0.6,2.1-1.1,3.5c-0.5,1.5-1,3.4-1.5,5.6c-0.6,2.2-1.2,4.7-1.8,7.5
							c-2.5,11.1-5.2,26.6-7.1,43.9c-1.9,17.3-2.7,33-2.8,44.4c-0.1,5.7,0.1,10.3,0.2,13.5c0.1,1.5,0.2,2.7,0.2,3.7
							C412.2,395.4,412.2,395.9,412.3,395.9z"/>
					</g>
				</g>
			</g>
			<g>
				<g>
					<g>
						<path class="st2" d="M412.3,365.5c0.1,0,0.1-1.4,0-3.8c-0.1-2.5-0.5-6-1.2-10.4c-0.7-4.3-1.8-9.5-3.4-15.1
							c-0.7-2.6-2.3-8.7-6.3-17.9c-5.2-12.4-12.4-22.6-18.6-28.9c-1.5-1.7-3.1-2.9-4.4-4.1c-0.7-0.6-1.3-1.1-1.9-1.6
							c-0.6-0.4-1.2-0.8-1.7-1.2c-2-1.4-3.2-2.1-3.2-2.1c-0.2,0.2,4.6,3,10.6,9.4c6,6.4,12.9,16.5,18.1,28.8
							c2.9,6.7,4.9,12.6,6.4,17.7c1.7,5.5,2.8,10.7,3.6,15c0.8,4.3,1.2,7.8,1.5,10.3C412.1,364.2,412.3,365.5,412.3,365.5z"/>
					</g>
				</g>
			</g>
		</g>
		<g>
			<g>
				<polygon class="st2" points="383,419.1 386.1,460.7 439.6,460.7 442.6,419.1 				"/>
			</g>
		</g>
		<g>
			<g>
				<rect x="377.8" y="402.6" class="st2" width="71.1" height="16.4"/>
			</g>
		</g>
		<g>
			<g>
				<polygon class="st0" points="377.8,459.1 377.8,463.7 381.2,463.7 447.8,463.7 447.8,459.1 				"/>
			</g>
		</g>
		<g>
			<g>
				<polygon class="st2" points="384.5,471.7 381.2,463.7 445.3,463.7 441.4,471.7 				"/>
			</g>
		</g>
		<g>
			<g>
				<g>
					<path class="st3" d="M441.6,432.7c0,0-0.1,0.1-0.2,0.4c-0.2,0.3-0.5,0.6-0.8,1.1c-0.8,1-1.8,2.3-3.1,4l-0.1,0.2l-0.1-0.2
						c-2-2.7-4.6-6.3-7.7-10.6h0.4c-2.3,3.2-4.8,6.8-7.5,10.7l-0.2,0.3l-0.3-0.3c-2.8-3.3-5.8-6.9-8.9-10.6l0.5,0
						c-0.2,0.2-0.3,0.4-0.5,0.6c-2.8,3.5-5.5,6.8-8,10l-0.3,0.3l-0.2-0.3c-2.7-3.8-5.3-7.4-7.5-10.7l0.4,0
						c-3.7,4.2-6.9,7.8-9.3,10.6l-0.2,0.2l-0.1-0.2c-1.2-2.1-2.2-3.7-2.9-4.9c-0.3-0.5-0.6-1-0.7-1.3c-0.2-0.3-0.2-0.5-0.2-0.5
						c0,0,0.1,0.1,0.3,0.4c0.2,0.3,0.5,0.7,0.8,1.3c0.7,1.2,1.8,2.8,3.1,4.8l-0.3,0c2.4-2.8,5.5-6.4,9.1-10.7l0.2-0.3l0.2,0.3
						c2.3,3.2,4.9,6.8,7.6,10.6l-0.5,0c2.5-3.2,5.2-6.6,8-10c0.2-0.2,0.3-0.4,0.5-0.6l0.3-0.3l0.3,0.3c3.1,3.7,6.1,7.3,8.9,10.7
						l-0.5,0c2.8-3.8,5.3-7.4,7.6-10.6l0.2-0.3l0.2,0.3c3,4.3,5.6,8,7.5,10.7l-0.3,0c1.4-1.6,2.5-2.9,3.2-3.9c0.4-0.4,0.6-0.7,0.9-1
						C441.5,432.8,441.6,432.7,441.6,432.7z"/>
				</g>
			</g>
		</g>
		<g>
			<g>
				<g>
					<path class="st3" d="M443.3,418.8c0,0.2-13.4,0.3-29.9,0.3c-16.5,0-29.9-0.1-29.9-0.3c0-0.2,13.4-0.3,29.9-0.3
						C429.9,418.5,443.3,418.6,443.3,418.8z"/>
				</g>
			</g>
		</g>
		<g>
			<g>
				<g>
					<path class="st3" d="M446.1,464.1c0,0.2-14.6,0.3-32.5,0.3c-18,0-32.5-0.1-32.5-0.3c0-0.2,14.6-0.3,32.5-0.3
						C431.5,463.8,446.1,463.9,446.1,464.1z"/>
				</g>
			</g>
		</g>
	</g>
	<g>
		<path class="st0" d="M277.2,72.2l6.1-1.8c0,0,1.5,5.1,6.9,3.7c2.8-0.7,3.7-3,3.9-4.5c0.2-1.8-0.5-3.6-1.9-4.8
			c-1.5-1.4-4.3-2.3-8.2-0.4l-4-13.8l6.1-1.7l2.3,8.1c0,0,9.1-0.2,11.8,9.1c2.6,9-4.9,13.4-8.3,14.3
			C289.3,81.1,280.2,83.1,277.2,72.2z"/>
		<rect x="278.3" y="40.9" transform="matrix(0.9612 -0.2759 0.2759 0.9612 -1.1966 79.3735)" class="st0" width="6.4" height="6"/>
	</g>
	<g>
		<path class="st0" d="M453.1,159.5l-5.6-3.1c0,0,2.6-4.7-2.2-7.5c-2.5-1.4-4.7-0.5-6,0.5c-1.4,1.1-2.2,2.9-2.1,4.7
			c0.1,2.1,1.4,4.7,5.5,6.1l-7,12.6l-5.5-3.1l4.1-7.4c0,0-6.6-6.3-1.9-14.8c4.5-8.2,12.9-6,16-4.3
			C450.8,144.6,458.7,149.7,453.1,159.5z"/>
		
			<rect x="426.9" y="173.5" transform="matrix(-0.8748 -0.4846 0.4846 -0.8748 720.7896 539.2405)" class="st0" width="6.4" height="6"/>
	</g>
	<g>
		<g>
			<g>
				<g>
					<polygon class="st0" points="54.6,418.9 62.4,470.3 107.9,470.3 118.4,419.6 					"/>
				</g>
			</g>
			<g>
				<g>
					<g>
						<g>
							<path class="st1" d="M112.1,451.8c0,0.1-11.6,0.3-26,0.3c-14.4,0-26-0.1-26-0.3c0-0.1,11.6-0.3,26-0.3
								C100.4,451.6,112.1,451.7,112.1,451.8z"/>
						</g>
					</g>
				</g>
				<g>
					<g>
						<g>
							<path class="st1" d="M112.2,449.3c0,0.1-11.7,0.3-26.2,0.3c-14.5,0-26.2-0.1-26.2-0.3c0-0.1,11.7-0.3,26.2-0.3
								C100.5,449,112.2,449.2,112.2,449.3z"/>
						</g>
					</g>
				</g>
				<g>
					<g>
						<g>
							<path class="st1" d="M112.1,446.5c0,0.1-11.7,0.3-26.2,0.3c-14.5,0-26.2-0.1-26.2-0.3c0-0.1,11.7-0.3,26.2-0.3
								C100.4,446.2,112.1,446.3,112.1,446.5z"/>
						</g>
					</g>
				</g>
				<g>
					<g>
						<g>
							<path class="st1" d="M67.6,467.4c-0.1,0-0.8-2.9-1.4-6.5c-0.6-3.6-1-6.5-0.9-6.6c0.1,0,0.8,2.9,1.4,6.5
								C67.4,464.4,67.8,467.3,67.6,467.4z"/>
						</g>
					</g>
				</g>
				<g>
					<g>
						<g>
							<path class="st1" d="M70.7,466.8c-0.2,0-0.3-2.8-0.6-6.3c-0.2-3.5-0.4-6.3-0.3-6.3c0.1,0,0.6,2.8,0.8,6.3
								C70.9,464,70.9,466.8,70.7,466.8z"/>
						</g>
					</g>
				</g>
				<g>
					<g>
						<g>
							<path class="st1" d="M76.4,466.8c-0.1,0-0.8-2.9-1.2-6.5c-0.4-3.6-0.5-6.6-0.3-6.6c0.2,0,0.5,2.9,0.9,6.5
								C76.1,463.9,76.5,466.8,76.4,466.8z"/>
						</g>
					</g>
				</g>
				<g>
					<g>
						<g>
							<path class="st1" d="M80.3,467.1c-0.1,0-0.5-2.9-0.6-6.6c-0.1-3.7,0.1-6.6,0.2-6.6c0.2,0,0.2,3,0.3,6.6
								C80.3,464.1,80.5,467.1,80.3,467.1z"/>
						</g>
					</g>
				</g>
				<g>
					<g>
						<g>
							<path class="st1" d="M87.3,466.8c-0.1,0-0.4-2.8-0.5-6.2c-0.1-3.5-0.1-6.3,0.1-6.3c0.1,0,0.4,2.8,0.5,6.2
								C87.5,464,87.5,466.8,87.3,466.8z"/>
						</g>
					</g>
				</g>
				<g>
					<g>
						<g>
							<path class="st1" d="M92.4,467.1c-0.1,0-0.2-2.9-0.2-6.5c0-3.6,0.2-6.5,0.3-6.5c0.1,0,0.2,2.9,0.2,6.5
								C92.7,464.2,92.6,467.1,92.4,467.1z"/>
						</g>
					</g>
				</g>
				<g>
					<g>
						<g>
							<path class="st1" d="M97.2,466.4c-0.1,0,0-3,0.4-6.8c0.4-3.7,0.8-6.7,0.9-6.7s0,3-0.4,6.8C97.8,463.4,97.4,466.4,97.2,466.4z
								"/>
						</g>
					</g>
				</g>
				<g>
					<g>
						<g>
							<path class="st1" d="M103.4,465.7c-0.1,0,0.1-2.6,0.8-5.7c0.7-3.1,1.6-5.6,1.7-5.5c0.1,0-0.5,2.5-1.2,5.7
								C104,463.2,103.6,465.8,103.4,465.7z"/>
						</g>
					</g>
				</g>
			</g>
			<g>
				<g>
					<path class="st0" d="M49.4,408.7v9.6c0,2.1,1.7,3.8,3.8,3.8H119c2.1,0,3.8-1.7,3.8-3.8v-9.6H49.4z"/>
				</g>
			</g>
			<g>
				<g>
					<polyline class="st2" points="116.4,429.5 117.9,422.1 55.1,422.1 55.6,425.2 					"/>
				</g>
			</g>
		</g>
		<g>
			<g>
				<g>
					<path class="st3" d="M59.3,408.8c0,0-25.6-29.5-22.7-30.6c2.8-1.1,25.6,15.3,25.6,15.3s-19.5-43.7-15.6-46.9
						c3.9-3.2,24.5,38.7,24.5,38.7s-3.2-61.1,0-61.8c3.2-0.7,14.9,61.1,14.9,61.1s17.4-56.5,22.4-56.5c5,0-5.3,54.4-5.3,54.4
						s20.6-34.8,23.8-30.2c3.2,4.6-14.6,42.3-14.6,42.3s25.9-21.7,27-18.8c1.1,2.8-28.1,33.1-28.1,33.1H59.3z"/>
				</g>
			</g>
			<g>
				<g>
					<g>
						<path class="st2" d="M55.7,364.3c0.2-0.1,4.7,9.7,10.1,21.7c5.4,12.1,9.7,21.9,9.5,22c-0.2,0.1-4.7-9.7-10.1-21.7
							C59.8,374.3,55.5,364.4,55.7,364.3z"/>
					</g>
				</g>
			</g>
			<g>
				<g>
					<g>
						<path class="st2" d="M76.4,369.8c0.2,0,0.9,8.6,1.7,19.2c0.7,10.6,1.2,19.2,1,19.2c-0.2,0-0.9-8.6-1.7-19.2
							C76.6,378.4,76.2,369.8,76.4,369.8z"/>
					</g>
				</g>
			</g>
			<g>
				<g>
					<g>
						<path class="st2" d="M104.9,342.4c0,0,0,0.2-0.2,0.7c-0.2,0.5-0.3,1.2-0.6,1.9c-0.5,1.8-1.3,4.2-2.1,7.1
							c-1.8,6-4.2,14.3-6.7,23.6c-2.5,9.3-4.5,17.7-5.9,23.8c-0.7,3-1.3,5.4-1.7,7.2c-0.2,0.8-0.4,1.4-0.5,2
							c-0.1,0.4-0.2,0.7-0.2,0.7c0,0,0-0.2,0.1-0.7c0.1-0.5,0.2-1.2,0.4-2c0.3-1.7,0.8-4.2,1.5-7.3c1.3-6.1,3.3-14.6,5.8-23.9
							c2.5-9.3,5-17.6,6.9-23.6c1-3,1.8-5.4,2.4-7.1c0.3-0.8,0.5-1.4,0.7-1.9C104.8,342.6,104.9,342.4,104.9,342.4z"/>
					</g>
				</g>
			</g>
			<g>
				<g>
					<g>
						<path class="st2" d="M117.2,373.9c0.2,0.1-4.8,7.6-11.2,16.6c-6.3,9.1-11.6,16.3-11.7,16.2c-0.2-0.1,4.8-7.6,11.2-16.6
							C111.8,381.1,117.1,373.8,117.2,373.9z"/>
					</g>
				</g>
			</g>
			<g>
				<g>
					<g>
						<path class="st2" d="M67.9,408.1c-0.1,0.1-0.9-0.5-2.2-1.6c-1.3-1.1-3.1-2.6-4.9-4.5c-1.8-1.9-3.3-3.6-4.4-5
							c-1-1.3-1.6-2.2-1.5-2.3c0.2-0.1,2.8,3.1,6.4,6.8C64.9,405.2,68,408,67.9,408.1z"/>
					</g>
				</g>
			</g>
			<g>
				<g>
					<g>
						<path class="st2" d="M83.5,396.4c0.2,0,0.6,2.7,0.9,6.1c0.3,3.4,0.4,6.1,0.2,6.1c-0.2,0-0.6-2.7-0.9-6.1
							C83.4,399.2,83.3,396.4,83.5,396.4z"/>
					</g>
				</g>
			</g>
		</g>
	</g>
</g>
<g id="Background_Simple" class="st4">
	<path class="st5" d="M439.7,192.1c0-32.5-11.1-64.2-30.8-89.4c-16.3-20.8-43-31.7-68.5-34.2c-29.1-2.8-66.9,9.9-86.1,32.6
		c-17.6,20.8-20.2,53.2-41.7,69.6c-12.6,9.6-29.1,11.6-44.7,11.4c-15.6-0.1-31.4-2-46.7,1.3c-34.9,7.4-61.2,43.3-60.8,79.8
		c0.1,13.7,2.7,27.2,7.9,40.1c12.8,32,40.2,56,73.3,65.6c56.3,16.4,119.9,30.1,173.7,13.6c36-11.1,65.5-29.4,95.6-72.2
		C432.8,279.1,439.6,230.7,439.7,192.1z"/>
</g>
<g id="Cake">
	<g>
		<g>
			<g>
				<path class="st6" d="M142,279.2c-0.7-1-1.7-1.9-1.9-3.1c-0.2-1,0.1-2,0.1-3.1c-0.1-2.3-2.4-4.2-4.7-3.9c1.4-1.3,1.1-3.8-0.3-5.1
					c-1.4-1.3-3.6-1.5-5.4-0.9c2-2.6,2.3-6.4,0.7-9.2s-5-4.6-8.2-4.2c0.8,2,0.3,4.4-1.2,5.9c-1.3,1.2-3,1.7-4.7,2.1
					c-1.7,0.4-3.5,0.7-4.9,1.7c-1.4,1-2.5,2.8-2,4.4c-2.9,0.8-5.8,1.7-7.9,3.9c-2,2.2-2.6,5.9-0.5,8c-2.3,0.8-4,2.9-4.3,5.3
					c-0.3,2.4,0.9,4.9,2.9,6.2l38.4,6c2-1.7,3.8-3.8,4.7-6.3C143.6,284.3,143.5,281.4,142,279.2z"/>
				<polygon class="st6" points="100.6,306 94.9,283.2 97.7,284.5 100.6,281.8 102.9,284.5 106.2,281.8 109.2,284.5 112.8,281.8 
					116,284.5 120.7,281.8 123.3,284.5 127.7,281.8 130,284.5 134.8,281.8 137.6,284.5 141.9,281.8 143.7,284.5 147.7,283 
					139.8,308.8 				"/>
				<polygon class="st7" points="100.6,306 94.9,283.2 97.7,284.5 100.6,281.8 102.9,284.5 106.2,281.8 109.2,284.5 112.8,281.8 
					116,284.5 120.7,281.8 123.3,284.5 127.7,281.8 130,284.5 134.8,281.8 137.6,284.5 141.9,281.8 143.7,284.5 147.7,283 
					139.8,308.8 				"/>
				<g>
					<path class="st8" d="M101.5,306.1c-0.1,0-1.1-4.8-2.2-10.8c-1-6-1.8-10.8-1.6-10.9c0.1,0,1.1,4.8,2.2,10.8
						C100.9,301.3,101.7,306.1,101.5,306.1z"/>
				</g>
				<g>
					<path class="st8" d="M104.8,306.3c-0.1,0-0.3-1.2-0.6-3.2c-0.3-2-0.6-4.7-0.9-7.8c-0.3-3-0.4-5.8-0.5-7.8c-0.1-2,0-3.2,0-3.2
						c0.1,0,0.2,1.2,0.3,3.2c0.2,2.1,0.4,4.8,0.6,7.8c0.3,3,0.5,5.6,0.7,7.8C104.8,305.1,104.9,306.3,104.8,306.3z"/>
				</g>
				<g>
					<path class="st8" d="M109.1,306.6c-0.1,0-0.1-1.2-0.1-3.2c0-2.1-0.1-4.8-0.1-7.7c0-3,0-5.8,0-7.8c0.1-2,0.2-3.2,0.2-3.2
						c0.1,0,0.1,1.2,0.1,3.2c0,2.1,0.1,4.8,0.1,7.7c0,3,0,5.8,0,7.8C109.3,305.4,109.2,306.6,109.1,306.6z"/>
				</g>
				<g>
					<path class="st8" d="M113.8,307.1c-0.1,0,0.2-5,0.7-11.1c0.5-6.1,1.1-11.1,1.2-11.1c0.1,0-0.2,5-0.7,11.1
						C114.5,302.2,113.9,307.2,113.8,307.1z"/>
				</g>
				<g>
					<path class="st8" d="M119.1,307.1c-0.1,0,0.6-5.1,1.6-11.3c1-6.2,2-11.3,2.1-11.2c0.1,0-0.6,5.1-1.6,11.3
						C120.2,302.1,119.2,307.2,119.1,307.1z"/>
				</g>
				<g>
					<path class="st8" d="M123.6,307.5c-0.1,0,1.2-5.3,3.1-11.7c1.8-6.4,3.5-11.6,3.6-11.5c0.1,0-1.2,5.3-3.1,11.7
						C125.3,302.4,123.7,307.5,123.6,307.5z"/>
				</g>
				<g>
					<path class="st8" d="M128.9,308c-0.1-0.1,1.7-5.3,4.1-11.8c2.4-6.5,4.5-11.7,4.6-11.6c0.1,0.1-1.7,5.3-4.1,11.8
						C131.1,302.8,129,308,128.9,308z"/>
				</g>
				<g>
					<path class="st8" d="M134.2,308c-0.1-0.1,1.9-5.3,4.5-11.6c2.6-6.4,4.9-11.5,5-11.4s-1.9,5.3-4.5,11.6
						C136.6,302.9,134.4,308.1,134.2,308z"/>
				</g>
			</g>
			<g class="st9">
				<path class="st10" d="M135.5,269.1c1.4-1.3,1.1-3.8-0.3-5.1c-1.4-1.3-3.6-1.5-5.4-0.9c2-2.6,2.3-6.4,0.7-9.2s-5-4.6-8.2-4.2
					c0.8,2,0.3,4.4-1.2,5.9c-1.3,1.2-3,1.7-4.7,2.1c-1.7,0.4-3.5,0.7-4.9,1.7c-1.4,1-2.5,2.8-2,4.4c-1.5,0.4-3.1,0.9-4.6,1.6
					c0,0,0.6,3.2,4.2,3.9c3.6,0.7,6.2-1.7,6.2-1.7s-2.7,6.3,3.8,7.9c6.5,1.6,9.8-3.1,9.8-3.1S134.4,273.7,135.5,269.1z"/>
			</g>
			<path class="st6" d="M115.6,262.3l-0.4,0c-0.7,0.1-1.1,1.1-0.7,1.7c0.4,0.6,1.4,0.5,1.8-0.1C116.7,263.3,116.3,262.4,115.6,262.3
				z"/>
			<path class="st6" d="M126.6,266.2l-0.4,0c-0.7,0.1-1.1,1.1-0.7,1.7c0.4,0.6,1.4,0.5,1.8-0.1C127.7,267.2,127.3,266.3,126.6,266.2
				z"/>
			<path class="st6" d="M123,260.4l-0.4,0c-0.7,0.1-1.1,1.1-0.7,1.7c0.4,0.6,1.4,0.5,1.8-0.1C124.1,261.4,123.7,260.5,123,260.4z"/>
			<path class="st11" d="M120.3,267.9l-0.4,0c-0.7,0.1-1.1,1.1-0.7,1.7c0.4,0.6,1.4,0.5,1.8-0.1C121.4,269,121,268,120.3,267.9z"/>
			<path class="st11" d="M128.6,256.4l-0.4,0c-0.7,0.1-1.1,1.1-0.7,1.7c0.4,0.6,1.4,0.5,1.8-0.1
				C129.8,257.5,129.3,256.5,128.6,256.4z"/>
			<path class="st11" d="M132.7,266.9l-0.4,0c-0.7,0.1-1.1,1.1-0.7,1.7c0.4,0.6,1.4,0.5,1.8-0.1C133.8,267.9,133.4,267,132.7,266.9z
				"/>
			<g>
				<path class="st10" d="M108.2,265.7c0,0.1-0.8,0.1-1.9,0.4c-1.1,0.3-2.7,1.1-3.8,2.5c-1.1,1.4-1.5,3.1-1.5,4.3
					c0,1.2,0.2,1.9,0.1,1.9c0,0-0.4-0.7-0.5-1.9c-0.1-1.2,0.2-3.1,1.4-4.6c1.2-1.5,2.9-2.3,4.1-2.5
					C107.4,265.5,108.2,265.6,108.2,265.7z"/>
			</g>
			<g>
				<path class="st10" d="M123.8,252c0,0,0.2,0.2,0.4,0.7c0.2,0.5,0.4,1.3,0.3,2.2c-0.1,0.9-0.5,2.1-1.5,3c-0.9,0.9-2.3,1.4-3.8,1.6
					c-1.4,0.2-2.8,0.2-4,0.4c-1.2,0.2-2.2,0.6-2.9,1.1c-0.7,0.5-1.1,1.2-1.3,1.7c-0.2,0.5-0.2,0.8-0.2,0.8c0,0-0.1-0.3,0-0.8
					c0.1-0.5,0.5-1.2,1.2-1.9c0.7-0.6,1.8-1.1,3.1-1.3c1.2-0.2,2.6-0.2,4-0.4c1.4-0.2,2.7-0.6,3.5-1.4c0.9-0.8,1.3-1.8,1.4-2.7
					C124.4,253,123.7,252,123.8,252z"/>
			</g>
			<g>
				<path class="st10" d="M121.8,273.2c0,0-0.5,0.4-1.4,0.4c-0.9,0-2.2-0.3-3.1-1.4c-0.9-1.1-0.9-2.5-0.7-3.3
					c0.2-0.9,0.7-1.3,0.7-1.2c0.1,0-0.2,0.5-0.3,1.3c-0.1,0.8,0,2,0.7,2.9c0.8,0.9,1.9,1.3,2.7,1.4
					C121.3,273.3,121.8,273.1,121.8,273.2z"/>
			</g>
			<g>
				<path class="st10" d="M131,271.2c0,0.1-0.9,0.4-2,0.1c-1.1-0.3-1.7-1-1.6-1.1c0.1-0.1,0.8,0.3,1.8,0.6
					C130.2,271.1,131,271.1,131,271.2z"/>
			</g>
			<g>
				<path class="st10" d="M102.1,277.5c0,0.2-1.3,0.4-2.4,1.4c-1.2,1-1.6,2.2-1.8,2.2c-0.1,0,0.1-1.5,1.4-2.6
					C100.6,277.4,102.1,277.4,102.1,277.5z"/>
			</g>
			<g>
				<path class="st10" d="M108.9,275.1c0.1,0.1-0.2,0.6-0.5,1.2c-0.3,0.6-0.3,1.2-0.5,1.2c-0.1,0-0.3-0.6,0-1.4
					C108.2,275.3,108.8,275,108.9,275.1z"/>
			</g>
		</g>
		<g>
			<g>
				<path class="st8" d="M92.4,228.1c0.1-0.1,2.6,3.7,5.5,8.3c2.9,4.7,5.2,8.5,5.1,8.6c-0.1,0.1-2.6-3.7-5.5-8.3
					C94.5,232.1,92.3,228.2,92.4,228.1z"/>
			</g>
			<g>
				<path class="st8" d="M86.9,215.4c0-0.1,0.8,0,1.1,0.8c0.3,0.8-0.1,1.4-0.2,1.3c-0.1-0.1,0-0.6-0.2-1.1
					C87.2,215.8,86.8,215.5,86.9,215.4z"/>
			</g>
			<g>
				<path class="st8" d="M108.7,203.9c0.1,0,1.4,8.6,2.8,19.1c1.4,10.6,2.4,19.2,2.3,19.2c-0.1,0-1.4-8.6-2.8-19.1
					C109.6,212.5,108.5,203.9,108.7,203.9z"/>
			</g>
			<g>
				<path class="st8" d="M140.4,221.5c0.1,0.1-1.9,5.2-4.6,11.5c-2.7,6.3-4.9,11.4-5.1,11.3c-0.1-0.1,1.9-5.2,4.6-11.5
					C138,226.6,140.2,221.5,140.4,221.5z"/>
			</g>
			<g>
				<path class="st8" d="M144.6,212.4c0.1,0.1,0,0.6-0.2,1.2c-0.2,0.6-0.6,1-0.7,1c-0.1-0.1,0-0.6,0.2-1.2
					C144.2,212.8,144.5,212.4,144.6,212.4z"/>
			</g>
			<g>
				<path class="st8" d="M167.1,234.5c0.1,0.1-5.7,4.2-12.9,9.1c-7.2,4.9-13.1,8.8-13.2,8.7c-0.1-0.1,5.7-4.2,12.9-9.1
					C161.1,238.3,167,234.4,167.1,234.5z"/>
			</g>
			<g>
				<path class="st8" d="M156.3,257.7c0,0.1-2.5,0.3-5.6,0.4c-3.1,0.1-5.6,0.1-5.6-0.1c0-0.1,2.5-0.3,5.6-0.4
					C153.8,257.5,156.3,257.6,156.3,257.7z"/>
			</g>
			<g>
				<path class="st8" d="M96.4,254.3c-0.1,0.1-6-3.6-13.2-8.4c-7.2-4.8-13-8.7-13-8.8c0.1-0.1,6,3.6,13.3,8.4
					C90.6,250.2,96.4,254.2,96.4,254.3z"/>
			</g>
			<g>
				<path class="st8" d="M89.9,261.6c0,0.1-2.4,0-5.4-0.4c-3-0.3-5.4-0.7-5.4-0.9c0-0.1,2.4,0,5.4,0.4
					C87.5,261.1,89.9,261.5,89.9,261.6z"/>
			</g>
		</g>
	</g>
</g>
<g id="Apple">
	<g>
		<g>
			<g>
				<path class="st12" d="M381.8,263.4c0.6-4.1-0.4-8.4-2.9-11.7c-2.4-3.3-6.2-5.6-10.3-6.2c-0.4-0.1-0.8-0.1-1.1,0.1
					c-0.4,0.3-0.5,1-0.4,1.5c0.4,3.9,2,7.7,4.6,10.7c2.6,3,6.2,5.1,10.1,5.9"/>
			</g>
			<g>
				<g>
					<path class="st6" d="M359.9,292.2c3.9,8.1,9.6,13.6,16.6,13.9c1.4,0,2.5-0.9,3.8-1c0.7,0,1.5,0.5,2.2,0.8
						c0.4,0.2,0.8,0.3,1.2,0.3c7.3-0.4,13.4-5.5,17.6-14c5.8-11.9,4-24.8-4-28.7c-1.1-0.6-2.2-1-3.3-1.3c-1.3-0.3-2.6-0.5-4-0.5
						c-2.5,0-5.3,0.7-9.1,2.1c-0.1,0-0.3,0.1-0.4,0.1c-6.5-2.9-11.7-2.9-16.7-0.5C355.9,267.5,354.1,280.3,359.9,292.2z"/>
				</g>
			</g>
			<g>
				<g>
					<path class="st1" d="M360,280.2c0,0-0.5-0.9-0.7-2.4c-0.2-1.5-0.1-3.7,0.7-6c0.8-2.2,2.2-4,3.3-5c1.2-1,2-1.4,2.1-1.4
						c0.1,0.1-0.7,0.6-1.8,1.7c-1.1,1.1-2.3,2.8-3.1,4.9c-0.8,2.2-1,4.3-0.8,5.7C359.8,279.2,360.1,280.1,360,280.2z"/>
				</g>
			</g>
			<g>
				<g>
					<path class="st1" d="M361.5,285.8c-0.1,0-0.4-0.5-0.6-1.3c-0.2-0.7-0.2-1.3,0-1.4c0.1,0,0.4,0.5,0.6,1.3
						C361.6,285.2,361.6,285.8,361.5,285.8z"/>
				</g>
			</g>
			<g>
				<g>
					<path class="st8" d="M398.3,243.9c0,0.1-1.5,0.7-3.8,2c-1.1,0.7-2.4,1.6-3.7,2.7c-1.3,1.1-2.7,2.5-4,4
						c-1.3,1.6-2.3,3.2-3.1,4.7c-0.8,1.5-1.4,3-1.9,4.2c-0.9,2.5-1.1,4.1-1.2,4.1c0,0,0-0.4,0.1-1.1c0.1-0.4,0.1-0.8,0.3-1.3
						c0.1-0.5,0.3-1.1,0.5-1.7c0.4-1.3,1-2.7,1.8-4.3c0.8-1.6,1.9-3.2,3.2-4.8c1.3-1.6,2.7-2.9,4.1-4c1.4-1.1,2.7-2,3.9-2.6
						c0.6-0.3,1.1-0.6,1.6-0.8c0.5-0.2,0.9-0.4,1.2-0.5C397.9,244,398.3,243.8,398.3,243.9z"/>
				</g>
			</g>
		</g>
		<g>
			<g>
				<path class="st8" d="M353.5,215.1c0.1-0.1,2.6,3.7,5.5,8.3c2.9,4.7,5.2,8.5,5.1,8.6c-0.1,0.1-2.6-3.7-5.5-8.3
					C355.6,219,353.4,215.2,353.5,215.1z"/>
			</g>
			<g>
				<path class="st8" d="M348,202.4c0-0.1,0.8,0,1.1,0.8c0.3,0.8-0.1,1.4-0.2,1.3c-0.1-0.1,0-0.6-0.2-1.1
					C348.3,202.8,347.9,202.5,348,202.4z"/>
			</g>
			<g>
				<path class="st8" d="M369.8,190.8c0.1,0,1.4,8.6,2.8,19.1c1.4,10.6,2.4,19.2,2.3,19.2c-0.1,0-1.4-8.6-2.8-19.1
					C370.7,199.5,369.6,190.9,369.8,190.8z"/>
			</g>
			<g>
				<path class="st8" d="M401.5,208.5c0.1,0.1-1.9,5.2-4.6,11.5c-2.7,6.3-4.9,11.4-5.1,11.3c-0.1-0.1,1.9-5.2,4.6-11.5
					C399.1,213.5,401.3,208.5,401.5,208.5z"/>
			</g>
			<g>
				<path class="st8" d="M405.7,199.4c0.1,0.1,0,0.6-0.2,1.2c-0.2,0.6-0.6,1-0.7,1c-0.1-0.1,0-0.6,0.2-1.2
					C405.2,199.8,405.6,199.4,405.7,199.4z"/>
			</g>
			<g>
				<path class="st8" d="M428.2,221.5c0.1,0.1-5.7,4.2-12.9,9.1c-7.2,4.9-13.1,8.8-13.2,8.7c-0.1-0.1,5.7-4.2,12.9-9.1
					C422.2,225.3,428.1,221.4,428.2,221.5z"/>
			</g>
			<g>
				<path class="st8" d="M417.4,244.7c0,0.1-2.5,0.3-5.6,0.4c-3.1,0.1-5.6,0.1-5.6-0.1c0-0.1,2.5-0.3,5.6-0.4
					C414.9,244.5,417.4,244.5,417.4,244.7z"/>
			</g>
			<g>
				<path class="st8" d="M357.4,241.3c-0.1,0.1-6-3.6-13.2-8.4c-7.2-4.8-13-8.7-13-8.8c0.1-0.1,6,3.6,13.3,8.4
					C351.7,237.2,357.5,241.1,357.4,241.3z"/>
			</g>
			<g>
				<path class="st8" d="M350.9,248.6c0,0.1-2.4,0-5.4-0.4c-3-0.3-5.4-0.7-5.4-0.9c0-0.1,2.4,0,5.4,0.4
					C348.6,248.1,351,248.4,350.9,248.6z"/>
			</g>
		</g>
	</g>
</g>
<g id="Desk">
	<g>
		<path class="st8" d="M460.3,470.3c0,0.1-95.5,0.3-213.3,0.3c-117.8,0-213.4-0.1-213.4-0.3c0-0.1,95.5-0.3,213.4-0.3
			C364.8,470,460.3,470.1,460.3,470.3z"/>
	</g>
</g>
<g id="Character">
	<g>
		<g>
			<path class="st8" d="M305.8,237.9c-1.6-29.5-3.1-59-4.7-88.5c-0.4-7.2-0.8-14.5-3-21.3c-2.2-6.9-6.5-13.3-12.9-16.7
				c-6.4-3.3-15-2.7-20,2.5l3.5,4.8c-2.9,54.2-4.1,108.4-3.6,162.7c0,4.1,0.2,8.4,2.5,11.7c4,5.5,12.1,5.5,18.9,4.8
				c5.8-0.5,12.4-1.5,15.7-6.4c1.3-2,1.9-4.4,2.4-6.8C307.5,269.4,306.6,253.6,305.8,237.9z"/>
			<path class="st6" d="M257.1,119.1c1.8-4.1,7.2-5.7,11.4-4.3c4.2,1.4,7.4,5.1,9.2,9.1c0.8,1.7,1.4,3.5,1.3,5.3
				c0,1.8-0.8,3.7-2.3,4.8c-1.6,1.1-3.8,1.1-5.5,0.3c-1.8-0.8-3.1-2.3-4.2-3.9"/>
			<path class="st8" d="M294.5,171c-1.7-19.1-11.8-37.7-28-48c-16.2-10.3-38.3-11.3-54.5-1.1c-10.3,6.5-17.7,17-21.9,28.5
				c-4.3,11.4-2.4,20.9-2.3,33.1c0.1,6.3,0.9,23.3,6.3,26.5l85.1,15.3C290.1,209.4,296.3,190.1,294.5,171z"/>
			<g>
				<g>
					<g>
						<g>
							<g>
								<g>
									<g>
										<g>
											<g>
												<g>
													<g>
														<g>
															<g>
																<g>
																	<g>
																		<path class="st13" d="M237.5,126c-24.5,0.3-44.1,20.2-45.3,44.2c-1,21-1.6,42.2-0.7,49.8
																			c2.7,22.9,23,32.8,29.3,33.3c0.7,0.1,0.4,0.1,0.1,0c0,0,0.1,0.1,0.1,0.1l-2.4,26.8c-0.6,17.5,16.2,117,34,117.7
																			c17.8,0.7,24.8-99.2,25.7-116.7l5.3-109.6C284.1,146.6,263.4,125.8,237.5,126z"/>
																		<path class="st13" d="M220.9,253.4C220.9,253.4,220.8,253.4,220.9,253.4C220.1,253.3,220.5,253.4,220.9,253.4z"/>
																	</g>
																	<g>
																		<g>
																			<g>
																				<g>
																					<g>
																						<g>
																							<g>
																								<g>
																									<g>
																										<g>
																											<path class="st8" d="M198.9,186.6c-0.2,1.9,1.4,3.6,3.4,3.8c2,0.2,3.8-1.2,4-3.1
																												c0.2-1.9-1.4-3.6-3.4-3.8C200.9,183.3,199.1,184.7,198.9,186.6z"/>
																										</g>
																									</g>
																								</g>
																							</g>
																						</g>
																					</g>
																				</g>
																			</g>
																		</g>
																		<g>
																			<g>
																				<g>
																					<g>
																						<g>
																							<g>
																								<g>
																									<g>
																										<g>
																											<g>
																												<path class="st8" d="M198.1,176.5c0.2,0.6,3.6,0.1,7.2,1.9c3.6,1.7,5.4,4.7,6,4.5
																													c0.3-0.1,0.2-1-0.6-2.4c-0.8-1.3-2.3-3-4.6-4.1c-2.3-1.1-4.5-1.2-6-1
																													C198.7,175.7,198,176.2,198.1,176.5z"/>
																											</g>
																										</g>
																									</g>
																								</g>
																							</g>
																						</g>
																					</g>
																				</g>
																			</g>
																		</g>
																	</g>
																	<g>
																		<g>
																			<g>
																				<g>
																					<g>
																						<g>
																							<g>
																								<g>
																									<g>
																										<g>
																											<path class="st8" d="M237.4,187.9c-0.2,1.9,1.4,3.6,3.4,3.8c2,0.2,3.8-1.2,4-3.1
																												c0.2-1.9-1.4-3.6-3.4-3.8C239.3,184.6,237.5,186,237.4,187.9z"/>
																										</g>
																									</g>
																								</g>
																							</g>
																						</g>
																					</g>
																				</g>
																			</g>
																		</g>
																		<g>
																			<g>
																				<g>
																					<g>
																						<g>
																							<g>
																								<g>
																									<g>
																										<g>
																											<g>
																												<path class="st8" d="M237.5,182.6c0.6,0.3,3-2.4,7.1-3.7c4.1-1.3,7.7-0.4,8-1c0.2-0.3-0.6-0.9-2.1-1.3
																													c-1.6-0.4-4-0.5-6.6,0.2c-2.6,0.8-4.5,2.3-5.5,3.4C237.4,181.6,237.2,182.5,237.5,182.6z"/>
																											</g>
																										</g>
																									</g>
																								</g>
																							</g>
																						</g>
																					</g>
																				</g>
																			</g>
																		</g>
																	</g>
																	<g>
																		<g>
																			<g>
																				<g>
																					<g>
																						<g>
																							<g>
																								<g>
																									<g>
																										<g>
																											<path class="st8" d="M221.7,206.8c0-0.2-2.4-0.7-6.5-1.4c-1-0.1-2-0.4-2.1-1.1c-0.2-0.7,0.3-1.8,0.8-3
																												c1.1-2.4,2.2-4.9,3.4-7.5c4.7-10.7,8.1-19.6,7.7-19.8c-0.4-0.2-4.6,8.4-9.3,19.1
																												c-1.1,2.6-2.2,5.2-3.2,7.6c-0.4,1.1-1.2,2.4-0.7,3.9c0.2,0.8,1,1.3,1.6,1.5c0.6,0.2,1.2,0.3,1.7,0.3
																												C219.2,206.9,221.7,207,221.7,206.8z"/>
																										</g>
																									</g>
																								</g>
																							</g>
																						</g>
																					</g>
																				</g>
																			</g>
																		</g>
																	</g>
																	<g>
																		<g>
																			<g>
																				<g>
																					<g>
																						<g>
																							<g>
																								<g>
																									<g>
																										<path class="st14" d="M221,253.4c0,0,15.4,1.8,35.3-8.8c0,0-7,19.9-35.9,16.1L221,253.4z"/>
																									</g>
																								</g>
																							</g>
																						</g>
																					</g>
																				</g>
																			</g>
																		</g>
																	</g>
																</g>
															</g>
														</g>
														<g>
															<g>
																<g>
																	<g>
																		<g>
																			<g>
																				<g>
																					<g>
																						<g>
																							<path class="st8" d="M237.1,162.5c0.5,1,4.4,0.2,9.2,0.4c4.7,0.1,8.6,1.1,9.2,0.1c0.2-0.5-0.5-1.4-2.1-2.3
																								c-1.6-0.9-4.1-1.7-6.9-1.8c-2.8-0.1-5.4,0.6-7,1.4C237.7,161.1,236.9,162,237.1,162.5z"/>
																						</g>
																					</g>
																				</g>
																			</g>
																		</g>
																	</g>
																</g>
															</g>
														</g>
														<g>
															<g>
																<g>
																	<g>
																		<g>
																			<g>
																				<g>
																					<g>
																						<g>
																							<path class="st8" d="M198,170.4c0.7,0.9,3.5,0.1,6.8,0.2c3.3,0,6.1,0.8,6.8-0.1c0.3-0.4-0.1-1.4-1.3-2.2
																								c-1.2-0.9-3.2-1.7-5.4-1.7c-2.3,0-4.3,0.7-5.5,1.6C198.1,169,197.7,169.9,198,170.4z"/>
																						</g>
																					</g>
																				</g>
																			</g>
																		</g>
																	</g>
																</g>
															</g>
														</g>
													</g>
												</g>
											</g>
										</g>
									</g>
								</g>
							</g>
						</g>
					</g>
				</g>
			</g>
			<g>
				<path class="st14" d="M262.4,181.9c0.1,0.1-0.4,1.1-1.7,1.9c-1.2,0.7-2.5,0.7-2.5,0.6c0-0.2,1.1-0.3,2.2-1
					C261.6,182.7,262.3,181.8,262.4,181.9z"/>
			</g>
			<g>
				<path class="st14" d="M263.1,186.4c-0.1,0.1-1-0.2-2.3-0.3c-1.2-0.1-2.2,0.1-2.3,0c-0.1-0.1,1-0.6,2.3-0.5
					C262.2,185.7,263.1,186.3,263.1,186.4z"/>
			</g>
			<g>
				<path class="st14" d="M196.5,184.9c0,0.1-0.8,0.1-1.7,0c-0.9-0.2-1.7-0.4-1.6-0.6c0-0.1,0.8-0.1,1.7,0
					C195.8,184.5,196.5,184.7,196.5,184.9z"/>
			</g>
			<g>
				<path class="st14" d="M195.7,185.1c0.1,0.1-0.3,0.6-0.9,1c-0.6,0.4-1.2,0.7-1.2,0.6c-0.1-0.1,0.3-0.6,0.9-1
					C195,185.2,195.6,184.9,195.7,185.1z"/>
			</g>
			<g>
				<path class="st14" d="M243.6,217c-0.1,0,0.3-1.6-0.5-3.4c-0.7-1.8-2.2-2.5-2.1-2.6c0-0.1,0.4,0,1,0.4c0.6,0.4,1.2,1.1,1.6,2
					c0.4,0.9,0.5,1.9,0.4,2.6C243.8,216.6,243.6,217,243.6,217z"/>
			</g>
			<path class="st8" d="M209.5,127.9c-10.2,6.9-17.3,18.3-18.9,30.6l1.7,10.3c0.6-4.7,0.9-10,5.8-15.1c3.3-3.4,9.4-6.6,15.8-8.3
				c18.5-4.7,24.7-11.4,32.9-23.5C234.8,118.8,219.7,121,209.5,127.9z"/>
			<path class="st8" d="M289.3,155c-5.2-18.5-22-33.2-41-35.9l-1.5,2.7c-4.7,5.5-9.4,10.9-14,16.4c-1.2,1.4-2.4,2.8-2.6,4.6
				c-0.4,2.4,1.1,4.7,3,6.2c4.5,3.6,10.7,3.9,16.4,4c5.8,0.2,12,0.6,16.2,4.6c5.2,4.9,5.1,13.2,3.3,20.2c-1.8,6.9-2.4,18.1-1.7,25.3
				c0.6,6.4,9.1-9.1,14.6-5.9c1.5,0.9-2.6,26-1,25.2c1.6-0.8,1.4-9.8,2-11.5c2.8-9.1,5.7-18.2,7.2-27.6
				C291.8,174,291.9,164.2,289.3,155z"/>
			<g>
				<g>
					<g>
						<g>
							<g>
								<g>
									<g>
										<g>
											<g>
												<g>
													<g>
														<g>
															<g>
																<path class="st13" d="M273.6,203.2c0.4-6,7.1-9.9,12.3-6.8c2.8,1.7,5,5.1,4.6,11.5c-1.1,17.1-18,12.5-18,12
																	C272.4,219.7,273.1,210.3,273.6,203.2z"/>
															</g>
														</g>
													</g>
												</g>
											</g>
										</g>
									</g>
								</g>
							</g>
						</g>
					</g>
				</g>
				<g>
					<g>
						<g>
							<g>
								<g>
									<g>
										<g>
											<g>
												<g>
													<g>
														<g>
															<g>
																<g>
																	<path class="st14" d="M278,213.8c0.1,0,0.3,0.2,0.8,0.5c0.5,0.3,1.3,0.5,2.2,0.2c1.8-0.5,3.6-3.3,3.8-6.4
																		c0.1-1.6-0.1-3.1-0.5-4.3c-0.4-1.3-1.2-2.2-2.1-2.4c-0.9-0.3-1.6,0.2-1.8,0.7c-0.3,0.5-0.2,0.8-0.3,0.8
																		c-0.1,0-0.3-0.3-0.2-1c0.1-0.3,0.3-0.7,0.7-1c0.4-0.3,1-0.4,1.7-0.3c1.3,0.2,2.4,1.5,2.9,2.9
																		c0.6,1.4,0.9,3.1,0.7,4.8c-0.3,3.4-2.3,6.5-4.8,7.1c-1.2,0.2-2.2-0.2-2.7-0.6C278,214.2,278,213.8,278,213.8z"/>
																</g>
															</g>
														</g>
													</g>
												</g>
											</g>
										</g>
									</g>
								</g>
							</g>
						</g>
					</g>
				</g>
			</g>
			<g>
				<path class="st11" d="M277.9,132.6c0,0,2.8,3,6.1,8.6c1.7,2.8,3.4,6.3,5,10.3c1.6,4,2.9,8.6,3.8,13.5c1.9,9.8,1.1,19-0.3,25.4
					c-0.1,0.8-0.3,1.6-0.5,2.3c-0.2,0.7-0.4,1.4-0.5,2c-0.3,1.3-0.7,2.3-1,3.2c-0.3,0.8-0.6,1.5-0.7,2c-0.2,0.4-0.3,0.7-0.3,0.7
					c0,0,0.1-0.3,0.2-0.7c0.2-0.5,0.4-1.2,0.6-2c0.3-0.9,0.7-1.9,1-3.2c0.2-0.6,0.3-1.3,0.5-2c0.2-0.7,0.4-1.5,0.5-2.3
					c1.3-6.3,2-15.4,0.1-25.2c-0.9-4.9-2.2-9.4-3.7-13.4c-1.6-4-3.2-7.5-4.9-10.3c-0.4-0.7-0.8-1.4-1.2-2c-0.4-0.6-0.8-1.2-1.1-1.7
					c-0.3-0.5-0.7-1-1-1.5c-0.3-0.5-0.6-0.9-0.9-1.2c-0.5-0.7-0.9-1.3-1.2-1.7C278,132.8,277.9,132.6,277.9,132.6z"/>
			</g>
			<g>
				<path class="st11" d="M279.6,137.8c0,0,0,0.2-0.1,0.5c-0.1,0.3-0.3,0.8-0.7,1.4c-0.8,1.1-2.4,2.3-4.7,3c-2.3,0.7-5,1.4-8,2.1
					c-3,0.6-6.4,1.2-10,1.5c-3.6,0.3-7.1,0.1-10.2-0.3c-3.1-0.4-5.8-1.2-8.1-2c-2.2-0.8-3.9-1.7-5.1-2.4c-0.6-0.3-1-0.6-1.3-0.8
					c-0.3-0.2-0.4-0.3-0.4-0.3c0,0,0.6,0.4,1.8,1c1.2,0.6,2.9,1.5,5.1,2.2c2.2,0.8,4.9,1.5,8,1.9c3.1,0.4,6.5,0.5,10.1,0.3
					c7.1-0.5,13.5-2.1,18-3.4c2.2-0.7,3.9-1.8,4.6-2.8C279.4,138.6,279.5,137.8,279.6,137.8z"/>
			</g>
			<g>
				<path class="st11" d="M276.5,131.9c0,0-0.1,0.1-0.3,0.3c-0.2,0.2-0.5,0.5-0.9,0.9c-0.8,0.8-2.1,1.8-3.8,2.8
					c-3.4,2-8.8,3.7-14.9,3.8c-6.1,0-11.5-1.2-15.3-2.1c-1.9-0.5-3.5-0.9-4.5-1.2c-1.1-0.3-1.6-0.5-1.6-0.5c0,0,0.6,0.1,1.7,0.3
					c1.2,0.3,2.7,0.6,4.6,1.1c3.8,0.8,9.2,2,15.2,2c6,0,11.3-1.6,14.7-3.6C274.8,133.7,276.4,131.8,276.5,131.9z"/>
			</g>
			<g>
				<path class="st11" d="M273,130c0,0-0.4,0.2-1.2,0.4c-0.8,0.2-1.9,0.5-3.4,0.8c-2.9,0.6-6.9,1.2-11.4,1.1
					c-4.5,0-8.6-0.6-11.4-1.3c-1.4-0.3-2.6-0.6-3.4-0.9c-0.8-0.2-1.2-0.4-1.2-0.4c0,0,0.5,0.1,1.3,0.2c0.8,0.2,2,0.4,3.4,0.7
					c2.9,0.5,6.9,1.1,11.4,1.1c4.5,0,8.5-0.5,11.4-1c1.4-0.3,2.6-0.5,3.4-0.7C272.5,130.1,273,130,273,130z"/>
			</g>
			<g>
				<path class="st11" d="M250.2,115.5c0,0-0.1,0.4-0.4,1.2c-0.3,0.8-0.8,1.9-1.4,3.2c-1.3,2.6-3.5,6.2-6.4,9.6
					c-3,3.4-6.1,6.1-8.6,7.8c-1.2,0.8-2.2,1.5-3,1.9c-0.7,0.4-1.1,0.6-1.1,0.6c0,0,0.4-0.3,1-0.8c0.7-0.4,1.7-1.1,2.8-2
					c2.4-1.8,5.4-4.4,8.4-7.8c2.9-3.4,5.1-6.8,6.5-9.4c0.7-1.3,1.2-2.4,1.6-3.1C249.9,115.9,250.2,115.5,250.2,115.5z"/>
			</g>
			<g>
				<path class="st11" d="M189.5,152.2c0,0,0.1-0.2,0.3-0.4c0.2-0.3,0.5-0.7,0.9-1.2c0.8-1,2.1-2.5,3.7-4.2c1.7-1.7,3.8-3.6,6.3-5.4
					c1.3-0.9,2.7-1.7,4.2-2.5c1.5-0.8,3.2-1.4,4.9-2c6.9-2.2,13.6-2.5,18.3-2c2.4,0.2,4.2,0.6,5.5,0.9c0.6,0.1,1.1,0.3,1.5,0.4
					c0.3,0.1,0.5,0.2,0.5,0.2c0,0-0.7-0.1-2-0.4c-1.3-0.2-3.2-0.5-5.5-0.7c-4.7-0.4-11.3-0.1-18.1,2.1c-6.8,2.2-12,6.4-15.4,9.6
					c-1.7,1.6-3,3-3.8,4c-0.4,0.5-0.7,0.8-1,1.1C189.6,152,189.5,152.2,189.5,152.2z"/>
			</g>
			<g>
				<path class="st11" d="M202.3,133.8c0,0,0.4-0.3,1.3-0.9c0.4-0.3,1-0.6,1.6-0.9c0.6-0.3,1.4-0.7,2.2-1.1c0.8-0.4,1.7-0.8,2.7-1.1
					c1-0.4,2.1-0.7,3.2-1.1c2.3-0.6,4.9-1.2,7.6-1.4c2.7-0.3,5.4-0.2,7.8-0.1c1.2,0.1,2.3,0.2,3.4,0.4c1.1,0.1,2,0.4,2.9,0.6
					c0.9,0.2,1.7,0.4,2.4,0.6c0.7,0.2,1.3,0.4,1.7,0.6c0.9,0.4,1.5,0.6,1.4,0.6c0,0-0.6-0.1-1.5-0.4c-0.5-0.2-1.1-0.3-1.8-0.5
					c-0.7-0.2-1.5-0.4-2.4-0.6c-0.9-0.2-1.8-0.4-2.9-0.5c-1-0.2-2.2-0.3-3.3-0.4c-2.4-0.1-5-0.1-7.7,0.1c-2.7,0.3-5.3,0.8-7.6,1.4
					c-1.1,0.3-2.2,0.6-3.2,1c-1,0.3-1.9,0.7-2.7,1.1c-0.8,0.3-1.6,0.7-2.2,1c-0.6,0.3-1.2,0.6-1.6,0.8
					C202.8,133.6,202.3,133.8,202.3,133.8z"/>
			</g>
			<g>
				<path class="st6" d="M287.1,218.1c0.3-0.2,0.8,0,1.4,0.6c0.6,0.6,1.2,1.7,1.5,3.2c0.1,0.8,0.2,1.7,0,2.7c-0.1,1-0.6,2.1-1.3,3.1
					c-0.7,1-1.7,1.8-2.9,2.4c-1.2,0.6-2.9,0.8-4.4,0.4c-1.6-0.4-2.8-1.4-3.6-2.5c-0.8-1.1-1.3-2.3-1.5-3.4c-0.4-2.5,0.5-4.4,1.4-5.7
					c0.9-1.3,2-1.9,2.7-2.2c0.8-0.3,1.3-0.3,1.5,0c0.5,0.6-0.5,2-1,4c-0.3,1-0.3,2.1,0,2.9c0.3,0.9,1.1,1.8,1.7,1.9
					c0.3,0.1,0.7,0.1,1.1-0.1c0.4-0.1,0.9-0.4,1.2-0.7c0.7-0.6,1.1-1.6,1.3-2.6C286.7,220.1,286.4,218.4,287.1,218.1z"/>
			</g>
			<g>
				<g>
					<path class="st8" d="M236.2,216.4c0,0.5-3.4,0.9-7.3,2.4c-3.9,1.5-6.7,3.5-7,3.1c-0.1-0.2,0.4-0.9,1.5-1.8
						c1.1-0.9,2.8-2,4.9-2.8c2.1-0.8,4.1-1.2,5.5-1.2C235.3,216.1,236.2,216.2,236.2,216.4z"/>
				</g>
			</g>
		</g>
		<g>
			<path class="st12" d="M219,275l-53.3,10.9c-6.9,0.7-21.4,11.1-25.2,16.8c-23.7,35.2-16.1,125.8-16.1,127l66.9-42.8L219,275z"/>
			<path class="st12" d="M164,286.8l55-11.8c0,0,19.5,112.8,33.5,112.5c14-0.3,35-119.9,35-119.9l49.7,16.1c0,0-9.7,83.1-12,97.9
				c-2.3,14.8-5.7,88.6-5.7,88.6L193.7,470c0,0-2.1-57.8-10.4-86.2C174.9,355.3,164,286.8,164,286.8z"/>
			<path class="st12" d="M284,269.2l52.9,12.6c6.9,0.9,21,11.7,24.7,17.6c22.5,35.9,12.1,126.3,12,127.4L308.1,382L284,269.2z"/>
			<g>
				<path class="st8" d="M265.6,403.4c0,0-0.1,0.2-0.4,0.5c-0.3,0.3-0.7,0.8-1.3,1.3c-1.1,1.1-2.7,2.7-4.8,4.7
					c-4.1,3.9-9.9,9.1-16.7,14.5c-6.8,5.3-13.2,9.8-18,12.9c-2.4,1.5-4.3,2.7-5.7,3.5c-0.6,0.4-1.2,0.7-1.6,0.9
					c-0.4,0.2-0.6,0.3-0.6,0.3c0,0,0.2-0.1,0.5-0.4c0.4-0.3,0.9-0.6,1.5-1c1.3-0.9,3.2-2.1,5.6-3.7c4.7-3.1,11.1-7.6,17.9-13
					c6.8-5.3,12.6-10.5,16.8-14.3c2.1-1.9,3.7-3.5,4.9-4.6c0.5-0.5,1-0.9,1.3-1.2C265.4,403.5,265.6,403.4,265.6,403.4z"/>
			</g>
			<g>
				<path class="st8" d="M267.6,372.6c0,0,0,0.1-0.1,0.4c-0.1,0.3-0.2,0.7-0.4,1.2c-0.3,1-0.8,2.5-1.5,4.4c-0.7,1.9-1.6,4.2-2.6,6.9
					c-0.5,1.3-1.1,2.8-1.8,4.3c-0.7,1.5-1.3,3.1-2.3,4.6c-0.2,0.4-0.5,0.7-0.8,1.1c-0.3,0.4-0.6,0.7-1,1c-0.7,0.6-1.6,1.2-2.7,1.3
					c-2.1,0.3-4.2-0.8-5.6-2.4c-3-3.1-5.5-7-7.6-11.3c-2.1-4.3-3.8-9.1-5.4-14c-1.6-4.9-3.3-10.1-4.8-15.4
					c-6.4-21.1-10.9-40.6-13.8-54.8c-1.4-7.1-2.4-12.8-3.1-16.8c-0.3-2-0.6-3.5-0.7-4.6c-0.1-0.5-0.1-0.9-0.2-1.2
					c0-0.3-0.1-0.4,0-0.4c0,0,0,0.1,0.1,0.4c0.1,0.3,0.1,0.7,0.2,1.2c0.2,1.1,0.5,2.6,0.8,4.6c0.8,4,1.8,9.7,3.3,16.8
					c2.9,14.1,7.5,33.6,13.9,54.7c1.6,5.3,3.2,10.4,4.8,15.3c1.6,4.9,3.3,9.7,5.4,14c2.1,4.3,4.6,8.1,7.5,11.2
					c1.3,1.6,3.3,2.6,5.2,2.3c0.9-0.1,1.8-0.6,2.5-1.2c0.3-0.3,0.7-0.6,1-1c0.3-0.4,0.6-0.7,0.8-1.1c1-1.5,1.6-3.1,2.3-4.6
					c0.6-1.5,1.2-2.9,1.8-4.2c1.1-2.7,2-5,2.7-6.8c0.7-1.9,1.2-3.3,1.6-4.4c0.2-0.5,0.3-0.9,0.4-1.1
					C267.6,372.7,267.6,372.6,267.6,372.6z"/>
			</g>
			<path class="st10" d="M206.8,304.6c-0.6-1.5-1.4-3.1-2.6-4.2c-1.2-1.2-2.9-1.9-4.6-1.5c-1.6,0.4-2.9,1.9-4.6,1.7
				c-2.2-0.2-3.1-3.1-5.1-4c-1.9-1-4.5,0.5-4.8,2.6l0.2,0.1c-0.9,0.6-1.8,1.3-2.1,2.4c-0.3,1.1,0.3,2.4,1.4,2.6
				c1.4,0.3,2.6-1.4,4-1.2c1.6,0.2,2,2.4,3.2,3.3c1.5,1.1,3.6,0.1,5.1-0.8c1.6-0.9,3.7-1.8,5.1-0.7c0.8,0.6,1.1,1.6,1.5,2.5
				c0.5,0.9,1.3,1.7,2.2,1.6c0.8-0.1,1.4-1,1.5-1.8C207.5,306.2,207.2,305.4,206.8,304.6z"/>
			<path class="st10" d="M364.1,370.6c-0.6-1.5-1.4-3.1-2.6-4.2s-2.9-1.9-4.6-1.5c-1.6,0.4-2.9,1.9-4.6,1.7c-2.2-0.2-3.1-3.1-5.1-4
				c-1.9-1-4.5,0.5-4.8,2.6l0.2,0.1c-0.9,0.6-1.8,1.3-2.1,2.4c-0.3,1.1,0.3,2.4,1.4,2.6c1.4,0.3,2.6-1.4,4-1.2
				c1.6,0.2,2,2.4,3.2,3.3c1.5,1.1,3.6,0.1,5.1-0.8c1.6-0.9,3.7-1.8,5.1-0.7c0.8,0.6,1.1,1.6,1.5,2.5c0.5,0.9,1.3,1.7,2.2,1.6
				c0.8-0.1,1.4-1,1.5-1.8C364.8,372.2,364.5,371.4,364.1,370.6z"/>
			<path class="st10" d="M180.5,338.9c1.2,1,3.1,0.2,4.1-1c0.9-1.3,1.2-2.9,1.8-4.3c0.6-1.5,1.8-2.9,3.3-2.9c0.6,0,1.2,0.2,1.8,0.1
				c1.6-0.2,2.3-2,3.2-3.3c1.5-2.2,4.5-3.6,6.9-2.5c2.5,1.1,3.3,5,1.1,6.5c-1.9,1.3-5.1,0.5-6.5,2.4c-1.3,1.9,0.4,4.8-1.1,6.5
				c-1.5,1.7-4.6,0.2-6.4,1.5c-1.6,1.2-1.2,3.7-0.1,5.4c1.1,1.6,2.8,2.9,3.6,4.7c1.4,3.4-1,7.3-3.8,9.6c-0.9,0.8-2,1.5-3.2,1.6
				c-2.4,0.2-4.3-2.1-5.3-4.4c-2.7-6-2.5-13.2,0.6-19"/>
			<path class="st10" d="M314.6,311.3c1.5-0.3,2.1-2.3,1.7-3.8c-0.4-1.5-1.5-2.7-2.3-4.1s-1.2-3.2-0.2-4.4c0.4-0.5,0.9-0.9,1.2-1.4
				c0.8-1.4-0.1-3.1-0.6-4.6c-0.8-2.5,0-5.8,2.3-7c2.4-1.3,5.9,0.6,5.7,3.2c-0.2,2.3-2.8,4.3-2.1,6.6c0.7,2.1,4,2.7,4.4,4.9
				c0.4,2.2-2.7,3.7-2.8,6c-0.1,2,2.2,3.3,4.2,3.4s4-0.4,5.9,0.2c3.6,1,5.1,5.3,5.2,9c0,1.2-0.1,2.5-0.7,3.5c-1.4,2-4.4,2.1-6.7,1.5
				c-6.3-1.6-11.8-6.3-14.5-12.3"/>
			<path class="st10" d="M231,389.9c-1.4-1.3-2.9-2.6-4.7-3.1c-1.8-0.5-4.1,0-5,1.6c-0.5,0.8-0.5,1.9-1,2.7c-1.4,2.3-4.8,1.8-7.2,3
				c-3,1.6-3.3,6.6-0.5,8.5c-1.2,2.5-2.4,5.2-2.1,8c0.2,2.8,2.2,5.6,5,5.9c1.4,0.1,2.8-0.4,4.2-0.2c1.6,0.3,2.8,1.5,4.2,2.5
				c1.3,1,3.2,1.6,4.5,0.7c2-1.4,1.6-5.4,4-5.8c2.1-0.4,4.4,2.6,6,1.2c1-0.9,0.4-2.5,0.9-3.7c0.8-1.9,3.5-1.7,5.3-2.6
				c2-1,2.9-3.5,2.2-5.5c-0.8-2-3.2-3.2-5.3-2.6c-3.3,1-4.9,5.6-8.3,6c-2.3,0.3-4.9-1.5-6.8-0.2c-1.1,0.8-1.5,2.3-2.6,3
				c-1.3,0.9-3.2,0.2-4-1.1c-0.9-1.3-0.8-3-0.3-4.5c0.8-2.3,2.6-4.1,4.4-5.9c0.8-0.8,1.9-1.7,2.9-1.3c0.6,0.2,1.1,0.8,1.6,1.1
				c1.7,1,4-0.8,4.3-2.8c0.3-2-0.8-3.9-1.8-5.6"/>
			<path class="st10" d="M144.7,361.4c-1.4-1.3-2.9-2.6-4.7-3.1c-1.8-0.5-4.1,0-5,1.6c-0.5,0.8-0.5,1.9-1,2.7
				c-1.4,2.3-4.8,1.8-7.2,3c-3,1.6-3.3,6.6-0.5,8.5c-1.2,2.5-2.4,5.2-2.1,8c0.2,2.8,2.2,5.6,5,5.9c1.4,0.1,2.8-0.4,4.2-0.2
				c1.6,0.3,2.8,1.5,4.2,2.5c1.3,1,3.2,1.6,4.5,0.7c2-1.4,1.6-5.4,4-5.8c2.1-0.4,4.4,2.6,6,1.2c1-0.9,0.4-2.5,0.9-3.7
				c0.8-1.9,3.5-1.7,5.3-2.6c2-1,2.9-3.5,2.2-5.5c-0.8-2-3.2-3.2-5.3-2.6c-3.3,1-4.9,5.6-8.3,6c-2.3,0.3-4.9-1.5-6.8-0.2
				c-1.1,0.8-1.5,2.3-2.6,3c-1.3,0.9-3.2,0.2-4-1.1c-0.9-1.3-0.8-3-0.3-4.5c0.8-2.3,2.6-4.1,4.4-5.9c0.8-0.8,1.9-1.7,2.9-1.3
				c0.6,0.2,1.1,0.8,1.6,1.1c1.7,1,4-0.8,4.3-2.8c0.3-2-0.8-3.9-1.8-5.6"/>
			<path class="st10" d="M313.9,345.9c-1.4-1.3-2.9-2.6-4.7-3.1c-1.8-0.5-4.1,0-5,1.6c-0.5,0.8-0.5,1.9-1,2.7
				c-1.4,2.3-4.8,1.8-7.2,3c-3,1.6-3.3,6.6-0.5,8.5c-1.2,2.5-2.4,5.2-2.1,8c0.2,2.8,2.2,5.6,5,5.9c1.4,0.1,2.8-0.4,4.2-0.2
				c1.6,0.3,2.8,1.5,4.2,2.5c1.3,1,3.2,1.6,4.5,0.7c2-1.4,1.6-5.4,4-5.8c2.1-0.4,4.4,2.6,6,1.2c1-0.9,0.4-2.5,0.9-3.7
				c0.8-1.9,3.5-1.7,5.3-2.6c2-1,2.9-3.5,2.2-5.5c-0.8-2-3.2-3.2-5.3-2.6c-3.3,1-4.9,5.6-8.3,6c-2.3,0.3-4.9-1.5-6.8-0.2
				c-1.1,0.8-1.5,2.3-2.6,3c-1.3,0.9-3.2,0.2-4-1.1c-0.9-1.3-0.8-3-0.3-4.5c0.8-2.3,2.6-4.1,4.4-5.9c0.8-0.8,1.9-1.7,2.9-1.3
				c0.6,0.2,1.1,0.8,1.6,1.1c1.7,1,4-0.8,4.3-2.8c0.3-2-0.8-3.9-1.8-5.6"/>
			<path class="st10" d="M237.7,461.5c2.4,0.1,4.7-2.2,4.5-4.7c-0.2-2.1-1.9-4.4-0.8-6.2c0.9-1.5,3.2-1.5,4.3-2.8
				c1.8-1.9,0.4-5.4,2.2-7.2c1-1,2.5-1,3.9-1c1.6,0,3.5,0.2,4.3,1.6c0.7,1.3,0,2.9-1,3.8c-1,1-2.4,1.5-3.6,2.2
				c-1.2,0.7-2.3,1.9-2.4,3.3c-0.1,1.4,0.8,2.6,1.3,3.8c0.5,1.3,0.5,3-0.8,3.6c-0.5,0.2-1.1,0.2-1.6,0.5c-0.6,0.4-0.7,1.3-1,2
				c-0.9,2.3-3.8,2.9-6.3,3.2c-0.6,0.1-1.2,0.1-1.8,0c-0.6-0.2-1.1-0.7-1.1-1.3c0-0.6,0.7-1.2,1.2-0.9"/>
			<path class="st10" d="M159.9,294.2c-0.5-1.3-1.4-2.5-1.3-3.8l0.9-2.4l-8.1,4.8l0.3,3.8c0,0-0.8,3.4-1.4,4.1
				c-0.6,0.7-1.8,0.5-1.8,0.5c-0.5-0.3-1.2,0.3-1.2,0.9c0,0.6,0.6,1.1,1.1,1.3c0.6,0.2,1.2,0.1,1.8,0c2.4-0.3,5.3-0.9,6.3-3.2
				c0.3-0.7,0.4-1.6,1-2c0.5-0.3,1.1-0.3,1.6-0.5C160.4,297.2,160.4,295.4,159.9,294.2z"/>
			<path class="st10" d="M309,435.3c0.4-2.4-1.6-4.9-4.1-5c-2.2-0.1-4.6,1.3-6.3,0c-1.3-1.1-1.1-3.3-2.2-4.7c-1.7-2-5.3-1.1-6.9-3.1
				c-0.8-1.1-0.7-2.6-0.5-4c0.2-1.6,0.7-3.5,2.2-4.1c1.3-0.5,2.8,0.4,3.7,1.5c0.8,1.2,1.2,2.6,1.8,3.9c0.6,1.3,1.6,2.6,3,2.8
				c1.3,0.3,2.6-0.4,3.9-0.8c1.3-0.3,3.1-0.1,3.5,1.2c0.2,0.5,0,1.1,0.3,1.6c0.3,0.7,1.2,0.9,1.9,1.3c2.1,1.2,2.4,4.1,2.4,6.6
				c0,0.6,0,1.2-0.3,1.8c-0.2,0.6-0.8,1-1.4,1c-0.6-0.1-1.1-0.8-0.8-1.3"/>
		</g>
		<g>
			<g>
				<path class="st13" d="M175.5,327.3L148.7,341c1.5,23.7-0.4,60.5-1.6,74.2l-8.2,5.2c-1.7,14.9,13.3,48.6,28.2,52.8
					c14.9,4.2,29.1-0.2,33-8.8c10-22.2-11.6-97.9-11.6-97.9L175.5,327.3z"/>
			</g>
			<g>
				<g>
					<path class="st13" d="M175.5,327.3L148.7,341c1.5,23.7-0.4,60.5-1.6,74.2l-8.2,5.2c-1.7,14.9,13.3,48.6,28.2,52.8
						c14.9,4.2,29.1-0.2,33-8.8c10-22.2-11.6-97.9-11.6-97.9L175.5,327.3z"/>
				</g>
				<path class="st13" d="M175.5,327.3c0,0-2.3-9.9-6.9-14.1c0,0-6.7-2.5-12.8-4.4c-6.1-2-16,0.3-24.4,0c-8.5-0.3-45.3-3.5-45.3-3.5
					s-3.9,0-5.7,1.7c0,0-10-2.5-13.2,6.1v1.5l2.6,1.7c0,0,12.3-0.1,14.9,0c2.6,0.1,29.3,11,29.3,11s7.7,4.5,12.1,4.6
					c4.5,0.1,3.1-0.3,12.4,1.4c9.3,1.7,10.2,7.7,10.2,7.7L175.5,327.3z"/>
				<g>
					<path class="st14" d="M136.9,320.6c0,0-0.2,0.1-0.5,0.1c-0.3,0-0.9,0.1-1.5,0.2c-1.3,0.1-3.2,0.2-5.6,0.1
						c-1.2,0-2.5-0.1-3.9-0.3c-1.4-0.2-2.8-0.6-4.3-1c-3-0.9-6.3-1.9-9.7-3.1c-1.4-0.5-2.8-1-4.1-1.5l0.1,0c-3.4,0-6.5,0-9.3,0
						l-0.2,0l0-0.2c0.2-1.9,0.9-3.6,2-4.7c1.1-1.2,2.3-1.8,3.4-2.1c1.1-0.3,1.9-0.4,2.5-0.4c0.6,0,0.9,0,0.9,0.1
						c0,0.1-1.3-0.1-3.3,0.6c-1,0.3-2.2,1-3.2,2.1c-1,1.1-1.7,2.7-1.8,4.5l-0.2-0.2c2.8,0,6,0,9.3,0l0,0l0,0c1.3,0.5,2.7,1,4.1,1.5
						c3.4,1.2,6.7,2.3,9.6,3.2c1.5,0.4,2.9,0.8,4.3,1.1c1.3,0.2,2.6,0.3,3.8,0.4c2.4,0.1,4.3,0.1,5.6,0c0.6,0,1.1,0,1.5-0.1
						C136.7,320.6,136.9,320.6,136.9,320.6z"/>
				</g>
				<g>
					<path class="st14" d="M128.9,326.9c0,0-0.2,0-0.6-0.1c-0.4-0.1-1-0.2-1.7-0.3c-1.5-0.3-3.5-0.8-6.1-1.5
						c-5.1-1.4-12-3.9-19.6-6.8c-2.2-0.8-4.2-1.7-6.2-2.5c-1-0.4-2-0.8-2.9-1.3c-0.9-0.4-1.9-0.6-2.8-0.8c-1.9-0.3-3.7-0.4-5.3-0.4
						c-1.6,0-3.1,0-4.5,0l-0.1,0l0-0.1c-0.3-2.1-0.1-3.8,0.3-4.8c0.4-1.1,1-1.4,1-1.4c0,0-0.1,0.1-0.3,0.3c-0.2,0.2-0.4,0.6-0.6,1.1
						c-0.4,1-0.5,2.7-0.2,4.7l-0.2-0.1c1.3-0.1,2.8-0.1,4.5-0.1c1.7,0,3.5,0.1,5.4,0.4c1,0.2,2,0.3,2.9,0.8c0.9,0.4,1.9,0.8,2.9,1.3
						c2,0.8,4.1,1.6,6.2,2.5c7.5,2.9,14.4,5.5,19.5,6.9c2.5,0.7,4.6,1.3,6.1,1.6c0.7,0.2,1.2,0.3,1.7,0.4
						C128.7,326.8,128.9,326.8,128.9,326.9z"/>
				</g>
				<g>
					<path class="st14" d="M149,338.1c0,0,0,0.1,0.1,0.3c0,0.2,0.1,0.5,0.1,0.8c0.1,0.7,0.2,1.8,0.4,3.2c0.3,2.8,0.6,6.8,0.8,11.8
						c0.2,5,0.2,10.9-0.1,17.5c-0.3,6.6-0.8,13.8-1.6,21.4c-0.7,7.6-1.4,14.8-1.2,21.3c0.2,6.6,1.3,12.4,3,17.1
						c1.6,4.7,3.8,8.1,5.5,10.3c0.4,0.6,0.8,1,1.1,1.4c0.3,0.4,0.6,0.8,0.9,1c0.2,0.3,0.4,0.5,0.6,0.6c0.1,0.1,0.2,0.2,0.2,0.2
						c0,0-1.2-1-2.9-3.2c-1.7-2.2-3.9-5.6-5.7-10.3c-1.7-4.7-2.9-10.6-3.1-17.2c-0.2-6.6,0.4-13.8,1.2-21.4
						c0.7-7.6,1.3-14.8,1.6-21.3c0.3-6.6,0.4-12.5,0.2-17.5c-0.1-5-0.4-9-0.6-11.8c-0.1-1.4-0.2-2.5-0.3-3.2c0-0.3,0-0.6-0.1-0.8
						C149,338.2,149,338.1,149,338.1z"/>
				</g>
			</g>
		</g>
		<g>
			<g>
				<path class="st13" d="M319.6,327l27.7,11.8c0.1,23.7,4.5,60.3,6.6,73.9l8.5,4.7c2.7,14.8-10,49.4-24.5,54.6
					c-14.5,5.2-29.1,1.8-33.5-6.5c-11.5-21.5,5-98.4,5-98.4L319.6,327z"/>
			</g>
			<path class="st13" d="M319.6,327c0,0,1.6-10,5.9-14.5c0,0,6.5-2.9,12.5-5.3c6-2.4,16-0.8,24.4-1.7c8.4-0.9,44.9-6.6,44.9-6.6
				s3.9-0.3,5.8,1.3c0,0,9.8-3.2,13.6,5.2l0.1,1.5l-2.5,1.8c0,0-12.3,0.7-14.9,1c-2.6,0.3-28.5,13-28.5,13s-7.3,5-11.8,5.4
				c-4.4,0.4-3.1-0.1-12.3,2.2c-9.2,2.3-9.6,8.3-9.6,8.3L319.6,327z"/>
			<g>
				<path class="st14" d="M357.7,317.7c0,0,0.2,0,0.5,0c0.4,0,0.9,0,1.5,0c1.3-0.1,3.2-0.1,5.6-0.4c1.2-0.1,2.5-0.3,3.8-0.6
					c1.3-0.4,2.7-0.8,4.2-1.4c2.9-1.1,6.1-2.4,9.4-3.8c1.4-0.6,2.7-1.2,4-1.8l0,0l0,0c3.4-0.2,6.5-0.4,9.3-0.6l-0.2,0.3
					c-0.3-1.8-1.1-3.4-2.1-4.4c-1.1-1-2.3-1.6-3.3-1.9c-2.1-0.5-3.4-0.3-3.4-0.4c0,0,0.3-0.1,0.9-0.1c0.6,0,1.5,0,2.5,0.2
					c1.1,0.2,2.4,0.8,3.5,1.8c1.1,1.1,2,2.7,2.3,4.6l0,0.2l-0.2,0c-2.8,0.2-5.9,0.4-9.3,0.7l0.1,0c-1.3,0.6-2.6,1.2-4,1.8
					c-3.3,1.4-6.5,2.7-9.5,3.8c-1.5,0.5-2.9,1-4.3,1.3c-1.4,0.3-2.7,0.5-3.8,0.6c-2.4,0.2-4.3,0.3-5.6,0.2c-0.7,0-1.2,0-1.5,0
					C357.9,317.8,357.7,317.8,357.7,317.7z"/>
			</g>
			<g>
				<path class="st14" d="M366.1,323.4c0,0,0.2-0.1,0.6-0.2c0.4-0.1,1-0.3,1.6-0.5c1.4-0.5,3.4-1.1,5.9-2c5-1.8,11.6-4.8,18.9-8.2
					c2.1-1,4.1-1.9,6-2.9c1-0.5,1.9-0.9,2.8-1.5c0.9-0.5,1.9-0.8,2.9-1c1.9-0.4,3.7-0.6,5.4-0.7c1.7-0.1,3.2-0.2,4.5-0.2l-0.2,0.1
					c0.2-2,0-3.7-0.5-4.7c-0.2-0.5-0.5-0.9-0.7-1.1c-0.2-0.2-0.3-0.3-0.3-0.3c0,0,0.6,0.3,1.1,1.3c0.5,1,0.8,2.7,0.6,4.8l0,0.1
					l-0.1,0c-1.3,0-2.8,0.1-4.4,0.3c-1.6,0.2-3.4,0.4-5.3,0.8c-0.9,0.2-1.9,0.5-2.7,1c-0.9,0.5-1.8,1-2.8,1.5c-1.9,1-4,1.9-6,2.9
					c-7.3,3.4-14,6.4-19,8.1c-2.5,0.9-4.6,1.5-6,1.9c-0.7,0.2-1.3,0.3-1.7,0.4C366.3,323.4,366.1,323.5,366.1,323.4z"/>
			</g>
			<g>
				<path class="st14" d="M346.8,336c0,0,0,0.1,0,0.3c0,0.2,0,0.5,0,0.8c0,0.7-0.1,1.8-0.1,3.2c-0.1,2.8,0,6.8,0.2,11.8
					c0.2,5,0.7,10.9,1.4,17.4c0.8,6.5,1.8,13.7,3.1,21.2c1.3,7.5,2.4,14.7,2.6,21.3c0.3,6.6-0.5,12.6-1.9,17.4
					c-1.4,4.8-3.4,8.4-4.9,10.7c-1.6,2.3-2.7,3.4-2.7,3.4c0,0,0-0.1,0.2-0.2c0.1-0.2,0.3-0.4,0.5-0.7c0.2-0.3,0.5-0.6,0.8-1.1
					c0.3-0.4,0.7-0.9,1-1.5c1.5-2.3,3.4-5.9,4.7-10.7c1.3-4.8,2.1-10.7,1.8-17.3c-0.2-6.6-1.4-13.7-2.7-21.2
					c-1.3-7.5-2.3-14.7-3-21.2c-0.7-6.5-1.1-12.5-1.3-17.4c-0.2-5-0.1-9,0-11.8c0-1.4,0.1-2.5,0.2-3.2c0-0.3,0-0.6,0.1-0.8
					C346.8,336.1,346.8,336,346.8,336z"/>
			</g>
		</g>
		<path class="st8" d="M292.7,309.9c-0.6-7.5,3.2-14.5,5.6-21.5c4.9-14.3,4.6-22.3,5.5-50.4l-22.9-5.3c-0.8,9.4,0.6,5.7-0.3,15.9
			c-0.9,10.2-3.5,20.3-8.9,29c-3.9,6.2-9.3,11.9-10.1,19.1c-1.1,10.5,8.2,19.5,8.7,30.1c0.8,14.6-15,26.7-13.1,41.2
			c0.4,3.2,1.9,6.5,4.8,8c2.1,1.1,4.5,1.1,6.8,1c5.1-0.1,10.3-0.1,15.4-0.2c1.6,0,3.5-0.1,4.6-1.3c1.9-1.9,0.9-5,0.5-7.7
			c-1.7-11.4,10.5-20.8,10.8-32.3C300.4,326.5,293.4,318.8,292.7,309.9z"/>
	</g>
</g>
<g id="Speech_Bubble">
	<g>
		
			<ellipse transform="matrix(0.9875 -0.1575 0.1575 0.9875 -9.5356 59.8057)" class="st1" cx="372.5" cy="90.1" rx="54.3" ry="54.3"/>
		<g>
			<g>
				<g>
					<g>
						<g>
							<g>
								<g>
									<path class="st8" d="M322.6,128c0,0.1,0.6,0.1,1.5,0.5c0.9,0.4,2.3,1.2,3.2,2.8c0.5,0.8,0.9,1.7,1,2.8
										c0.1,1.1,0,2.2-0.6,3.3c-1,2.1-3.5,4-6.3,3.8c-2.8-0.2-5-2.3-5.8-4.5c-0.4-1.1-0.4-2.3-0.2-3.3c0.2-1,0.8-1.9,1.3-2.6
										c1.2-1.4,2.6-2.1,3.6-2.4c1-0.3,1.6-0.2,1.6-0.3c0,0-0.1,0-0.4,0c-0.1,0-0.3,0-0.5,0c-0.2,0-0.4,0-0.7,0.1
										c-1,0.2-2.5,0.9-3.8,2.3c-0.6,0.7-1.2,1.7-1.5,2.8c-0.3,1.1-0.3,2.4,0.2,3.6c0.4,1.2,1.2,2.4,2.3,3.3
										c1.1,0.9,2.4,1.5,3.9,1.6c1.5,0.1,2.9-0.4,4.1-1.2c1.2-0.8,2.1-1.8,2.6-3c0.6-1.2,0.7-2.4,0.6-3.5
										c-0.2-1.1-0.6-2.1-1.1-2.9c-1.1-1.6-2.5-2.4-3.5-2.8c-0.2-0.1-0.5-0.2-0.7-0.2c-0.2-0.1-0.4-0.1-0.5-0.1
										C322.8,128,322.6,128,322.6,128z"/>
								</g>
							</g>
						</g>
					</g>
				</g>
				<g>
					<g>
						<g>
							<g>
								<g>
									<path class="st8" d="M311.4,143.3c0,0,0.3,0,0.8,0.2c0.5,0.2,1.1,0.6,1.6,1.4c0.2,0.4,0.4,0.9,0.5,1.4
										c0.1,0.5,0,1.1-0.3,1.6c-0.5,1.1-1.7,2-3.1,1.9c-1.4-0.1-2.5-1.2-2.9-2.3c-0.2-0.6-0.2-1.1-0.1-1.7c0.1-0.5,0.4-1,0.7-1.3
										c0.6-0.7,1.3-1.1,1.8-1.2c0.5-0.1,0.8-0.1,0.8-0.1c0,0-0.1,0-0.2,0c-0.1,0-0.2,0-0.3,0c-0.1,0-0.2,0-0.3,0.1
										c-0.5,0.1-1.3,0.4-1.9,1.2c-0.3,0.4-0.6,0.8-0.7,1.4c-0.1,0.5-0.1,1.2,0.1,1.8c0.2,0.6,0.6,1.2,1.1,1.6
										c0.5,0.5,1.2,0.8,2,0.8c0.7,0,1.5-0.2,2-0.6c0.6-0.4,1-0.9,1.3-1.5c0.3-0.6,0.4-1.2,0.3-1.8c-0.1-0.6-0.3-1.1-0.6-1.5
										c-0.5-0.8-1.2-1.2-1.7-1.4c-0.1,0-0.2-0.1-0.3-0.1c-0.1,0-0.2,0-0.3,0C311.5,143.3,311.4,143.3,311.4,143.3z"/>
								</g>
							</g>
						</g>
					</g>
				</g>
				<g>
					<g>
						<g>
							<g>
								<g>
									<g>
										<path class="st8" d="M318.5,94.3c0,0,0-0.3,0-0.9c0-0.6,0-1.5,0-2.6c0-0.6,0-1.2,0-1.9c0-0.7,0.1-1.5,0.2-2.3
											c0.1-0.8,0.1-1.7,0.2-2.7c0-0.5,0.1-1,0.2-1.5c0.1-0.5,0.2-1,0.3-1.5c0.6-4.2,2.2-9.3,4.8-14.8
											c2.7-5.4,6.7-11.2,12.5-16.3c0.7-0.6,1.5-1.3,2.2-1.9c0.8-0.6,1.6-1.2,2.4-1.7c0.4-0.3,0.8-0.6,1.2-0.9
											c0.4-0.3,0.8-0.6,1.3-0.8c0.9-0.5,1.8-1,2.7-1.6c0.5-0.3,0.9-0.5,1.4-0.8c0.5-0.2,1-0.4,1.4-0.7c1-0.4,1.9-0.9,2.9-1.3
											c1-0.4,2.1-0.7,3.1-1.1c0.5-0.2,1-0.4,1.6-0.5c0.3-0.1,0.5-0.2,0.8-0.3l0.8-0.2c2.2-0.5,4.4-1.1,6.7-1.3
											c1.2-0.1,2.3-0.3,3.5-0.4c1.2,0,2.4-0.1,3.6-0.1c0.6,0,1.2-0.1,1.8,0c0.6,0,1.2,0.1,1.8,0.1c1.2,0.1,2.4,0.1,3.7,0.3
											c2.4,0.5,4.9,0.7,7.3,1.5c0.6,0.2,1.2,0.3,1.8,0.5c0.3,0.1,0.6,0.2,0.9,0.3l0.9,0.3c1.2,0.5,2.4,0.9,3.6,1.4
											c1.2,0.5,2.3,1.2,3.5,1.7c0.6,0.3,1.2,0.6,1.7,0.9l1.7,1.1c2.3,1.3,4.4,3.1,6.5,4.7c1,0.9,2,1.9,3,2.8l0.7,0.7
											c0.2,0.2,0.5,0.5,0.7,0.8l1.4,1.5l1.4,1.6l1.2,1.7l1.2,1.7l0.6,0.8c0.2,0.3,0.4,0.6,0.5,0.9c0.7,1.2,1.4,2.4,2.1,3.6
											c0.6,1.3,1.2,2.6,1.8,3.9c2.2,5.3,3.6,10.9,4.1,16.7c0.4,5.8-0.1,11.6-1.4,17.2c-0.4,1.4-0.8,2.7-1.1,4.1
											c-0.5,1.3-1,2.6-1.5,3.9l-0.4,1l-0.5,0.9l-0.9,1.9l-0.9,1.9l-1.1,1.7l-1.1,1.7l-0.6,0.9l-0.6,0.8
											c-0.8,1.1-1.7,2.2-2.5,3.2c-1.9,2-3.6,4-5.7,5.7l-1.5,1.3c-0.5,0.4-1.1,0.8-1.6,1.2c-1.1,0.8-2.1,1.6-3.2,2.3
											c-1.1,0.7-2.2,1.3-3.3,1.9l-0.8,0.5c-0.3,0.1-0.6,0.3-0.9,0.4c-0.6,0.3-1.2,0.5-1.7,0.8c-2.3,1.2-4.7,1.8-7,2.7
											c-1.2,0.3-2.4,0.6-3.6,0.9c-0.6,0.1-1.2,0.3-1.8,0.4c-0.6,0.1-1.2,0.2-1.8,0.3c-1.2,0.2-2.4,0.3-3.5,0.5
											c-1.2,0.1-2.4,0.1-3.5,0.1c-2.3,0.2-4.6-0.1-6.9-0.3l-0.8-0.1c-0.3,0-0.6-0.1-0.8-0.1c-0.5-0.1-1.1-0.2-1.6-0.3
											c-1.1-0.2-2.2-0.3-3.2-0.6c-1-0.3-2.1-0.6-3.1-0.9c-0.5-0.1-1-0.3-1.5-0.4c-0.5-0.2-1-0.4-1.5-0.6c-1-0.4-1.9-0.8-2.9-1.1
											c-0.5-0.2-0.9-0.4-1.4-0.6c-0.5-0.2-0.9-0.5-1.3-0.7c-0.9-0.5-1.8-0.9-2.6-1.4c-0.8-0.5-1.6-1-2.5-1.6
											c-6.5-4.1-11.4-9.2-14.9-14.2c-0.4-0.6-0.9-1.2-1.3-1.8c-0.4-0.6-0.7-1.3-1.1-1.9c-0.4-0.6-0.7-1.2-1.1-1.8
											c-0.2-0.3-0.4-0.6-0.5-0.9c-0.1-0.3-0.3-0.6-0.4-0.9c-0.5-1.2-1.1-2.3-1.6-3.4c-0.5-1.1-0.8-2.2-1.1-3.2
											c-0.2-0.5-0.3-1-0.5-1.5c-0.2-0.5-0.3-0.9-0.4-1.4c-0.2-0.9-0.4-1.8-0.6-2.6c-0.2-0.8-0.4-1.5-0.5-2.2
											c-0.1-0.7-0.2-1.3-0.3-1.9c-0.2-1.1-0.3-2-0.4-2.5C318.6,94.6,318.5,94.3,318.5,94.3s0,0.3,0.1,0.9
											c0.1,0.6,0.2,1.4,0.3,2.6c0.1,0.6,0.1,1.2,0.2,1.9c0.1,0.7,0.3,1.4,0.5,2.2c0.2,0.8,0.4,1.7,0.6,2.6
											c0.1,0.5,0.2,0.9,0.4,1.4c0.2,0.5,0.3,1,0.5,1.5c0.4,1,0.7,2.1,1.1,3.2c0.5,1.1,1,2.2,1.6,3.4c0.1,0.3,0.3,0.6,0.4,0.9
											c0.1,0.3,0.3,0.6,0.5,0.9c0.3,0.6,0.7,1.2,1,1.8c0.4,0.6,0.7,1.2,1.1,1.9c0.4,0.6,0.9,1.2,1.3,1.8
											c3.5,5,8.4,10.1,14.9,14.3c0.8,0.5,1.6,1,2.5,1.6c0.9,0.5,1.8,0.9,2.7,1.4c0.5,0.2,0.9,0.5,1.4,0.7
											c0.5,0.2,0.9,0.5,1.4,0.6c1,0.4,1.9,0.8,2.9,1.1c0.5,0.2,1,0.4,1.5,0.6c0.5,0.1,1,0.3,1.5,0.4c1,0.3,2.1,0.6,3.1,0.9
											c1.1,0.3,2.2,0.4,3.3,0.6c0.5,0.1,1.1,0.2,1.7,0.3c0.3,0,0.6,0.1,0.8,0.1l0.8,0.1c2.3,0.1,4.6,0.4,6.9,0.3
											c1.2,0,2.4,0,3.5-0.1c1.2-0.2,2.4-0.3,3.6-0.5c0.6-0.1,1.2-0.1,1.8-0.3c0.6-0.1,1.2-0.3,1.8-0.4c1.2-0.3,2.4-0.5,3.6-0.9
											c2.3-0.8,4.8-1.5,7.1-2.7c0.6-0.3,1.2-0.5,1.7-0.8c0.3-0.1,0.6-0.3,0.9-0.4l0.8-0.5c1.1-0.6,2.2-1.3,3.4-2
											c1.1-0.7,2.1-1.5,3.2-2.3c0.5-0.4,1.1-0.7,1.6-1.2l1.5-1.3c2.1-1.7,3.9-3.7,5.7-5.7c0.8-1.1,1.7-2.2,2.5-3.2l0.6-0.8
											l0.6-0.9l1.1-1.8l1.1-1.8l1-1.9l1-1.9l0.5-0.9l0.4-1c0.5-1.3,1-2.6,1.5-4c0.4-1.4,0.8-2.7,1.2-4.1
											c1.3-5.6,1.8-11.4,1.5-17.3c-0.5-5.9-1.9-11.6-4.1-16.9c-0.6-1.3-1.2-2.6-1.8-3.9c-0.7-1.2-1.4-2.5-2.1-3.7
											c-0.2-0.3-0.3-0.6-0.5-0.9l-0.6-0.9l-1.2-1.7l-1.2-1.7l-1.4-1.6l-1.4-1.6c-0.2-0.3-0.5-0.5-0.7-0.8l-0.8-0.7
											c-1-0.9-2-1.9-3-2.8c-2.2-1.7-4.2-3.4-6.6-4.7l-1.7-1.1c-0.6-0.4-1.2-0.6-1.8-0.9c-1.2-0.6-2.3-1.2-3.5-1.7
											c-1.2-0.5-2.4-0.9-3.6-1.4l-0.9-0.3c-0.3-0.1-0.6-0.2-0.9-0.3c-0.6-0.2-1.2-0.3-1.8-0.5c-2.4-0.8-4.9-1.1-7.4-1.5
											c-1.2-0.2-2.5-0.2-3.7-0.3c-0.6,0-1.2-0.1-1.8-0.1c-0.6,0-1.2,0-1.8,0c-1.2,0-2.4,0.1-3.6,0.1c-1.2,0.1-2.4,0.3-3.5,0.4
											c-2.3,0.2-4.6,0.8-6.8,1.3l-0.8,0.2c-0.3,0.1-0.5,0.2-0.8,0.3c-0.5,0.2-1.1,0.4-1.6,0.5c-1,0.4-2.1,0.7-3.1,1.1
											c-1,0.5-2,0.9-3,1.4c-0.5,0.2-1,0.4-1.5,0.7c-0.5,0.3-0.9,0.5-1.4,0.8c-0.9,0.5-1.8,1.1-2.7,1.6c-0.5,0.2-0.9,0.5-1.3,0.8
											c-0.4,0.3-0.8,0.6-1.2,0.9c-0.8,0.6-1.6,1.2-2.4,1.8c-0.7,0.7-1.5,1.3-2.2,1.9c-5.8,5.1-9.8,11-12.5,16.5
											c-2.7,5.5-4.2,10.6-4.8,14.9c-0.1,0.5-0.2,1-0.3,1.5c-0.1,0.5-0.2,1-0.2,1.5c-0.1,1-0.1,1.8-0.2,2.7
											c0,0.8-0.1,1.6-0.1,2.3c0,0.7,0,1.3,0.1,1.9c0,1.1,0.1,2,0.1,2.6C318.5,94,318.5,94.3,318.5,94.3z"/>
									</g>
								</g>
							</g>
						</g>
					</g>
				</g>
			</g>
		</g>
		<g>
			<path class="st6" d="M359.2,78.1h7.7c0,0,0-6.5,6.7-6.6c3.5-0.1,5.3,2.2,6,4c0.9,2,0.6,4.3-0.5,6.2c-1.3,2.2-4.2,4.1-9.4,3.2
				v17.4h7.6V92.1c0,0,10.7-2.8,10.7-14.5c0-11.3-10.1-13.9-14.4-13.9C370.3,63.8,359.1,64.6,359.2,78.1z"/>
			<rect x="369.7" y="105.9" class="st6" width="7.7" height="7.2"/>
		</g>
	</g>
</g>
</svg>
