<?xml version="1.0" encoding="utf-8"?>
<!-- Generator: Adobe Illustrator 24.0.1, SVG Export Plug-In . SVG Version: 6.00 Build 0)  -->
<svg version="1.1" xmlns="http://www.w3.org/2000/svg" xmlns:xlink="http://www.w3.org/1999/xlink" x="0px" y="0px"
	 viewBox="0 0 500 500" style="enable-background:new 0 0 500 500;" xml:space="preserve">
<style type="text/css">
	.st0{fill:#F5F5F5;}
	.st1{fill:#E0E0E0;}
	.st2{fill:#FFFFFF;}
	.st3{fill:#FAFAFA;}
	.st4{fill:#EBEBEB;}
	.st5{display:none;}
	.st6{display:inline;fill:#EBEBEB;}
	.st7{fill:#F4B545;}
	.st8{fill:#003F3A;}
	.st9{fill:#263238;}
	.st10{opacity:0.3;}
	.st11{opacity:0.4;}
	.st12{opacity:0.94;fill:#E5B54F;}
	.st13{opacity:0.92;fill:#23413D;}
	.st14{fill:none;stroke:#251E1C;stroke-width:0.75;stroke-linecap:round;stroke-miterlimit:10;}
	.st15{opacity:0.88;fill:#C13941;}
	.st16{fill:#FFBE9D;}
	.st17{fill:#455A64;}
	.st18{fill:#EB996E;}
</style>
<g id="Background_Complete">
	<g>
		<g>
			<path class="st0" d="M415.6,319.2c0,0-17.8-92.3-17.9-111.3c-0.1-26.3,20.1-36.8,20.1-36.8l-7.8-22.3h43l-6.8,22.1
				c0,0,22.6,12,19.5,39.3c-5.9,51-15.3,109-15.3,109H415.6z"/>
		</g>
		<g>
			<g>
				<path class="st1" d="M456.6,181.6c0,0-0.2,0-0.5,0c-0.3,0-0.8-0.1-1.4-0.1c-1.2,0-3.1,0.2-5.2,1.1c-2.2,0.9-4.5,2.6-6.7,5.1
					c-1.1,1.3-2.1,2.7-3.1,4.3c-1,1.6-1.9,3.4-2.7,5.3c-0.8,1.9-1.3,4.1-1.3,6.3c0.1,2.2,0.9,4.6,2.5,6.3c0.8,0.9,1.9,1.6,3,1.9
					c1.2,0.3,2.5,0.3,3.7-0.1c2.4-0.8,4.4-3,5.2-5.6c0.9-2.6,0-5.5-1.8-7.7c-1.8-2.2-4.5-3.7-7.4-4.3c-2.9-0.5-6,0-8.9,1.1
					c-2.9,1.1-5.6,2.8-8,4.9c-4.8,4.1-8.3,9.7-9.4,15.6c-0.6,2.9-0.6,5.9,0.2,8.7c0.7,2.8,2.1,5.3,4.2,7c1,0.9,2.3,1.5,3.6,1.6
					c1.3,0.2,2.6-0.1,3.7-0.7c2.2-1.3,3.2-3.9,3.3-6.3c0-1.2-0.2-2.4-0.7-3.4c-0.5-1-1.2-2-2.1-2.7c-1.7-1.5-3.8-2.3-5.8-2.7
					c-4.1-0.8-8,0.3-10.8,1.9c-2.9,1.6-5,3.6-6.4,5.5c-1.4,1.9-2.2,3.6-2.6,4.7c-0.4,1.2-0.6,1.8-0.6,1.8c0,0,0.1-0.6,0.5-1.8
					c0.4-1.2,1.1-2.9,2.5-4.8c1.4-1.9,3.5-4,6.4-5.7c2.9-1.6,6.8-2.8,11.1-2c2.1,0.4,4.3,1.2,6,2.8c0.9,0.8,1.7,1.7,2.2,2.8
					c0.5,1.1,0.8,2.4,0.7,3.7c0,2.5-1.1,5.3-3.5,6.8c-1.2,0.7-2.6,1-4,0.8c-1.4-0.2-2.7-0.8-3.8-1.7c-2.2-1.8-3.8-4.5-4.5-7.3
					c-0.8-2.9-0.8-6-0.2-9c1.2-6,4.7-11.7,9.6-15.9c2.5-2.1,5.2-3.8,8.2-5c2.9-1.1,6.2-1.6,9.2-1.1c3,0.6,5.8,2.2,7.7,4.5
					c0.9,1.2,1.6,2.5,2,3.9c0.4,1.4,0.3,3-0.1,4.3c-0.9,2.7-2.9,5-5.5,5.9c-1.3,0.4-2.7,0.5-4,0.1c-1.3-0.4-2.4-1.1-3.3-2.1
					c-1.7-1.9-2.6-4.3-2.7-6.7c-0.1-2.4,0.5-4.6,1.3-6.5c0.8-2,1.8-3.7,2.8-5.4c1-1.6,2-3.1,3.2-4.4c2.2-2.5,4.7-4.2,6.9-5.1
					c2.2-0.9,4.1-1.1,5.3-1C456,181.4,456.6,181.6,456.6,181.6z"/>
			</g>
		</g>
		<g>
			<g>
				<path class="st1" d="M457.8,251.3c0,0,0.2,1.7-0.4,4.7c-0.3,1.5-0.9,3.3-1.9,5.2c-1,1.9-2.4,4-4.5,5.8c-2,1.8-4.7,3.3-7.9,4.1
					c-3.1,0.8-6.7,0.9-10.2-0.1c-3.5-1-6.8-3.3-9.2-6.5c-2.4-3.1-3.9-7.3-3.5-11.5c0.2-2.1,0.9-4.2,2.5-5.7c1.6-1.5,3.9-1.7,5.9-1.2
					c1.9,0.6,3.6,1.9,4.5,3.6c0.9,1.8,1,3.8,0.6,5.6c-0.4,1.8-1.3,3.4-2.5,4.7c-1.2,1.3-2.6,2.2-4.1,2.8c-3,1.3-6.1,1.4-8.8,1.1
					c-2.7-0.3-5.1-1.2-7-2.2c-1.9-1-3.4-2.1-4.6-3.2c-2.2-2.1-3-3.6-3-3.6c0,0,0.1,0.1,0.2,0.2c0.1,0.2,0.3,0.4,0.6,0.7
					c0.5,0.6,1.3,1.5,2.4,2.5c1.1,1,2.6,2.1,4.6,3c1.9,0.9,4.2,1.7,6.9,2c2.6,0.3,5.7,0.1,8.6-1.1c1.4-0.6,2.8-1.5,3.9-2.7
					c1.1-1.2,1.9-2.8,2.3-4.5c0.4-1.7,0.3-3.6-0.6-5.2c-0.8-1.6-2.4-2.8-4.2-3.3c-1.8-0.5-3.9-0.3-5.3,1c-1.4,1.3-2.2,3.3-2.3,5.3
					c-0.3,4,1.1,8,3.4,11.1c2.3,3.1,5.5,5.3,8.9,6.3c3.4,1,6.9,0.9,9.9,0.2c3.1-0.7,5.7-2.2,7.7-4c2-1.7,3.5-3.8,4.5-5.6
					c1-1.9,1.6-3.6,2-5.1c0.4-1.5,0.5-2.6,0.5-3.4c0-0.4,0-0.7,0-0.9C457.7,251.4,457.8,251.3,457.8,251.3z"/>
			</g>
		</g>
		<g>
			<g>
				<path class="st1" d="M449.7,294.9c-0.1,0.1-1.9-0.9-5.2-1.8c-0.8-0.2-1.7-0.5-2.7-0.6c-1-0.2-2-0.3-3.1-0.5
					c-2.2-0.2-4.7-0.2-7.3,0c-2.6,0.3-5,0.9-7.1,1.6c-1,0.4-2.1,0.7-3,1.2c-0.9,0.4-1.7,0.8-2.5,1.2c-3,1.6-4.6,3-4.6,2.9
					c0,0,0.4-0.4,1.1-1c0.4-0.3,0.8-0.7,1.4-1.1c0.6-0.4,1.2-0.9,1.9-1.3c0.7-0.4,1.6-0.9,2.5-1.3c0.9-0.5,1.9-0.8,3-1.2
					c2.2-0.7,4.6-1.3,7.2-1.6c2.6-0.3,5.1-0.2,7.4,0c1.1,0.2,2.2,0.3,3.2,0.5c1,0.2,1.9,0.5,2.7,0.7c0.8,0.2,1.5,0.5,2.2,0.8
					c0.6,0.2,1.2,0.5,1.6,0.7C449.3,294.6,449.8,294.8,449.7,294.9z"/>
			</g>
		</g>
		<g>
			<g>
				<path class="st1" d="M446.7,172.3c0,0-0.5,0.4-1.4,1c-0.9,0.6-2.3,1.4-4.1,2.4c-3.5,1.9-8.6,4.1-14.5,5.7
					c-5.9,1.6-11.4,2.2-15.4,2.4c-2,0.1-3.6,0.1-4.7,0c-1.1-0.1-1.7-0.1-1.7-0.2c0,0,0.6-0.1,1.7-0.1c1.1,0,2.7-0.1,4.7-0.2
					c4-0.2,9.4-0.9,15.3-2.5c5.9-1.6,10.9-3.7,14.5-5.5c1.8-0.9,3.2-1.6,4.2-2.2C446.2,172.5,446.7,172.3,446.7,172.3z"/>
			</g>
		</g>
		<g>
			<g>
				<path class="st1" d="M452.2,149.9c0,0.1-1.1-0.1-3-0.1c-1.9,0-4.7,0.2-7.9,1.3c-1.6,0.5-3.3,1.3-5,2.3c-0.9,0.5-1.7,1.1-2.5,1.8
					c-0.8,0.7-1.6,1.4-2.3,2.2c-0.7,0.9-1.2,1.9-1.4,3c-0.2,1.1,0.2,2.3,1,3.1c0.8,0.8,2,1.3,3.2,1.6c1.2,0.3,2.5,0.7,3.6,0.4
					c1.2-0.3,1.9-1.4,2-2.6c0.1-1.2-0.2-2.4-0.7-3.5c-1-2.2-2.9-3.8-4.8-4.8c-1.9-1.1-4.1-1.5-6-1.6c-2,0-3.8,0.3-5.4,0.8
					c-3.2,1-5.5,2.6-7.1,3.7c-0.8,0.6-1.3,1-1.7,1.4c-0.4,0.3-0.6,0.5-0.6,0.5c0,0,0.2-0.2,0.5-0.6c0.4-0.3,0.9-0.8,1.7-1.5
					c1.5-1.2,3.8-2.8,7.1-4c1.6-0.6,3.5-0.9,5.6-0.9c2,0.1,4.2,0.6,6.3,1.6c2,1.1,4,2.8,5.1,5.1c0.6,1.1,0.9,2.4,0.8,3.8
					c-0.1,0.7-0.3,1.4-0.7,1.9c-0.4,0.6-1,1-1.7,1.2c-1.4,0.3-2.7-0.1-4-0.4c-1.2-0.4-2.5-0.8-3.4-1.8c-1-0.9-1.4-2.3-1.2-3.6
					c0.2-1.2,0.8-2.3,1.6-3.2c0.7-0.9,1.6-1.7,2.4-2.3c0.9-0.7,1.7-1.3,2.6-1.8c1.8-1,3.5-1.8,5.2-2.3c3.3-1,6.1-1.2,8-1.1
					c1,0,1.7,0.1,2.2,0.2C451.9,149.8,452.2,149.9,452.2,149.9z"/>
			</g>
		</g>
	</g>
	<g>
		<g>
			<g>
				<g>
					<polygon class="st1" points="176.3,83.3 176.3,168 54.7,168 50.3,83.9 					"/>
				</g>
			</g>
		</g>
		<g>
			<g>
				<g>
					
						<rect x="69.2" y="65" transform="matrix(6.123234e-17 -1 1 6.123234e-17 -14.7343 236.9527)" class="st2" width="83.9" height="121.6"/>
				</g>
			</g>
			<g>
				<g>
					<path class="st1" d="M172.5,168.4H49.7v-85h122.8V168.4z M50.9,167.2h120.4V84.5H50.9V167.2z"/>
				</g>
			</g>
		</g>
		<g>
			<g>
				<g>
					<g>
						<rect x="63.5" y="94.3" class="st2" width="95.3" height="63"/>
					</g>
				</g>
			</g>
			<g>
				<g>
					<g>
						<g>
							<path class="st1" d="M158.7,94.3c0,0-0.2,0-0.5,0c-0.3,0-0.8,0-1.4,0c-1.2,0-3,0-5.2,0c-4.6,0-11.2,0-19.6,0.1
								c-16.8,0-40.6,0.1-68.6,0.1l0.3-0.3c0,19.3,0,40.6,0,63v0l-0.3-0.3c35.9,0,69.1,0,95.3,0.1l-0.2,0.2
								c0.1-19.2,0.1-34.9,0.1-45.9c0-5.5,0-9.8,0.1-12.7c0-1.4,0-2.6,0-3.3C158.7,94.7,158.7,94.3,158.7,94.3s0,0.4,0,1.1
								c0,0.8,0,1.9,0,3.3c0,2.9,0,7.2,0.1,12.6c0,11,0.1,26.8,0.1,46l0,0.2l-0.2,0c-26.2,0-59.3,0-95.3,0.1l-0.3,0v-0.3v0
								c0-22.4,0-43.8,0-63l0-0.3l0.3,0c28.1,0.1,51.9,0.1,68.8,0.1c8.4,0,15,0.1,19.6,0.1c2.2,0,4,0,5.2,0c0.6,0,1,0,1.3,0
								C158.6,94.3,158.7,94.3,158.7,94.3z"/>
						</g>
					</g>
				</g>
			</g>
		</g>
		<g>
			<g>
				<g>
					<g>
						<path class="st1" d="M50.3,83.7c0.1-0.1,0.8,0.5,2.1,1.4c1.2,0.9,2.9,2.2,4.8,3.6c1.8,1.5,3.4,2.8,4.6,3.9
							c1.1,1,1.8,1.7,1.7,1.8c-0.1,0.1-3-2.3-6.7-5.2C53.1,86.2,50.2,83.8,50.3,83.7z"/>
					</g>
				</g>
			</g>
		</g>
		<g>
			<g>
				<g>
					<g>
						<path class="st1" d="M171.9,83.9c0.1,0.1-2.8,2.6-6.4,5.4c-3.6,2.9-6.7,5.1-6.8,5c-0.1-0.1,2.8-2.6,6.4-5.4
							C168.8,86,171.8,83.8,171.9,83.9z"/>
					</g>
				</g>
			</g>
		</g>
		<g>
			<g>
				<g>
					<g>
						<path class="st2" d="M171.8,167.8c-4.5-3.7-9-7.3-13.6-11"/>
					</g>
				</g>
			</g>
			<g>
				<g>
					<g>
						<g>
							<path class="st1" d="M158.3,156.8c0.1-0.1,3.2,2.2,7,5.3c3.7,3,6.7,5.6,6.6,5.7c-0.1,0.1-3.2-2.2-7-5.3
								C161.1,159.5,158.2,156.9,158.3,156.8z"/>
						</g>
					</g>
				</g>
			</g>
		</g>
		<g>
			<g>
				<g>
					<g>
						<path class="st1" d="M50.3,167.8c-0.1-0.1,2.7-2.5,6.3-5.4c3.6-2.8,6.6-5,6.7-4.9c0.1,0.1-2.7,2.5-6.3,5.4
							C53.4,165.7,50.4,167.9,50.3,167.8z"/>
					</g>
				</g>
			</g>
		</g>
		<g>
			<g>
				<g>
					
						<rect x="102.2" y="94.5" transform="matrix(6.123234e-17 -1 1 6.123234e-17 -11.7275 237.3085)" class="st1" width="21.1" height="59.9"/>
				</g>
			</g>
		</g>
	</g>
	<g>
		<g>
			<g>
				<g>
					<g>
						<g>
							<g>
								<g>
									<g>
										<rect x="224.3" y="29.6" class="st1" width="95.9" height="99.9"/>
									</g>
								</g>
							</g>
						</g>
					</g>
				</g>
			</g>
		</g>
		<g>
			<g>
				<g>
					<g>
						<g>
							<g>
								<g>
									<g>
										<rect x="217.8" y="29.6" class="st3" width="95.9" height="99.9"/>
									</g>
								</g>
							</g>
						</g>
					</g>
				</g>
			</g>
			<g>
				<g>
					<g>
						<g>
							<g>
								<g>
									<g>
										<path class="st1" d="M313.7,129.6h-95.9v-100h95.9V129.6z M217.8,129.5h95.8V29.6h-95.8V129.5z"/>
									</g>
								</g>
							</g>
						</g>
					</g>
				</g>
			</g>
		</g>
		<g>
			<g>
				<g>
					<g>
						<g>
							<g>
								<g>
									<g>
										<rect x="230.7" y="43" class="st3" width="70.1" height="73.1"/>
									</g>
								</g>
							</g>
						</g>
					</g>
				</g>
			</g>
		</g>
		<g>
			<g>
				<g>
					<g>
						<g>
							<g>
								<g>
									<g>
										<g>
											<path class="st1" d="M230.7,116.6c0.1,0.1-0.6,0.8-1.7,2c-1.1,1.2-2.7,2.8-4.5,4.5c-1.8,1.7-3.4,3.3-4.6,4.4
												c-1.2,1.1-2,1.7-2,1.7c-0.1-0.1,0.6-0.8,1.7-2c1.1-1.2,2.7-2.8,4.5-4.5c1.8-1.7,3.4-3.3,4.6-4.4
												C229.8,117.2,230.6,116.5,230.7,116.6z"/>
										</g>
									</g>
								</g>
							</g>
						</g>
					</g>
				</g>
			</g>
		</g>
		<g>
			<g>
				<g>
					<g>
						<g>
							<g>
								<g>
									<g>
										<g>
											<path class="st1" d="M300.8,116.4c0.1-0.1,0.8,0.6,2,1.7c1.2,1.1,2.8,2.7,4.5,4.5c1.7,1.8,3.3,3.4,4.4,4.6
												c1.1,1.2,1.7,2,1.7,2c-0.1,0.1-0.8-0.6-2-1.7c-1.2-1.1-2.8-2.7-4.5-4.5c-1.7-1.8-3.3-3.4-4.4-4.6
												C301.3,117.2,300.7,116.5,300.8,116.4z"/>
										</g>
									</g>
								</g>
							</g>
						</g>
					</g>
				</g>
			</g>
		</g>
		<g>
			<g>
				<g>
					<g>
						<g>
							<g>
								<g>
									<g>
										<g>
											<path class="st1" d="M300.6,43.2c-0.1-0.1,0.6-0.8,1.7-2c1.1-1.2,2.7-2.8,4.5-4.5c1.8-1.7,3.4-3.3,4.6-4.4
												c1.2-1.1,2-1.7,2-1.7c0.1,0.1-0.6,0.8-1.7,2c-1.1,1.2-2.7,2.8-4.5,4.5c-1.8,1.7-3.4,3.3-4.6,4.4
												C301.4,42.7,300.6,43.3,300.6,43.2z"/>
										</g>
									</g>
								</g>
							</g>
						</g>
					</g>
				</g>
			</g>
		</g>
		<g>
			<g>
				<g>
					<g>
						<g>
							<g>
								<g>
									<g>
										<g>
											<path class="st1" d="M230.5,43.4c-0.1,0.1-0.8-0.6-2-1.7c-1.2-1.1-2.8-2.7-4.5-4.5c-1.7-1.8-3.3-3.4-4.4-4.6
												c-1.1-1.2-1.7-2-1.7-2c0.1-0.1,0.8,0.6,2,1.7c1.2,1.1,2.8,2.7,4.5,4.5c1.7,1.8,3.3,3.4,4.4,4.6
												C229.9,42.6,230.5,43.4,230.5,43.4z"/>
										</g>
									</g>
								</g>
							</g>
						</g>
					</g>
				</g>
			</g>
		</g>
		<g>
			<g>
				<g>
					<g>
						<g>
							<g>
								<g>
									<g>
										<g>
											<path class="st1" d="M300.6,116.1c0,0,0-0.1,0-0.4c0-0.2,0-0.6,0-1c0-0.9,0-2.2,0-3.9c0-3.5,0-8.5-0.1-14.9
												c0-12.8-0.1-31-0.1-52.9l0.3,0.3c-20.4,0-44.4,0-69.9,0h0L231,43c0,26.8,0,51.9,0,73.1l-0.3-0.3
												c20.9,0.1,38.4,0.1,50.6,0.1c6.1,0,10.9,0.1,14.2,0.1c1.6,0,2.9,0,3.8,0c0.4,0,0.7,0,1,0
												C300.5,116.1,300.6,116.1,300.6,116.1c0,0-0.1,0-0.3,0c-0.2,0-0.5,0-0.9,0c-0.9,0-2.1,0-3.7,0c-3.3,0-8.1,0-14.2,0.1
												c-12.3,0-29.8,0.1-50.8,0.1l-0.3,0l0-0.3c0-21.2,0-46.2,0-73.1l0-0.3h0.3h0c25.5,0,49.5,0,69.9,0h0.3l0,0.3
												c-0.1,21.9-0.1,40.2-0.1,53c0,6.4-0.1,11.4-0.1,14.8c0,1.7,0,3,0,3.9c0,0.4,0,0.7,0,1C300.6,116,300.6,116.1,300.6,116.1
												z"/>
										</g>
									</g>
								</g>
							</g>
						</g>
					</g>
				</g>
			</g>
		</g>
		<g>
			<g>
				<g>
					<g>
						<g>
							<g>
								<g>
									<g>
										<rect x="254" y="67.9" class="st4" width="23.4" height="23.4"/>
									</g>
								</g>
							</g>
						</g>
					</g>
				</g>
			</g>
		</g>
	</g>
	<g>
		<g>
			<g>
				<path class="st1" d="M452.2,371.9c0,0.1-3.6,0.2-8,0.2c-4.4,0-8-0.1-8-0.2c0-0.1,3.6-0.2,8-0.2
					C448.6,371.7,452.2,371.8,452.2,371.9z"/>
			</g>
			<g>
				<path class="st1" d="M453.3,367.4c0,0.1-4.2,0.2-9.5,0.2c-5.2,0-9.5-0.1-9.5-0.2c0-0.1,4.2-0.2,9.5-0.2
					C449.1,367.1,453.3,367.2,453.3,367.4z"/>
			</g>
			<g>
				<path class="st1" d="M447.2,362.2c0,0.1-3.4,0.2-7.6,0.2c-4.2,0-7.6-0.1-7.6-0.2c0-0.1,3.4-0.2,7.6-0.2
					C443.8,362,447.2,362.1,447.2,362.2z"/>
			</g>
			<g>
				<path class="st1" d="M449.2,353.9c0,0.1-4.6,0.2-10.2,0.2c-5.6,0-10.2-0.1-10.2-0.2c0-0.1,4.6-0.2,10.2-0.2
					C444.7,353.7,449.2,353.8,449.2,353.9z"/>
			</g>
			<g>
				<path class="st1" d="M449.1,349.6c0,0.1-4.5,0.2-10.1,0.2c-5.6,0-10.1-0.1-10.1-0.2c0-0.1,4.5-0.2,10.1-0.2
					C444.6,349.3,449.1,349.4,449.1,349.6z"/>
			</g>
			<g>
				<path class="st1" d="M447.5,344.2c0,0.1-4.8,0.2-10.7,0.2c-5.9,0-10.7-0.1-10.7-0.2c0-0.1,4.8-0.2,10.7-0.2
					C442.7,343.9,447.5,344,447.5,344.2z"/>
			</g>
			<g>
				<path class="st1" d="M443.6,336.9c0,0.1-4.4,0.2-9.9,0.2c-5.4,0-9.9-0.1-9.9-0.2c0-0.1,4.4-0.2,9.9-0.2
					C439.1,336.7,443.6,336.8,443.6,336.9z"/>
			</g>
			<g>
				<path class="st1" d="M453.8,377.7c0,0.1-4.4,0.2-9.9,0.2c-5.4,0-9.9-0.1-9.9-0.2c0-0.1,4.4-0.2,9.9-0.2
					C449.4,377.5,453.8,377.6,453.8,377.7z"/>
			</g>
			<g>
				<path class="st1" d="M455.2,386.2c0,0.1-4.3,0.2-9.7,0.2c-5.4,0-9.7-0.1-9.7-0.2c0-0.1,4.3-0.2,9.7-0.2
					C450.9,386,455.2,386.1,455.2,386.2z"/>
			</g>
			<g>
				<path class="st1" d="M456.8,391.2c0,0.1-4.2,0.2-9.5,0.2c-5.2,0-9.5-0.1-9.5-0.2c0-0.1,4.2-0.2,9.5-0.2
					C452.6,390.9,456.8,391.1,456.8,391.2z"/>
			</g>
			<g>
				<path class="st1" d="M461.5,396c0,0.1-4.7,0.2-10.5,0.2c-5.8,0-10.5-0.1-10.5-0.2c0-0.1,4.7-0.2,10.5-0.2
					C456.8,395.7,461.5,395.8,461.5,396z"/>
			</g>
			<g>
				<path class="st1" d="M462.3,403.6c0,0.1-4.2,0.2-9.4,0.2c-5.2,0-9.4-0.1-9.4-0.2c0-0.1,4.2-0.2,9.4-0.2
					C458.1,403.4,462.3,403.5,462.3,403.6z"/>
			</g>
			<g>
				<path class="st1" d="M463.9,407.6c0,0.1-4.2,0.6-9.4,1.1c-5.2,0.4-9.4,0.7-9.4,0.6c0-0.1,4.2-0.6,9.4-1.1
					C459.7,407.7,463.9,407.5,463.9,407.6z"/>
			</g>
			<g>
				<path class="st1" d="M465.5,413.4c0,0.1-4.7,0.3-10.5,0.4c-5.8,0.1-10.5,0-10.5-0.1c0-0.1,4.7-0.3,10.5-0.4
					C460.8,413.2,465.5,413.3,465.5,413.4z"/>
			</g>
			<g>
				<path class="st1" d="M465.8,420.7c0,0.1-4.2,0.6-9.4,1.1c-5.2,0.4-9.5,0.7-9.5,0.6c0-0.1,4.2-0.6,9.4-1.1
					C461.5,420.8,465.8,420.6,465.8,420.7z"/>
			</g>
			<g>
				<path class="st1" d="M464.8,427.5c0,0.1-1,0.3-2.6,0.6c-1.6,0.3-3.8,0.7-6.3,1.2c-2.4,0.5-4.6,1-6.2,1.3
					c-1.6,0.4-2.6,0.6-2.6,0.5c0-0.1,0.9-0.4,2.5-0.8c1.6-0.4,3.8-1,6.2-1.5c2.4-0.5,4.7-0.9,6.3-1.1
					C463.8,427.5,464.8,427.4,464.8,427.5z"/>
			</g>
			<g>
				<path class="st1" d="M468,435.4c0,0.1-1,0.1-2.7,0.2c-1.6,0.1-3.9,0.2-6.4,0.4c-2.5,0.2-4.8,0.5-6.4,0.7
					c-1.6,0.2-2.6,0.4-2.7,0.3c0-0.1,1-0.3,2.6-0.6c1.6-0.3,3.9-0.7,6.4-0.9c2.5-0.2,4.8-0.3,6.5-0.3C467,435.3,468,435.3,468,435.4
					z"/>
			</g>
			<g>
				<path class="st1" d="M471.2,442.3c0,0.1-1.1,0-2.8,0c-1.7,0-4.1-0.1-6.7,0c-2.6,0.1-5,0.3-6.7,0.4c-1.7,0.1-2.8,0.2-2.8,0.2
					c0-0.1,1-0.3,2.7-0.5c1.7-0.2,4.1-0.5,6.7-0.6c2.6-0.1,5,0,6.7,0.1C470.1,442.1,471.2,442.3,471.2,442.3z"/>
			</g>
			<g>
				<path class="st1" d="M471.8,448.4c0,0.1-1.2,0-3-0.1c-1.9-0.1-4.4-0.2-7.3-0.2c-2.9,0-5.4,0.1-7.3,0.1c-1.9,0.1-3,0.1-3,0.1
					c0-0.1,1.1-0.2,3-0.4c1.9-0.2,4.5-0.3,7.3-0.3c2.9,0,5.5,0.2,7.3,0.4C470.6,448.2,471.8,448.3,471.8,448.4z"/>
			</g>
			<g>
				<path class="st1" d="M473.2,454c0,0.1-4.5,0.4-10,0.6c-5.5,0.2-10,0.2-10,0.1c0-0.1,4.5-0.4,10-0.6
					C468.7,453.9,473.2,453.8,473.2,454z"/>
			</g>
			<g>
				<path class="st1" d="M473.8,458.7c0,0.1-4.5,0.4-10.2,0.7c-5.6,0.2-10.2,0.3-10.2,0.2c0-0.1,4.5-0.4,10.2-0.7
					C469.3,458.7,473.8,458.6,473.8,458.7z"/>
			</g>
			<g>
				<path class="st1" d="M477.8,466.8c0,0.1-1.3,0-3.4,0c-2.1,0-5,0-8.3,0.2c-3.2,0.2-6.1,0.5-8.2,0.8c-2.1,0.3-3.4,0.5-3.4,0.4
					c0,0,0.3-0.1,0.9-0.3c0.6-0.1,1.4-0.3,2.5-0.5c2.1-0.4,5-0.8,8.2-1c3.2-0.2,6.2-0.2,8.3-0.1c1.1,0,1.9,0.1,2.5,0.2
					C477.5,466.7,477.8,466.7,477.8,466.8z"/>
			</g>
			<g>
				<path class="st1" d="M478.9,472.1c0,0.1-4.9,0.5-10.9,0.8c-6.1,0.3-11,0.4-11,0.3s4.9-0.5,10.9-0.8
					C474,472.1,478.9,472,478.9,472.1z"/>
			</g>
		</g>
		<g>
			<g>
				<path class="st1" d="M108.8,341.7c0,0.1-1.1,0.2-2.9,0.4c-1.8,0.1-4.3,0.3-7,0.2c-2.7,0-5.2-0.2-7-0.4c-1.8-0.2-2.9-0.4-2.9-0.4
					c0-0.1,1.1,0,2.9,0.1c1.8,0.1,4.3,0.2,7,0.2c2.7,0,5.2,0,7-0.1C107.7,341.7,108.8,341.7,108.8,341.7z"/>
			</g>
			<g>
				<path class="st1" d="M113,336.6c0,0.1-5.2,0.4-11.5,0.5c-6.4,0.1-11.5,0.1-11.5,0c0-0.1,5.2-0.4,11.5-0.5
					C107.9,336.5,113,336.5,113,336.6z"/>
			</g>
			<g>
				<path class="st1" d="M103.6,347.4c0,0.1-1.2,0.2-3.2,0.3c-2,0.1-4.8,0.2-7.8,0.2c-3,0-5.8-0.2-7.8-0.3c-2-0.2-3.2-0.3-3.2-0.4
					c0-0.1,1.2,0,3.2,0c2,0.1,4.7,0.2,7.8,0.2c3,0,5.8,0,7.8-0.1C102.4,347.3,103.6,347.3,103.6,347.4z"/>
			</g>
			<g>
				<path class="st1" d="M105,355.3c0,0.1-5.9,0.1-13.2,0c-7.3-0.1-13.2-0.4-13.2-0.5c0-0.1,5.9-0.1,13.2,0
					C99.1,355,105,355.2,105,355.3z"/>
			</g>
			<g>
				<path class="st1" d="M99.2,359.6c0,0-0.3,0.1-0.9,0.2c-0.6,0.1-1.4,0.2-2.5,0.2c-2.1,0.2-5.1,0.3-8.3,0.2
					c-3.2-0.1-6.2-0.3-8.3-0.5c-1.1-0.1-1.9-0.2-2.5-0.3c-0.6-0.1-0.9-0.2-0.9-0.2c0-0.1,1.3,0,3.4,0.2c2.1,0.1,5,0.3,8.3,0.4
					c3.2,0.1,6.2,0,8.3-0.1C97.9,359.6,99.2,359.5,99.2,359.6z"/>
			</g>
			<g>
				<path class="st1" d="M99.2,365.2c0,0.1-1.3-0.2-3.5-0.6c-2.1-0.4-5.1-0.8-8.4-1.1c-3.3-0.3-6.3-0.3-8.5-0.3
					c-2.2,0-3.5,0.1-3.5,0c0,0,0.3-0.1,0.9-0.2c0.6-0.1,1.5-0.1,2.6-0.2c2.2-0.1,5.2-0.1,8.5,0.1c3.3,0.3,6.3,0.8,8.4,1.2
					c1.1,0.2,1.9,0.4,2.5,0.6C98.9,365.1,99.2,365.2,99.2,365.2z"/>
			</g>
			<g>
				<path class="st1" d="M95.8,372.2c0,0-0.4,0-1.1-0.2c-0.8-0.2-1.8-0.4-3.1-0.6c-2.6-0.5-6.1-1.2-10.1-1.8
					c-4-0.6-7.6-1.1-10.2-1.4c-1.2-0.2-2.3-0.3-3.1-0.4c-0.7-0.1-1.1-0.2-1.1-0.2c0,0,0.4,0,1.1,0c0.7,0,1.8,0.1,3.1,0.2
					c2.6,0.2,6.2,0.7,10.2,1.3c4,0.6,7.5,1.4,10.1,2c1.3,0.3,2.3,0.6,3,0.7C95.4,372,95.8,372.1,95.8,372.2z"/>
			</g>
			<g>
				<path class="st1" d="M92.6,378.6c0,0.1-5.3,0.1-11.8-0.1c-6.5-0.2-11.8-0.4-11.8-0.6c0-0.1,5.3-0.1,11.8,0.1
					C87.3,378.2,92.6,378.4,92.6,378.6z"/>
			</g>
			<g>
				<path class="st1" d="M85.4,385.6c0,0.1-5.3,0.2-11.9,0.2c-6.6,0-11.9-0.2-11.9-0.3c0-0.1,5.3-0.2,11.9-0.2
					C80,385.3,85.4,385.4,85.4,385.6z"/>
			</g>
			<g>
				<path class="st1" d="M83,393.4c0,0.1-1.3-0.1-3.3-0.3c-2.1-0.2-4.9-0.5-8.1-0.7c-3.2-0.2-6-0.3-8.1-0.4
					c-2.1-0.1-3.4-0.1-3.4-0.2c0,0,0.3-0.1,0.9-0.1c0.6,0,1.4-0.1,2.5-0.1c2.1,0,4.9,0,8.1,0.2c3.2,0.2,6,0.5,8.1,0.8
					c1,0.2,1.9,0.3,2.4,0.4C82.7,393.3,83,393.4,83,393.4z"/>
			</g>
			<g>
				<path class="st1" d="M80,398.8c0,0-0.3,0.1-0.9,0.1c-0.6,0-1.5,0.1-2.5,0.1c-2.1,0-5.1,0-8.3-0.3c-3.2-0.2-6.2-0.6-8.3-0.9
					c-1.1-0.2-1.9-0.3-2.5-0.4c-0.6-0.1-0.9-0.2-0.9-0.2c0-0.1,1.3,0.1,3.4,0.3c2.1,0.2,5,0.5,8.3,0.8c3.2,0.2,6.2,0.4,8.3,0.4
					C78.6,398.7,80,398.7,80,398.8z"/>
			</g>
			<g>
				<path class="st1" d="M74.2,405.2c0,0.1-1.1,0-2.8-0.2c-1.7-0.2-4-0.4-6.6-0.6c-2.6-0.2-5-0.3-6.7-0.3c-1.7-0.1-2.8-0.1-2.8-0.2
					c0-0.1,1.1-0.2,2.8-0.2c1.7,0,4.1,0,6.7,0.2c2.6,0.2,5,0.5,6.7,0.7C73.1,404.9,74.2,405.1,74.2,405.2z"/>
			</g>
			<g>
				<path class="st1" d="M73.1,413.6c0,0.1-1.2-0.2-3.2-0.6c-2-0.4-4.7-1-7.8-1.6c-3-0.6-5.8-1-7.8-1.3c-2-0.3-3.2-0.5-3.2-0.6
					c0,0,0.3,0,0.9,0c0.6,0,1.4,0.1,2.4,0.2c2,0.2,4.8,0.6,7.9,1.2c3,0.6,5.8,1.2,7.7,1.7c1,0.3,1.8,0.5,2.3,0.7
					C72.9,413.5,73.2,413.6,73.1,413.6z"/>
			</g>
			<g>
				<path class="st1" d="M63.7,418.8c0,0.1-1-0.1-2.7-0.4c-1.6-0.3-3.9-0.7-6.4-1c-2.5-0.3-4.8-0.6-6.5-0.7
					c-1.7-0.2-2.7-0.2-2.7-0.3c0-0.1,1-0.1,2.7,0c1.7,0.1,4,0.2,6.5,0.6c2.5,0.3,4.8,0.8,6.4,1.1C62.8,418.5,63.8,418.8,63.7,418.8z
					"/>
			</g>
			<g>
				<path class="st1" d="M62.1,423.6c0,0.1-1.2-0.1-3.2-0.3c-2-0.2-4.7-0.6-7.8-0.9c-3-0.3-5.8-0.5-7.8-0.6c-2-0.1-3.2-0.2-3.2-0.3
					c0-0.1,1.2-0.1,3.2,0c2,0.1,4.8,0.2,7.8,0.5c3,0.3,5.8,0.7,7.8,1C60.9,423.2,62.2,423.5,62.1,423.6z"/>
			</g>
			<g>
				<path class="st1" d="M59.7,429.3c0,0.1-1.2,0-3.1,0c-1.9,0-4.5-0.1-7.4,0c-2.9,0-5.5,0.1-7.4,0.2c-1.9,0.1-3,0.1-3.1,0.1
					c0-0.1,1.2-0.2,3-0.4c1.9-0.2,4.5-0.3,7.4-0.4c2.9,0,5.5,0.1,7.4,0.2C58.6,429.1,59.7,429.3,59.7,429.3z"/>
			</g>
			<g>
				<path class="st1" d="M60.3,435.6c0,0.1-1,0-2.6-0.1c-1.6-0.1-3.9-0.2-6.4-0.2c-2.5,0-4.7,0.2-6.4,0.4c-1.6,0.2-2.6,0.3-2.6,0.2
					c0-0.1,1-0.3,2.6-0.6c1.6-0.3,3.9-0.5,6.4-0.5c2.5,0,4.8,0.1,6.4,0.3C59.4,435.4,60.3,435.6,60.3,435.6z"/>
			</g>
			<g>
				<path class="st1" d="M52.7,443c0,0.1-1-0.2-2.6-0.5c-1.6-0.3-3.8-0.7-6.2-1c-2.4-0.3-4.7-0.4-6.3-0.5c-1.6-0.1-2.6-0.1-2.6-0.1
					c0-0.1,1-0.2,2.6-0.2c1.6,0,3.9,0,6.3,0.3c2.5,0.3,4.6,0.8,6.2,1.2C51.8,442.6,52.7,443,52.7,443z"/>
			</g>
			<g>
				<path class="st1" d="M47.1,451.5c0,0.1-4.5,0.2-10,0c-5.5-0.1-10-0.3-10-0.5c0-0.1,4.5-0.2,10,0
					C42.6,451.2,47.1,451.4,47.1,451.5z"/>
			</g>
			<g>
				<path class="st1" d="M42.3,456.4c0,0.1-2.2,0-4.8-0.4c-2.7-0.4-4.8-0.8-4.8-0.9c0-0.1,2.2,0,4.8,0.4
					C40.2,455.9,42.3,456.3,42.3,456.4z"/>
			</g>
			<g>
				<path class="st1" d="M44.5,465.9c0,0.1-1.1-0.1-2.8-0.4c-1.7-0.3-4-0.7-6.6-1c-2.6-0.4-5-0.6-6.7-0.8c-1.7-0.2-2.8-0.3-2.8-0.4
					c0-0.1,1.1-0.1,2.8,0c1.7,0.1,4.1,0.3,6.7,0.7c2.6,0.4,5,0.8,6.6,1.2C43.5,465.6,44.5,465.9,44.5,465.9z"/>
			</g>
		</g>
		<polygon class="st4" points="109.8,333.6 32.1,475 462.1,475.2 427.3,335.4 		"/>
		<polygon class="st3" points="44.7,452.2 456.4,452.2 450.5,428.6 55.1,433.3 		"/>
		<polygon class="st3" points="68.5,408.8 445.6,408.8 439.7,385.4 78.9,389.8 		"/>
		<polygon class="st3" points="92.3,365.3 434.7,365.3 428.9,341.7 102.8,346.4 		"/>
	</g>
</g>
<g id="Background_Simple" class="st5">
	<path class="st6" d="M350,410.5c-2.4-13.8-17.6-20.9-31.1-24.9c-52.9-15.7-109.4-19.4-163.9-10.6l-2.9,2
		c-8.5,2.9-11.2,14.4-7.7,22.6c3.5,8.2,11.2,13.8,18.7,18.7c24.4,15.9,51.1,29.1,79.7,34.8c28.6,5.7,59.4,3.3,85.2-10.4
		C340.2,436.2,352.3,424.2,350,410.5z"/>
	<path class="st6" d="M115.5,108.1l1.6-3.4c13.3-28.4,41-47.8,72.3-49.4c4-0.2,8.1-0.1,12.1,0.3c29,2.8,56,21.1,69.2,46.9
		c7.8,15.2,11.6,33.3,24.4,44.7c16.7,14.7,41.9,12.4,63.9,9.2c22-3.2,47.3-5.5,63.9,9.3c10.4,9.3,15,23.6,15.8,37.5
		c2.2,36.8-19.9,72.5-50.9,92.6c-31,20-69.5,25.9-106.3,22.8c-51.5-4.3-102.6-26.4-136.2-65.6C111.6,213.7,97.7,156.6,115.5,108.1z"
		/>
</g>
<g id="Plant">
	<g>
		<g>
			<g>
				<path class="st7" d="M89.1,208c-2.3-1-4.2-2.9-5.2-5.1c-0.4-0.9-0.4-2.4,0.6-2.6c0.6-0.1,1.2,0.4,1.6,0.8c1.5,1.5,3,3,4.5,4.5
					c-0.9-2.3-0.8-5.1,0.3-7.3c0.4-0.8,1.2-1.7,2-1.4c0.7,0.2,0.9,1.1,1,1.8c0.4,2.2,0.7,4.3,1.1,6.5c0.6-2.5,1.8-4.9,3.5-6.8
					c0.6-0.7,1.6-1.4,2.4-0.9c0.7,0.4,0.7,1.5,0.5,2.3c-0.4,2-0.9,4-1.7,5.9c1.9-1.7,4.4-2.7,7-2.8c0.8,0,1.6,0.1,2.1,0.7
					c0.7,0.9,0.1,2.2-0.7,3c-2.2,2.5-7.4,3.1-10.7,2.9"/>
			</g>
			<g>
				<path class="st8" d="M109.1,213.3c-8.1-6.4-22.2-7.2-31.6-3c-10.5,4.8-17.4,16-18.5,26.8c-1,10.2,3.9,20.6,8.1,30l40.7,0.2
					c4.9-8.1,10-17.1,10.3-26.5C118.5,231.3,116.5,219.2,109.1,213.3z"/>
			</g>
			<g>
				<g>
					<path class="st9" d="M90.8,207.7c0,0-0.1,0-0.2,0.1c-0.1,0-0.3,0.1-0.5,0.1c-0.2,0.1-0.5,0.1-0.9,0.2c-0.3,0.1-0.7,0.2-1.2,0.3
						c-1.8,0.5-4.2,1.5-6.9,3.3c-2.7,1.8-5.4,4.6-7.9,8.2c-1.2,1.8-2.3,3.8-3.3,5.9c-1,2.1-1.8,4.4-2.5,6.8
						c-1.4,4.8-1.4,9.6-0.7,13.8c0.7,4.2,2,7.9,3.1,11c1.1,3.1,2.1,5.5,2.8,7.2c0.3,0.8,0.6,1.5,0.8,2c0.1,0.2,0.1,0.4,0.2,0.5
						c0,0.1,0.1,0.2,0.1,0.2c0,0,0-0.1-0.1-0.2c-0.1-0.1-0.1-0.3-0.2-0.5c-0.2-0.5-0.5-1.1-0.8-1.9c-0.7-1.7-1.8-4.1-2.9-7.2
						c-1.2-3-2.4-6.7-3.2-11c-0.7-4.3-0.7-9.1,0.7-14c0.7-2.4,1.6-4.7,2.6-6.8c1-2.1,2.1-4.1,3.3-5.9c2.5-3.6,5.3-6.4,8-8.2
						c2.7-1.8,5.2-2.8,7-3.2c0.4-0.1,0.8-0.2,1.2-0.3c0.3-0.1,0.6-0.1,0.9-0.2c0.2,0,0.4-0.1,0.5-0.1
						C90.7,207.7,90.8,207.7,90.8,207.7z"/>
				</g>
			</g>
			<g>
				<g>
					<path class="st9" d="M102.7,267c0,0,0.1-0.2,0.2-0.6c0.2-0.4,0.4-1,0.6-1.7c0.5-1.5,1.3-3.6,2.2-6.3c0.9-2.7,1.9-5.9,2.8-9.5
						c0.9-3.6,1.6-7.7,1.8-12c0.2-4.3-0.3-8.4-1.2-12c-0.9-3.6-2.3-6.7-3.8-9.1c-1.5-2.4-3-4.1-4.2-5.2c-0.5-0.6-1-0.9-1.3-1.2
						c-0.3-0.3-0.5-0.4-0.5-0.4c0,0,0.2,0.1,0.5,0.4c0.3,0.3,0.8,0.6,1.4,1.2c1.2,1.1,2.8,2.8,4.3,5.2c1.6,2.4,3,5.5,3.9,9.1
						c1,3.6,1.5,7.8,1.3,12.1c-0.2,4.3-0.9,8.4-1.9,12.1c-0.9,3.6-2,6.9-2.9,9.5c-0.9,2.7-1.8,4.8-2.3,6.3c-0.3,0.7-0.5,1.3-0.7,1.7
						C102.8,266.8,102.7,267,102.7,267z"/>
				</g>
			</g>
			<g>
				<g>
					<path class="st9" d="M94.8,208c0,0,0,0.2-0.2,0.6c-0.1,0.4-0.3,1-0.5,1.7c-0.2,0.7-0.5,1.6-0.8,2.7c-0.3,1-0.7,2.2-1,3.6
						c-0.8,2.6-1.6,5.8-2.4,9.3c-0.8,3.5-1.5,7.5-2.2,11.6c-0.6,4.1-1,8.1-1.3,11.7c-0.1,1.8-0.2,3.5-0.2,5.1c0,0.8,0,1.6-0.1,2.3
						c0,0.7,0,1.5,0,2.2c0,1.4,0.1,2.6,0.1,3.7c0,1.1,0.1,2,0.1,2.8c0,0.7,0.1,1.3,0.1,1.8c0,0.4,0,0.6,0,0.6c0,0,0-0.2-0.1-0.6
						c0-0.4-0.1-1-0.2-1.8c-0.1-0.8-0.2-1.7-0.2-2.8c-0.1-1.1-0.1-2.3-0.1-3.7c0-0.7,0-1.4,0-2.2c0-0.8,0-1.5,0-2.3
						c0-1.6,0.1-3.3,0.2-5.2c0.2-3.6,0.6-7.6,1.2-11.8c0.6-4.1,1.4-8.1,2.2-11.6c0.8-3.5,1.7-6.7,2.5-9.3c0.4-1.3,0.8-2.5,1.1-3.5
						c0.3-1,0.6-1.9,0.9-2.7c0.3-0.7,0.4-1.3,0.6-1.7C94.7,208.2,94.8,208,94.8,208z"/>
				</g>
			</g>
			<g>
				<g>
					<path class="st9" d="M60.3,240.4c0,0.1-1.2,0.8-2.8,1.5c-1.6,0.7-2.9,1.2-2.9,1.1c0-0.1,1.2-0.8,2.8-1.5
						C59,240.8,60.3,240.3,60.3,240.4z"/>
				</g>
			</g>
			<g>
				<g>
					<path class="st9" d="M61.6,228.7c-0.1,0.1-1.4-0.6-3.1-1.5c-1.6-0.9-2.9-1.8-2.9-1.9c0.1-0.1,1.4,0.6,3.1,1.5
						C60.4,227.8,61.7,228.6,61.6,228.7z"/>
				</g>
			</g>
			<g>
				<g>
					<path class="st9" d="M69.1,219c-0.1,0-0.7-1-1.3-2.4c-0.6-1.4-1.1-2.5-1-2.6c0.1,0,0.7,1,1.3,2.4C68.7,217.9,69.1,219,69.1,219
						z"/>
				</g>
			</g>
			<g>
				<g>
					<path class="st9" d="M79.3,209.9c-0.1,0.1-0.7-0.7-1.5-1.7c-0.7-1-1.3-1.8-1.2-1.9c0.1-0.1,0.7,0.7,1.5,1.7
						C78.8,209,79.3,209.9,79.3,209.9z"/>
				</g>
			</g>
			<g>
				<g>
					<path class="st9" d="M64.9,254.7c0.1,0.1-1.2,0.9-2.9,1.8c-1.6,0.9-3,1.5-3,1.4c-0.1-0.1,1.2-0.9,2.9-1.8
						C63.5,255.3,64.9,254.6,64.9,254.7z"/>
				</g>
			</g>
			<g>
				<g>
					<path class="st9" d="M77.1,247.6c-0.1,0.1-1.2-0.5-2.6-1.2c-1.4-0.8-2.5-1.5-2.4-1.6c0.1-0.1,1.2,0.5,2.6,1.2
						C76.1,246.8,77.2,247.5,77.1,247.6z"/>
				</g>
			</g>
			<g>
				<g>
					<path class="st9" d="M80.5,231.3c0,0.1-1,0.8-2.5,1.3c-1.5,0.6-2.7,0.8-2.8,0.7c0-0.1,1.2-0.5,2.6-1.1
						C79.3,231.7,80.4,231.2,80.5,231.3z"/>
				</g>
			</g>
			<g>
				<g>
					<path class="st9" d="M84.4,219.1c-0.1,0-0.6-0.8-1.1-2c-0.4-1.2-0.5-2.2-0.4-2.2c0.1,0,0.4,0.9,0.8,2.1
						C84.1,218.1,84.5,219,84.4,219.1z"/>
				</g>
			</g>
			<g>
				<g>
					<path class="st9" d="M75.7,263.6c-0.1,0,0.4-1.3,1.1-2.7c0.7-1.5,1.3-2.6,1.4-2.6c0.1,0-0.4,1.3-1.1,2.7
						C76.5,262.5,75.8,263.6,75.7,263.6z"/>
				</g>
			</g>
			<g>
				<g>
					<path class="st9" d="M96.3,259.2c-0.1,0.1-1.2-0.8-2.4-2.1c-1.2-1.3-1.8-2.6-1.7-2.7c0.1-0.1,0.9,1.1,2,2.4
						C95.3,258.1,96.3,259.1,96.3,259.2z"/>
				</g>
			</g>
			<g>
				<g>
					<path class="st9" d="M103.4,241.3c0.1,0.1-1.2,0.9-2.8,1.8c-1.6,0.9-3,1.6-3,1.5c-0.1-0.1,1.2-0.9,2.8-1.8
						C102,241.9,103.3,241.2,103.4,241.3z"/>
				</g>
			</g>
			<g>
				<g>
					<path class="st9" d="M98.6,230.3c-0.1-0.1,0.9-1.1,2.2-2.3c1.3-1.2,2.4-2.1,2.5-2.1c0.1,0.1-0.9,1.1-2.2,2.3
						C99.8,229.4,98.7,230.3,98.6,230.3z"/>
				</g>
			</g>
			<g>
				<g>
					<path class="st9" d="M98.8,218.6c-0.1,0.1-1.1-0.6-2.2-1.6c-1.2-1-2.1-1.8-2-1.9c0.1-0.1,1.1,0.6,2.2,1.6
						C98,217.7,98.9,218.5,98.8,218.6z"/>
				</g>
			</g>
			<g>
				<g>
					<path class="st9" d="M112.4,210.8c0.1,0.1-0.9,0.8-2.2,1.7c-1.3,0.8-2.4,1.4-2.4,1.4c-0.1-0.1,0.9-0.8,2.2-1.7
						C111.2,211.4,112.3,210.8,112.4,210.8z"/>
				</g>
			</g>
			<g>
				<g>
					<path class="st9" d="M117.6,221.6c0,0.1-1,0.3-2.3,0.4c-1.3,0.1-2.3,0.1-2.4,0c0-0.1,1-0.3,2.3-0.4
						C116.5,221.4,117.6,221.5,117.6,221.6z"/>
				</g>
			</g>
			<g>
				<g>
					<path class="st9" d="M121,234.2c0,0.1-1.3,0.1-3-0.1c-1.6-0.2-2.9-0.4-2.9-0.5c0-0.1,1.3-0.1,3,0.1
						C119.7,233.9,121,234.1,121,234.2z"/>
				</g>
			</g>
			<g>
				<g>
					<path class="st9" d="M119.3,250.6c-0.1,0.1-1.3-1-2.7-2.5c-1.4-1.4-2.5-2.7-2.5-2.8c0.1-0.1,1.3,1,2.7,2.5
						C118.3,249.2,119.4,250.5,119.3,250.6z"/>
				</g>
			</g>
			<g>
				<g>
					<path class="st9" d="M114.9,263.1c-0.1,0.1-1.4-1-2.8-2.7c-1.4-1.6-2.2-3.1-2.1-3.2c0.1-0.1,1.1,1.3,2.4,2.9
						C113.8,261.8,115,263.1,114.9,263.1z"/>
				</g>
			</g>
			<g class="st10">
				<g>
					<path d="M99.3,208.8c0.1-0.1,0.9,0.3,2.2,1.2c1.3,0.9,3.1,2.5,4.9,4.8c1.8,2.3,3.5,5.5,4.5,9.2c1.1,3.7,1.6,8,1.5,12.4
						c-0.1,4.4-0.7,8.6-1.7,12.3c-0.9,3.7-2.1,6.9-3.3,9.6c-2.3,5.3-4.2,8.3-4.4,8.2c-0.3-0.1,1.2-3.3,3.1-8.7
						c1.9-5.3,4.2-12.9,4.3-21.5c0-4.3-0.4-8.4-1.3-11.9c-0.9-3.6-2.3-6.6-3.9-8.9c-1.5-2.3-3.1-3.9-4.3-5
						C99.9,209.6,99.2,209,99.3,208.8z"/>
				</g>
			</g>
			<g class="st10">
				<g>
					<path d="M94.5,207.4c0.3,0.1-0.3,3.4-1.3,8.8c-1,5.4-2.5,12.8-3.7,21c-0.6,4.1-1.1,8.1-1.5,11.6c-0.2,1.8-0.3,3.5-0.4,5.1
						c-0.1,1.6-0.2,3.1-0.3,4.5c-0.2,5.4-0.2,8.8-0.5,8.9c-0.2,0-0.8-3.4-0.9-8.9c0-1.4,0-2.9,0-4.5c0-1.6,0.1-3.4,0.3-5.2
						c0.3-3.6,0.7-7.6,1.3-11.8c1.3-8.3,3-15.7,4.3-21C93.3,210.6,94.3,207.3,94.5,207.4z"/>
				</g>
			</g>
			<g class="st10">
				<g>
					<path d="M89.7,206.9c0,0.1-0.9,0.5-2.5,1.2c-1.6,0.7-4,1.9-6.6,3.8c-2.6,1.8-5.4,4.4-7.8,7.8c-2.4,3.4-4.4,7.6-5.5,12.3
						c-0.5,2.3-0.7,4.7-0.8,7c0,2.3,0.2,4.5,0.5,6.6c0.6,4.2,1.7,7.9,2.7,10.9c1,3.1,1.9,5.5,2.5,7.2c0.6,1.7,0.9,2.7,0.8,2.7
						c-0.1,0.1-0.6-0.8-1.5-2.4c-0.8-1.6-1.9-4-3.1-7.1c-1.2-3.1-2.4-6.8-3.1-11.1c-0.4-2.2-0.6-4.5-0.6-6.8c0-2.4,0.2-4.9,0.8-7.4
						c1.1-5,3.3-9.4,5.9-13c2.6-3.5,5.7-6.1,8.5-7.9c2.8-1.8,5.3-2.8,7-3.3C88.7,207,89.7,206.8,89.7,206.9z"/>
				</g>
			</g>
		</g>
		<g>
			<g>
				<g>
					<polygon class="st7" points="62,274.8 68.5,317 105.8,317 114.5,275.4 					"/>
				</g>
			</g>
			<g>
				<g>
					<g>
						<g>
							<path class="st3" d="M109.3,301.9c0,0.1-9.6,0.2-21.4,0.2c-11.8,0-21.4-0.1-21.4-0.2c0-0.1,9.6-0.2,21.4-0.2
								C99.7,301.6,109.3,301.7,109.3,301.9z"/>
						</g>
					</g>
				</g>
				<g>
					<g>
						<g>
							<path class="st3" d="M109.4,299.8c0,0.1-9.6,0.2-21.5,0.2c-11.9,0-21.5-0.1-21.5-0.2c0-0.1,9.6-0.2,21.5-0.2
								C99.8,299.6,109.4,299.7,109.4,299.8z"/>
						</g>
					</g>
				</g>
				<g>
					<g>
						<g>
							<path class="st3" d="M109.3,297.4c0,0.1-9.6,0.2-21.5,0.2c-11.9,0-21.5-0.1-21.5-0.2c0-0.1,9.6-0.2,21.5-0.2
								C99.7,297.2,109.3,297.3,109.3,297.4z"/>
						</g>
					</g>
				</g>
				<g>
					<g>
						<g>
							<path class="st3" d="M72.7,314.6c-0.1,0-0.6-2.4-1.1-5.3c-0.5-3-0.8-5.4-0.7-5.4c0.1,0,0.6,2.4,1.1,5.3
								C72.5,312.2,72.9,314.6,72.7,314.6z"/>
						</g>
					</g>
				</g>
				<g>
					<g>
						<g>
							<path class="st3" d="M75.3,314.2c-0.1,0-0.3-2.3-0.5-5.2c-0.2-2.9-0.4-5.2-0.2-5.2c0.1,0,0.5,2.3,0.7,5.2
								C75.5,311.8,75.4,314.2,75.3,314.2z"/>
						</g>
					</g>
				</g>
				<g>
					<g>
						<g>
							<path class="st3" d="M79.9,314.2c-0.1,0-0.6-2.4-1-5.3c-0.4-3-0.4-5.4-0.3-5.4c0.1,0,0.4,2.4,0.7,5.4
								C79.7,311.8,80,314.2,79.9,314.2z"/>
						</g>
					</g>
				</g>
				<g>
					<g>
						<g>
							<path class="st3" d="M83.2,314.4c-0.1,0-0.4-2.4-0.5-5.4c-0.1-3,0-5.4,0.2-5.4c0.1,0,0.2,2.4,0.3,5.4
								C83.2,312,83.3,314.4,83.2,314.4z"/>
						</g>
					</g>
				</g>
				<g>
					<g>
						<g>
							<path class="st3" d="M88.9,314.2c-0.1,0-0.3-2.3-0.4-5.1c-0.1-2.8-0.1-5.1,0-5.1c0.1,0,0.3,2.3,0.4,5.1
								C89.1,311.9,89.1,314.2,88.9,314.2z"/>
						</g>
					</g>
				</g>
				<g>
					<g>
						<g>
							<path class="st3" d="M93.1,314.4c-0.1,0-0.2-2.4-0.2-5.3c0-2.9,0.1-5.3,0.3-5.3c0.1,0,0.2,2.4,0.2,5.3
								C93.4,312,93.3,314.4,93.1,314.4z"/>
						</g>
					</g>
				</g>
				<g>
					<g>
						<g>
							<path class="st3" d="M97.1,313.8c-0.1,0,0-2.5,0.3-5.5c0.3-3.1,0.6-5.5,0.8-5.5c0.1,0,0,2.5-0.3,5.6
								C97.5,311.4,97.2,313.9,97.1,313.8z"/>
						</g>
					</g>
				</g>
				<g>
					<g>
						<g>
							<path class="st3" d="M102.2,313.3c-0.1,0,0.1-2.1,0.6-4.7c0.6-2.6,1.3-4.6,1.4-4.6c0.1,0-0.4,2.1-1,4.6
								C102.7,311.2,102.3,313.3,102.2,313.3z"/>
						</g>
					</g>
				</g>
			</g>
			<g>
				<g>
					<path class="st7" d="M57.7,266.4v7.9c0,1.7,1.4,3.1,3.1,3.1H115c1.7,0,3.1-1.4,3.1-3.1v-7.9H57.7z"/>
				</g>
			</g>
			<g class="st11">
				<g>
					<polygon points="62.4,277.4 62.9,280 112.8,283.5 114.1,277.4 					"/>
				</g>
			</g>
		</g>
	</g>
</g>
<g id="Floor">
	<g>
		<path class="st9" d="M487.4,317.2c0,0.1-104.6,0.3-233.7,0.3c-129.1,0-233.7-0.1-233.7-0.3c0-0.1,104.6-0.3,233.7-0.3
			C382.8,317,487.4,317.1,487.4,317.2z"/>
	</g>
</g>
<g id="Speech_Bubble">
	<path class="st3" d="M336,139.3c0,1.6,1.3,2.9,2.9,2.9c1.6,0,2.9-1.3,2.9-2.9s-1.3-2.9-2.9-2.9C337.3,136.3,336,137.6,336,139.3z"
		/>
	<path class="st3" d="M342.6,128.8c0,3.2,2.6,5.8,5.8,5.8c3.2,0,5.8-2.6,5.8-5.8c0-3.2-2.6-5.8-5.8-5.8
		C345.2,123,342.6,125.6,342.6,128.8z"/>
	<circle class="st3" cx="392.7" cy="89.9" r="47.4"/>
	<g>
		<g>
			<circle class="st3" cx="392.6" cy="90.1" r="47.1"/>
			<g>
				<g>
					<g>
						<g>
							<g>
								<g>
									<g>
										<path class="st9" d="M349.1,123c0,0,0.5,0.1,1.3,0.4c0.8,0.3,2,1.1,2.8,2.4c0.4,0.7,0.8,1.5,0.9,2.4
											c0.1,0.9,0,1.9-0.5,2.9c-0.9,1.9-3,3.5-5.5,3.3c-2.4-0.2-4.4-2-5-4c-0.4-1-0.4-2-0.2-2.9c0.2-0.9,0.7-1.7,1.2-2.3
											c1-1.2,2.2-1.8,3.1-2.1c0.9-0.2,1.4-0.2,1.4-0.3c0,0-0.1,0-0.4,0c-0.1,0-0.3,0-0.4,0c-0.2,0-0.4,0-0.6,0.1
											c-0.9,0.2-2.2,0.8-3.3,2c-0.5,0.6-1,1.4-1.3,2.4c-0.2,1-0.2,2.1,0.1,3.1c0.4,1.1,1,2.1,2,2.8c0.9,0.8,2.1,1.3,3.4,1.4
											c1.3,0.1,2.6-0.3,3.6-1c1-0.7,1.8-1.6,2.3-2.6c0.5-1,0.6-2.1,0.5-3.1c-0.1-1-0.5-1.8-1-2.5c-0.9-1.4-2.2-2.1-3-2.4
											c-0.2-0.1-0.4-0.1-0.6-0.2c-0.2,0-0.3-0.1-0.4-0.1C349.2,123,349.1,123,349.1,123z"/>
									</g>
								</g>
							</g>
						</g>
					</g>
					<g>
						<g>
							<g>
								<g>
									<g>
										<path class="st9" d="M339.2,136.3c0,0,0.3,0,0.7,0.2c0.4,0.2,1,0.5,1.4,1.2c0.2,0.3,0.4,0.7,0.4,1.2c0,0.5,0,1-0.3,1.4
											c-0.4,0.9-1.5,1.7-2.7,1.7c-1.2-0.1-2.2-1-2.5-2c-0.2-0.5-0.2-1-0.1-1.5c0.1-0.5,0.3-0.8,0.6-1.1c0.5-0.6,1.1-0.9,1.5-1
											c0.4-0.1,0.7-0.1,0.7-0.1c0,0-0.1,0-0.2,0c-0.1,0-0.1,0-0.2,0c-0.1,0-0.2,0-0.3,0c-0.4,0.1-1.1,0.4-1.6,1
											c-0.3,0.3-0.5,0.7-0.6,1.2c-0.1,0.5-0.1,1,0.1,1.6c0.2,0.5,0.5,1,1,1.4c0.5,0.4,1.1,0.7,1.7,0.7c0.6,0,1.3-0.2,1.8-0.5
											c0.5-0.3,0.9-0.8,1.1-1.3c0.2-0.5,0.3-1.1,0.3-1.5c-0.1-0.5-0.3-0.9-0.5-1.3c-0.5-0.7-1.1-1.1-1.5-1.2
											c-0.1,0-0.2-0.1-0.3-0.1c-0.1,0-0.2,0-0.2,0C339.3,136.3,339.2,136.3,339.2,136.3z"/>
									</g>
								</g>
							</g>
						</g>
					</g>
					<g>
						<g>
							<g>
								<g>
									<g>
										<g>
											<path class="st9" d="M345.5,93.5c0,0,0-0.3,0-0.8c0-0.5,0-1.3,0-2.2c0-0.5,0-1,0-1.7c0-0.6,0.1-1.3,0.1-2
												c0.1-0.7,0.1-1.5,0.2-2.3c0-0.4,0.1-0.8,0.2-1.3c0.1-0.4,0.2-0.9,0.2-1.3c0.5-3.7,1.9-8.1,4.2-12.9
												c2.3-4.8,5.9-9.8,10.9-14.2c0.6-0.5,1.3-1.1,1.9-1.7c0.7-0.5,1.4-1,2.1-1.5c0.4-0.3,0.7-0.5,1.1-0.8
												c0.4-0.3,0.7-0.5,1.1-0.7c0.8-0.4,1.6-0.9,2.3-1.4c0.4-0.2,0.8-0.5,1.2-0.7c0.4-0.2,0.8-0.4,1.3-0.6
												c0.8-0.4,1.7-0.8,2.6-1.2c0.9-0.4,1.8-0.6,2.7-1c0.5-0.2,0.9-0.3,1.4-0.5c0.2-0.1,0.5-0.2,0.7-0.2l0.7-0.2
												c1.9-0.4,3.8-1,5.9-1.1c1-0.1,2-0.3,3-0.4c1,0,2.1-0.1,3.1-0.1c0.5,0,1,0,1.6,0c0.5,0,1.1,0.1,1.6,0.1
												c1.1,0.1,2.1,0.1,3.2,0.3c2.1,0.4,4.3,0.7,6.4,1.3c0.5,0.1,1.1,0.3,1.6,0.4c0.3,0.1,0.5,0.1,0.8,0.2l0.8,0.3
												c1,0.4,2.1,0.8,3.1,1.2c1,0.5,2,1,3.1,1.5c0.5,0.3,1,0.5,1.5,0.8l1.5,0.9c2,1.2,3.8,2.7,5.7,4.1c0.9,0.8,1.7,1.6,2.6,2.4
												l0.7,0.6c0.2,0.2,0.4,0.4,0.6,0.7l1.2,1.4l1.2,1.4l1.1,1.5l1.1,1.5l0.5,0.7c0.2,0.3,0.3,0.5,0.5,0.8
												c0.6,1.1,1.2,2.1,1.8,3.2c0.5,1.1,1,2.2,1.5,3.4c1.9,4.6,3.1,9.5,3.6,14.6c0.3,5.1-0.1,10.1-1.3,15
												c-0.3,1.2-0.7,2.4-1,3.6c-0.4,1.1-0.9,2.3-1.3,3.4l-0.3,0.9l-0.4,0.8l-0.8,1.6l-0.8,1.6l-1,1.5l-1,1.5l-0.5,0.8l-0.5,0.7
												c-0.7,0.9-1.5,1.9-2.2,2.8c-1.6,1.7-3.2,3.5-5,4.9l-1.3,1.1c-0.4,0.4-0.9,0.7-1.4,1c-0.9,0.7-1.8,1.4-2.8,2
												c-1,0.6-1.9,1.1-2.9,1.7l-0.7,0.4c-0.2,0.1-0.5,0.2-0.8,0.4c-0.5,0.2-1,0.5-1.5,0.7c-2,1-4.1,1.6-6.1,2.3
												c-1,0.3-2.1,0.5-3.1,0.8c-0.5,0.1-1,0.2-1.5,0.4c-0.5,0.1-1,0.1-1.6,0.2c-1,0.1-2.1,0.3-3.1,0.4c-1,0.1-2.1,0.1-3.1,0.1
												c-2,0.1-4-0.1-6-0.2l-0.7-0.1c-0.2,0-0.5-0.1-0.7-0.1c-0.5-0.1-1-0.2-1.4-0.2c-0.9-0.2-1.9-0.3-2.8-0.5
												c-0.9-0.3-1.8-0.5-2.7-0.8c-0.4-0.1-0.9-0.2-1.3-0.4c-0.4-0.2-0.9-0.3-1.3-0.5c-0.9-0.3-1.7-0.7-2.5-1
												c-0.4-0.1-0.8-0.3-1.2-0.6c-0.4-0.2-0.8-0.4-1.2-0.6c-0.8-0.4-1.6-0.8-2.3-1.2c-0.7-0.5-1.4-0.9-2.1-1.4
												c-5.6-3.6-9.9-8.1-13-12.4c-0.4-0.5-0.8-1.1-1.1-1.6c-0.3-0.6-0.6-1.1-1-1.6c-0.3-0.5-0.6-1.1-0.9-1.6
												c-0.1-0.3-0.3-0.5-0.4-0.8c-0.1-0.3-0.2-0.5-0.4-0.8c-0.5-1-0.9-2-1.4-3c-0.4-1-0.7-1.9-1-2.8c-0.2-0.4-0.3-0.9-0.4-1.3
												c-0.2-0.4-0.3-0.8-0.4-1.2c-0.2-0.8-0.4-1.6-0.5-2.3c-0.2-0.7-0.3-1.3-0.4-1.9c-0.1-0.6-0.2-1.1-0.2-1.6
												c-0.1-1-0.2-1.7-0.3-2.2C345.5,93.8,345.5,93.5,345.5,93.5s0,0.3,0.1,0.8c0.1,0.5,0.2,1.3,0.3,2.2c0.1,0.5,0.1,1,0.2,1.6
												c0.1,0.6,0.3,1.2,0.4,2c0.2,0.7,0.3,1.5,0.5,2.3c0.1,0.4,0.2,0.8,0.4,1.2c0.1,0.4,0.3,0.9,0.4,1.3c0.3,0.9,0.6,1.8,1,2.8
												c0.4,0.9,0.9,1.9,1.4,3c0.1,0.3,0.2,0.5,0.4,0.8c0.1,0.3,0.3,0.5,0.4,0.8c0.3,0.5,0.6,1,0.9,1.6c0.3,0.5,0.6,1.1,1,1.6
												c0.4,0.5,0.8,1.1,1.1,1.6c3.1,4.4,7.3,8.8,13,12.5c0.7,0.5,1.4,0.9,2.2,1.4c0.8,0.4,1.5,0.8,2.3,1.2
												c0.4,0.2,0.8,0.4,1.2,0.6c0.4,0.2,0.8,0.4,1.2,0.6c0.8,0.3,1.7,0.7,2.5,1c0.4,0.2,0.9,0.3,1.3,0.5
												c0.4,0.1,0.9,0.3,1.3,0.4c0.9,0.3,1.8,0.5,2.7,0.8c0.9,0.2,1.9,0.4,2.8,0.5c0.5,0.1,1,0.2,1.4,0.3c0.2,0,0.5,0.1,0.7,0.1
												l0.7,0.1c2,0.1,4,0.4,6,0.2c1,0,2.1,0,3.1-0.1c1-0.1,2.1-0.3,3.1-0.4c0.5-0.1,1.1-0.1,1.6-0.2c0.5-0.1,1-0.2,1.6-0.4
												c1-0.3,2.1-0.5,3.1-0.8c2-0.7,4.2-1.3,6.2-2.3c0.5-0.2,1-0.5,1.5-0.7c0.3-0.1,0.5-0.2,0.8-0.4l0.7-0.4
												c1-0.6,2-1.1,2.9-1.7c1-0.6,1.9-1.3,2.8-2c0.5-0.3,1-0.7,1.4-1l1.3-1.1c1.8-1.5,3.4-3.2,5-5c0.7-0.9,1.5-1.9,2.2-2.8
												l0.6-0.7l0.5-0.8l1-1.5l1-1.5l0.8-1.6l0.8-1.6l0.4-0.8l0.3-0.9c0.4-1.1,0.9-2.3,1.3-3.5c0.3-1.2,0.7-2.4,1-3.6
												c1.2-4.9,1.6-10,1.3-15.1c-0.5-5.1-1.7-10.1-3.6-14.7c-0.5-1.1-1-2.3-1.6-3.4c-0.6-1.1-1.2-2.1-1.9-3.2
												c-0.2-0.3-0.3-0.5-0.5-0.8l-0.5-0.7l-1.1-1.5l-1.1-1.5l-1.2-1.4l-1.2-1.4c-0.2-0.2-0.4-0.5-0.6-0.7l-0.7-0.6
												c-0.9-0.8-1.7-1.6-2.6-2.5c-1.9-1.5-3.7-3-5.7-4.1l-1.5-0.9c-0.5-0.3-1-0.5-1.5-0.8c-1-0.5-2-1.1-3.1-1.5
												c-1.1-0.4-2.1-0.8-3.2-1.2l-0.8-0.3c-0.3-0.1-0.5-0.2-0.8-0.2c-0.5-0.2-1.1-0.3-1.6-0.5c-2.1-0.7-4.3-0.9-6.4-1.3
												c-1.1-0.1-2.2-0.2-3.2-0.3c-0.5,0-1.1-0.1-1.6-0.1c-0.5,0-1.1,0-1.6,0c-1.1,0-2.1,0.1-3.1,0.1c-1,0.1-2.1,0.2-3.1,0.4
												c-2,0.2-4,0.7-5.9,1.2l-0.7,0.2c-0.2,0.1-0.5,0.2-0.7,0.2c-0.5,0.2-0.9,0.3-1.4,0.5c-0.9,0.3-1.8,0.6-2.7,1
												c-0.9,0.4-1.7,0.8-2.6,1.2c-0.4,0.2-0.8,0.4-1.3,0.6c-0.4,0.2-0.8,0.5-1.2,0.7c-0.8,0.5-1.6,0.9-2.4,1.4
												c-0.4,0.2-0.8,0.5-1.1,0.7c-0.4,0.3-0.7,0.5-1.1,0.8c-0.7,0.5-1.4,1-2.1,1.5c-0.6,0.6-1.3,1.1-1.9,1.7
												c-5,4.5-8.6,9.6-10.9,14.4c-2.3,4.8-3.7,9.3-4.2,13c-0.1,0.5-0.2,0.9-0.2,1.3c-0.1,0.4-0.1,0.9-0.2,1.3
												c-0.1,0.8-0.1,1.6-0.2,2.3c0,0.7-0.1,1.4-0.1,2c0,0.6,0,1.2,0.1,1.7c0,1,0.1,1.7,0.1,2.2
												C345.5,93.3,345.5,93.5,345.5,93.5z"/>
										</g>
									</g>
								</g>
							</g>
						</g>
					</g>
				</g>
			</g>
			<g>
				<g>
					<path class="st12" d="M378,72.9c-8.7,0-15.8,7.1-15.8,15.8s7.1,15.8,15.8,15.8c8.7,0,15.8-7.1,15.8-15.8S386.8,72.9,378,72.9z
						 M385.8,88.7c0,4.3-3.5,7.8-7.8,7.8h0c-4.3,0-7.8-3.5-7.8-7.8l0,0c0-4.3,3.5-7.8,7.8-7.8h0C382.3,80.9,385.8,84.4,385.8,88.7
						L385.8,88.7z"/>
					<path class="st13" d="M397.2,72.9c-8.7,0-15.8,7.1-15.8,15.8s7.1,15.8,15.8,15.8S413,97.4,413,88.7S406,72.9,397.2,72.9z
						 M397.2,96.4c-4.3,0-7.8-3.5-7.8-7.8c0-4.3,3.5-7.8,7.8-7.8c4.3,0,7.8,3.5,7.8,7.8C405,93,401.5,96.4,397.2,96.4z"/>
					<line class="st14" x1="416.2" y1="74.8" x2="416.2" y2="102.5"/>
					<line class="st14" x1="421" y1="74.8" x2="421" y2="102.5"/>
					<path class="st15" d="M378,96.4L378,96.4c-4.3,0-7.8-3.5-7.8-7.8l0,0c0-4.3,3.5-7.8,7.8-7.8l0,0c4.3,0,7.8,3.5,7.8,7.8l0,0
						C385.8,93,382.3,96.4,378,96.4z"/>
				</g>
			</g>
		</g>
	</g>
</g>
<g id="Apple">
	<g>
		<g>
			<path class="st8" d="M398.9,355.2c0.5-2.9-0.3-6-2.1-8.4c-1.8-2.4-4.5-4-7.4-4.5c-0.3,0-0.6-0.1-0.8,0.1
				c-0.3,0.2-0.3,0.7-0.3,1.1c0.3,2.8,1.5,5.6,3.3,7.7c1.9,2.1,4.5,3.7,7.2,4.3"/>
		</g>
		<g>
			<g>
				<path class="st7" d="M383.2,376c2.8,5.9,6.9,9.8,12,10c1,0,1.8-0.6,2.7-0.7c0.5,0,1.1,0.4,1.6,0.6c0.3,0.1,0.6,0.2,0.8,0.2
					c5.2-0.3,9.7-4,12.7-10.1c4.2-8.6,2.9-17.8-2.9-20.7c-0.8-0.4-1.6-0.7-2.4-0.9c-0.9-0.2-1.9-0.4-2.9-0.3c-1.8,0-3.8,0.5-6.5,1.5
					c-0.1,0-0.2,0.1-0.3,0.1c-4.7-2.1-8.4-2.1-12-0.3C380.3,358.1,379,367.4,383.2,376z"/>
			</g>
		</g>
		<g>
			<g>
				<path class="st3" d="M383.3,367.3c0,0-0.3-0.6-0.5-1.7c-0.2-1.1-0.1-2.7,0.5-4.3c0.6-1.6,1.6-2.9,2.4-3.6c0.8-0.7,1.5-1,1.5-1
					c0,0.1-0.5,0.4-1.3,1.2c-0.8,0.8-1.7,2-2.2,3.5c-0.6,1.5-0.7,3.1-0.6,4.1C383.1,366.6,383.3,367.2,383.3,367.3z"/>
			</g>
		</g>
		<g>
			<g>
				<path class="st3" d="M384.3,371.3c-0.1,0-0.3-0.4-0.4-0.9c-0.1-0.5-0.1-1,0-1c0.1,0,0.3,0.4,0.4,0.9
					C384.4,370.9,384.4,371.3,384.3,371.3z"/>
			</g>
		</g>
		<g>
			<g>
				<path class="st9" d="M410.8,341.1c0,0.1-1.1,0.5-2.7,1.5c-0.8,0.5-1.7,1.1-2.7,1.9c-0.9,0.8-1.9,1.8-2.9,2.9
					c-0.9,1.1-1.7,2.3-2.3,3.4c-0.6,1.1-1,2.1-1.4,3c-0.6,1.8-0.8,3-0.9,2.9c0,0,0-0.3,0.1-0.8c0-0.3,0.1-0.6,0.2-1
					c0.1-0.4,0.2-0.8,0.3-1.2c0.3-0.9,0.7-2,1.3-3.1c0.6-1.1,1.4-2.3,2.3-3.4c0.9-1.1,1.9-2.1,2.9-2.9c1-0.8,1.9-1.4,2.8-1.9
					c0.4-0.2,0.8-0.4,1.2-0.6c0.3-0.2,0.6-0.3,0.9-0.4C410.6,341.2,410.8,341.1,410.8,341.1z"/>
			</g>
		</g>
	</g>
</g>
<g id="Character">
	<g>
		<g>
			<path class="st16" d="M246.2,413c7.5,0.6,15.4,0.2,21.3,2.5c3,1.2,5.4,2.4,6.4,6.4c0.9,3.5-1.9,9.2-4.4,11.8
				c-7.5,7.4-10.4,10.8-12.5,19c-2.1,8.2-5,17-12.6,21.5c-1.7,1-3.6,1.8-5.7,1.7c-2.1-0.1-4.2-1.3-4.9-3.1c-0.8-2,0.3-4.1,1.3-5.9
				c3.1-5.5,5.6-11.3,6.4-17.5c0.8-6.2,0-8.5-3.9-14c-4.4-5.3-11.9-9.5-20.2-13.4l17-9.7L246.2,413z"/>
			<path class="st9" d="M238.4,343.4c0,0-8.4,1.6-11.8,0.8c-26.5-6.5-83-36-104.2-23.1c-18.9,11.4-14,30-2,45.6
				c11.8,15.4,86.8,54.3,86.8,54.3l25.1-20.6l-9.8-4.4l3.5-0.5c6.5,0.9,13.1,0.7,19.5-0.6l31.8-6.2v-33L238.4,343.4z"/>
			<path class="st9" d="M343.7,353.3c0,0,11.8,12.5,13.8,34.7c0.7,7.5-3.3,21.3-9.7,26.8c-11.7,10-27.1,14.7-42.5,13.5l-70.9-3.5
				l-2-26.7c0,0,28.9-10.8,37-12.3l8.1-1v-29c0,0,24.2,1.3,35.4,1.9C324,358.2,343.7,353.3,343.7,353.3z"/>
			<g>
				<path class="st17" d="M314.1,370.3c0,0-0.6,0.2-1.6,0.4c-1,0.2-2.5,0.5-4.3,0.9c-3.6,0.8-8.6,2.1-13.9,4.1
					c-5.3,2-9.9,4.3-13.2,6.1c-1.6,0.9-2.9,1.6-3.8,2.2c-0.9,0.5-1.4,0.8-1.4,0.8c0,0,0.4-0.4,1.3-0.9c0.9-0.6,2.1-1.4,3.8-2.3
					c3.2-1.9,7.8-4.2,13.2-6.2c5.3-2,10.4-3.3,14-4c1.8-0.4,3.3-0.6,4.4-0.7C313.5,370.4,314.1,370.3,314.1,370.3z"/>
			</g>
			<g>
				<path class="st17" d="M345.7,413.2c0,0,0.6-0.3,1.4-1.1c0.8-0.8,1.8-2.1,2.3-4.1c0.6-2,0.5-4.4,0.4-7.1
					c-0.2-2.7-0.4-5.7-0.9-8.7c-0.5-3.1-1.4-5.9-2.5-8.4c-1.1-2.4-2.6-4.4-3.9-5.9c-2.8-3-5.3-3.9-5.2-4c0,0,0.2,0,0.4,0.2
					c0.3,0.1,0.7,0.3,1.2,0.6c1,0.6,2.4,1.5,3.9,3c1.4,1.5,2.9,3.5,4.1,6c1.2,2.5,2,5.4,2.6,8.5c0.5,3.1,0.7,6.1,0.9,8.8
					c0.2,2.7,0.1,5.2-0.5,7.2c-0.6,2-1.7,3.4-2.6,4.1c-0.4,0.4-0.8,0.6-1.1,0.8C345.9,413.2,345.7,413.2,345.7,413.2z"/>
			</g>
			<g>
				<path class="st17" d="M232,398.3c0,0,0.2-0.1,0.7-0.3c0.5-0.2,1.3-0.5,2.2-0.9c1.9-0.7,4.6-1.7,8-3c3.4-1.2,7.5-2.6,12.1-3.9
					c4.6-1.4,9.7-2.8,15.1-4c10.8-2.4,20.8-3.4,28.1-3.3c0.9,0,1.8,0,2.6,0c0.8,0,1.6,0.1,2.3,0.1c1.4,0.1,2.7,0.1,3.7,0.3
					c1,0.1,1.7,0.2,2.3,0.3c0.5,0.1,0.8,0.1,0.8,0.1c0,0-0.3,0-0.8,0c-0.6,0-1.4-0.1-2.3-0.2c-1-0.1-2.2-0.2-3.7-0.2
					c-0.7,0-1.5-0.1-2.3-0.1c-0.8,0-1.7,0-2.6,0c-7.2,0-17.2,1-27.9,3.4c-5.4,1.2-10.5,2.5-15,3.9c-4.6,1.3-8.7,2.7-12.1,3.8
					c-3.4,1.2-6.1,2.1-8.1,2.8c-0.9,0.3-1.7,0.6-2.2,0.8C232.3,398.3,232,398.4,232,398.3z"/>
			</g>
			<g>
				<path class="st17" d="M221.6,399.7c0,0-0.1-0.1-0.2-0.2c-0.1-0.2-0.3-0.4-0.4-0.7c-0.4-0.6-1-1.5-1.7-2.6
					c-0.4-0.6-0.8-1.2-1.2-1.9c-0.4-0.7-1-1.4-1.5-2.2c-1.1-1.6-2.3-3.4-3.8-5.3c-0.7-1-1.5-2-2.3-3c-0.8-1-1.7-2.1-2.6-3.2
					c-1.7-2.2-3.8-4.5-5.9-6.8c-4.3-4.7-9.3-9.6-14.9-14.4c-5.6-4.7-11.3-8.8-16.6-12.3c-2.7-1.7-5.2-3.3-7.7-4.7
					c-1.2-0.7-2.4-1.4-3.6-2c-1.2-0.6-2.3-1.2-3.3-1.7c-2.1-1.1-4.1-2-5.8-2.8c-0.9-0.4-1.7-0.8-2.4-1.1c-0.8-0.3-1.4-0.6-2.1-0.9
					c-1.2-0.5-2.2-0.9-2.8-1.2c-0.3-0.1-0.5-0.2-0.7-0.3c-0.2-0.1-0.2-0.1-0.2-0.1c0,0,0.1,0,0.3,0.1c0.2,0.1,0.4,0.2,0.8,0.3
					c0.7,0.3,1.7,0.7,2.9,1.1c0.6,0.3,1.3,0.5,2.1,0.8c0.8,0.3,1.6,0.7,2.4,1.1c1.7,0.8,3.8,1.6,5.9,2.8c1.1,0.5,2.2,1.1,3.4,1.7
					c1.2,0.6,2.3,1.3,3.6,2c2.5,1.3,5,3,7.8,4.7c5.3,3.5,11,7.6,16.7,12.3c5.6,4.8,10.6,9.7,14.9,14.4c2.1,2.4,4.1,4.6,5.9,6.9
					c0.9,1.1,1.8,2.2,2.5,3.2c0.8,1.1,1.5,2.1,2.2,3c1.5,1.9,2.6,3.8,3.7,5.4c0.5,0.8,1,1.5,1.5,2.2c0.4,0.7,0.8,1.3,1.2,1.9
					c0.7,1.1,1.2,2,1.6,2.7c0.2,0.3,0.3,0.5,0.4,0.7C221.5,399.6,221.6,399.7,221.6,399.7z"/>
			</g>
			<g>
				<path class="st17" d="M185.4,358.6c0,0-0.3-0.4-0.8-1.2c-0.5-0.8-1.2-2-2.1-3.4c-1.8-2.9-4.5-6.7-7.9-10.7
					c-3.3-4-6.6-7.3-9.1-9.7c-1.2-1.2-2.3-2.1-3-2.7c-0.7-0.6-1.1-1-1.1-1c0,0,0.4,0.3,1.2,0.9c0.8,0.6,1.8,1.5,3.1,2.6
					c2.5,2.3,5.9,5.6,9.2,9.6c3.3,4,6,7.9,7.8,10.8c0.9,1.5,1.6,2.7,2,3.5C185.2,358.1,185.4,358.6,185.4,358.6z"/>
			</g>
			<g>
				<path class="st9" d="M132.2,348c-0.1,0.1-2.2-2.9-5.5-5.9c-3.2-3.1-6.4-5-6.3-5.1c0-0.1,0.9,0.4,2.1,1.2c1.2,0.8,2.9,2,4.5,3.6
					c1.6,1.5,3,3.1,3.9,4.3C131.8,347.1,132.3,347.9,132.2,348z"/>
			</g>
			<g>
				<polygon class="st16" points="232.4,398.3 189.6,403.2 192.1,425.1 241.3,425.1 				"/>
				<path class="st16" d="M204.2,425c-6.5,0.2-19.1,5.9-23.6,10.2c-4.4,4.3-7.5,9.7-10,15.3c-0.8,1.9-1.8,4-3.9,4.5
					c-1.8,0.5-4-0.5-5.3-2.1c-1.3-1.5-1.8-3.5-2-5.4c-0.9-8.6,4.3-16,9.5-22.5c5.2-6.4,6.6-9.2,8-19.4c0.5-3.5,3.4-9,6.6-10.4
					c3.7-1.6,6.1-0.3,8.8,1.3l9.6,5.5"/>
				<g>
					<path class="st18" d="M241.3,425.1c0,0-0.4,0.1-1.2,0.1c-0.9,0-2,0-3.3,0c-2.8,0-6.6,0.1-10.8,0.2c-4.2,0.1-8.1,0.1-10.8,0
						c-1.4,0-2.5-0.1-3.3-0.1c-0.8-0.1-1.2-0.1-1.2-0.1c0,0,0.4-0.1,1.2-0.1c0.9,0,2,0,3.3,0c2.8,0,6.6-0.1,10.8-0.2
						c4.2-0.1,8.1-0.1,10.8,0c1.4,0,2.5,0.1,3.3,0.1C240.9,425,241.3,425.1,241.3,425.1z"/>
				</g>
			</g>
			<g>
				<path class="st17" d="M223.2,358.3c0,0,0.3,0.4,0.8,1.2c0.3,0.4,0.5,0.9,0.8,1.5c0.3,0.6,0.7,1.3,1,2.1c0.3,0.8,0.7,1.7,1,2.6
					c0.4,0.9,0.6,2,0.9,3.1c0.5,2.2,1,4.7,1.2,7.3c0.2,2.6,0,5.1-0.2,7.4c-0.2,1.1-0.3,2.2-0.5,3.2c-0.2,1-0.4,1.9-0.7,2.7
					c-0.2,0.8-0.5,1.6-0.7,2.2c-0.2,0.6-0.4,1.2-0.6,1.6c-0.4,0.9-0.6,1.4-0.6,1.3c0,0,0.1-0.5,0.5-1.4c0.2-0.4,0.4-1,0.5-1.6
					c0.2-0.6,0.4-1.4,0.6-2.2c0.2-0.8,0.4-1.7,0.6-2.7c0.2-1,0.3-2,0.5-3.1c0.2-2.2,0.3-4.7,0.2-7.3c-0.2-2.6-0.6-5-1.1-7.2
					c-0.3-1.1-0.5-2.1-0.9-3.1c-0.3-1-0.6-1.8-0.9-2.6c-0.3-0.8-0.6-1.5-0.9-2.1c-0.3-0.6-0.5-1.1-0.8-1.6
					C223.4,358.8,223.2,358.3,223.2,358.3z"/>
			</g>
			<g>
				<path class="st17" d="M242.7,376.1c0,0-0.1-0.5-0.2-1.4c0-0.5-0.1-1-0.2-1.7c-0.1-0.6-0.2-1.4-0.3-2.2c-0.3-1.6-0.7-3.5-1.4-5.6
					c-0.7-2.1-1.6-4.3-2.7-6.5c-1.1-2.2-2.4-4.3-3.7-6c-1.3-1.8-2.6-3.3-3.7-4.4c-0.5-0.6-1.1-1.1-1.6-1.6c-0.5-0.5-0.9-0.8-1.2-1.1
					c-0.7-0.6-1.1-1-1-1c0,0,0.4,0.3,1.2,0.8c0.4,0.3,0.8,0.6,1.3,1.1c0.5,0.4,1.1,0.9,1.6,1.5c1.2,1.2,2.5,2.7,3.8,4.4
					c1.3,1.8,2.6,3.8,3.8,6.1c1.1,2.3,2,4.5,2.7,6.6c0.6,2.1,1.1,4.1,1.3,5.7c0.1,0.8,0.2,1.6,0.3,2.2c0.1,0.7,0.1,1.2,0.1,1.7
					C242.7,375.6,242.7,376.1,242.7,376.1z"/>
			</g>
			<g>
				<path class="st7" d="M348.9,397.9c0,0,0,0.1-0.1,0.3c-0.1,0.2-0.2,0.5-0.4,0.8c-0.3,0.7-0.9,1.7-1.6,3c-0.8,1.2-1.9,2.7-3.3,4.3
					c-1.4,1.5-3.2,3.2-5.3,4.7c-4.2,3.1-10,6-16.8,7.6c-6.8,1.7-14.5,2.3-22.5,2.4c-16,0.1-30.6-0.1-41.1-0.1
					c-5.2,0-9.5-0.1-12.4-0.1c-1.4,0-2.6,0-3.4-0.1c-0.4,0-0.7,0-0.9,0c-0.2,0-0.3,0-0.3,0s0.1,0,0.3,0c0.2,0,0.5,0,0.9,0
					c0.8,0,1.9,0,3.4,0c3,0,7.2,0,12.4-0.1c10.5,0,25,0,41.1,0c8-0.1,15.6-0.6,22.4-2.3c6.7-1.6,12.4-4.4,16.7-7.4
					c2.1-1.5,3.9-3.1,5.3-4.6c1.4-1.5,2.5-2.9,3.3-4.2c0.8-1.2,1.4-2.2,1.7-2.9c0.2-0.3,0.3-0.6,0.4-0.8
					C348.8,398,348.9,397.9,348.9,397.9z"/>
			</g>
			<g>
				<path class="st7" d="M354.8,378.4c0.1,0-0.8,3.1-2.1,6.7c-1.3,3.7-2.5,6.6-2.6,6.6c-0.1,0,0.8-3.1,2.1-6.7
					C353.5,381.3,354.7,378.4,354.8,378.4z"/>
			</g>
			<g>
				<path class="st7" d="M179.4,399.2c0,0-0.1,0-0.2-0.1c-0.2-0.1-0.4-0.2-0.7-0.3c-0.6-0.3-1.5-0.7-2.6-1.1c-2.3-1-5.5-2.5-9.5-4.4
					c-4-1.9-8.7-4.3-13.7-7.2c-5-2.9-10.4-6.5-15.6-10.8c-10.4-8.7-17.5-18.9-21.6-26.7c-2.1-3.9-3.5-7.2-4.3-9.5
					c-0.5-1.1-0.7-2.1-1-2.7c-0.1-0.3-0.2-0.5-0.2-0.7c0-0.2-0.1-0.2-0.1-0.2c0,0,0,0.1,0.1,0.2c0.1,0.2,0.2,0.4,0.3,0.7
					c0.3,0.6,0.6,1.5,1,2.6c0.9,2.3,2.4,5.5,4.5,9.4c4.1,7.7,11.3,17.8,21.6,26.5c5.2,4.3,10.5,7.9,15.5,10.8c5,3,9.7,5.3,13.6,7.3
					c4,1.9,7.2,3.5,9.4,4.5c1.1,0.5,1.9,0.9,2.6,1.2c0.3,0.1,0.5,0.2,0.7,0.3C179.3,399.1,179.4,399.2,179.4,399.2z"/>
			</g>
		</g>
		<g>
			<path class="st9" d="M252,106.8c-1.5-2.5-4.5-4.1-7.4-3.8c-2.9,0.3-5.6,2.3-6.6,5c-0.4,1.2-0.6,2.5-1.4,3.5c-2,2.7-7,1.9-8.6,4.9
				c-1.7,3.2,2.2,6.9,1.3,10.4c-0.8,2.8-4.3,4-5.1,6.8c-1.1,3.7,3.3,7.3,2.3,10.9c-0.9,3.1-5.3,4.3-6,7.5c-0.8,3.5,3.6,6.4,3.5,10
				c-0.1,4.6-7.1,7.2-6.5,11.8c0.4,2.5,3.1,4.2,3.5,6.7c0.8,4.7-6.5,8-5.6,12.8c0.4,2.2,2.5,3.7,4.3,5c1.8,1.3,3.7,3.3,3.3,5.5
				c-0.4,2.3-3,3.6-4.4,5.5c-2.2,2.9,1.3,10.5,4.6,12l13.8-10.3c0,0-4-3.3-0.9-6.3c3.1-3,1.1-4.4,1-6.7c0,0,3.1,2.6,2,5.3
				c-1.5,3.6,0.7,6.5,0.7,6.5l21.1-9.5l2.3-20L252,106.8z"/>
			<g>
				<path class="st9" d="M221.2,200.1c0,0-0.5,0.1-1.3,0.1c-0.9-0.1-2.2-0.3-3.7-1.1c-1.5-0.8-3.1-2.4-3.8-4.7
					c-0.4-1.1-0.6-2.5-0.4-3.8c0.2-1.4,0.7-2.7,1.4-4.1c0.7-1.3,1.5-2.7,2.2-4.1c0.6-1.5,1.1-3.1,0.8-4.8c-0.3-1.7-1.6-3-2.6-4.6
					c-0.5-0.8-1-1.7-0.9-2.8c0-1,0.7-2,1.6-2.6c0.8-0.6,1.8-1,2.7-1.5c0.9-0.5,1.7-1,2.2-1.9c0.5-0.8,0.5-1.9,0.2-2.9
					c-0.3-1-0.8-1.9-1.4-2.8c-0.6-0.9-1.3-1.7-1.9-2.6c-0.6-0.9-1.1-2-1.2-3.2c-0.1-1.2,0.3-2.4,1-3.3c0.7-0.9,1.7-1.6,2.6-2.3
					c0.9-0.7,1.9-1.3,2.6-2.1c0.7-0.8,1.2-1.8,1.3-2.8c0-1-0.4-2.1-0.9-3c-0.5-1-1.1-1.9-1.5-2.9c-0.5-1-0.9-2.1-0.7-3.2
					c0.1-0.6,0.2-1.1,0.5-1.6c0.3-0.5,0.6-0.9,1-1.3c1.5-1.5,3.3-2.5,4.1-4.3c0.4-0.8,0.5-1.8,0.3-2.7c-0.1-0.9-0.4-1.8-0.7-2.7
					c-0.6-1.7-1.2-3.6-1-5.4c0.1-0.9,0.5-1.8,1.1-2.4c0.6-0.6,1.4-1,2.2-1.3c1.6-0.5,3.2-0.5,4.6-0.9c1.4-0.3,2.7-1,3.4-2.1
					c0.7-1.1,1.1-2.3,1.9-3.3c1.4-2,3.5-2.8,5.2-3c1.7-0.2,3,0.1,3.8,0.4c0.4,0.2,0.7,0.3,0.9,0.5c0.2,0.1,0.3,0.2,0.3,0.2
					c0,0-0.4-0.3-1.2-0.6c-0.8-0.3-2.1-0.6-3.7-0.3c-1.6,0.2-3.6,1.1-5,3c-0.7,0.9-1.1,2.2-1.8,3.3c-0.7,1.2-2.2,2-3.6,2.3
					c-1.5,0.4-3.1,0.4-4.6,0.9c-0.8,0.2-1.5,0.6-2,1.2c-0.6,0.6-0.9,1.4-1,2.2c-0.2,1.7,0.4,3.4,1,5.2c0.3,0.9,0.6,1.8,0.7,2.8
					c0.1,1,0.1,2-0.4,3c-0.9,1.9-2.8,3-4.2,4.4c-0.3,0.4-0.7,0.8-0.9,1.2c-0.2,0.4-0.4,0.9-0.4,1.4c-0.1,1,0.2,2,0.7,2.9
					c0.5,1,1,1.9,1.5,2.9c0.5,1,0.9,2.1,0.9,3.3c0,1.2-0.6,2.3-1.4,3.2c-0.8,0.9-1.8,1.5-2.7,2.2c-0.9,0.7-1.8,1.3-2.5,2.2
					c-0.7,0.8-1,1.9-0.9,2.9c0.1,1,0.6,2,1.2,2.9c0.6,0.9,1.3,1.7,1.9,2.6c0.6,0.9,1.1,1.9,1.4,2.9c0.3,1,0.3,2.3-0.3,3.2
					c-0.6,1-1.5,1.6-2.4,2.1c-0.9,0.5-1.8,0.9-2.6,1.4c-0.8,0.5-1.3,1.3-1.4,2.2c-0.1,0.9,0.4,1.8,0.8,2.5c1,1.5,2.3,2.9,2.6,4.8
					c0.3,1.8-0.2,3.6-0.9,5.1c-0.7,1.5-1.5,2.8-2.2,4.1c-0.7,1.3-1.2,2.6-1.4,3.9c-0.2,1.3,0,2.6,0.3,3.7c0.7,2.2,2.2,3.8,3.7,4.6
					c1.4,0.8,2.7,1.1,3.6,1.2C220.8,200.1,221.2,200,221.2,200.1z"/>
			</g>
			<g>
				<path class="st17" d="M221.9,215.2c0,0-0.1,0-0.3-0.2c-0.2-0.2-0.4-0.5-0.4-0.9c-0.1-0.5,0-1,0.4-1.6c0.3-0.6,1-1.1,1.8-1.3
					c0.8-0.3,1.8-0.4,2.7-0.6c1-0.2,2.1-0.7,2.6-1.7c0.3-0.5,0.3-1.1,0.1-1.7c-0.2-0.6-0.6-1.1-1-1.7c-0.4-0.6-0.8-1.2-0.9-2
					c-0.1-0.8,0.2-1.5,0.6-2.2c0.4-0.7,0.8-1.3,1.2-2c0.4-0.7,0.7-1.4,0.7-2.2c0-0.8-0.4-1.5-1-2.1c-0.6-0.6-1.2-1.2-1.9-1.9
					c-0.6-0.6-1.1-1.6-0.9-2.6c0.1-0.5,0.3-1,0.7-1.3c0.3-0.4,0.8-0.6,1.2-0.8c0.9-0.4,1.8-0.7,2.7-1.1c0.9-0.4,1.7-0.9,2.3-1.6
					c0.6-0.8,0.6-1.8,0.4-2.7c-0.2-1-0.7-1.9-1.1-2.9c-0.4-1-0.8-2-1-3.1c-0.1-1.1,0.1-2.3,0.5-3.3c0.9-2,2.3-3.8,2.8-5.9
					c0.2-1.1,0-2.1-0.4-3.1c-0.5-1-1.1-1.9-1.7-2.9c-0.6-1-1.1-2.1-1.2-3.3c-0.1-1.2,0.5-2.4,1.2-3.3c0.7-0.9,1.5-1.7,2.2-2.5
					c0.7-0.8,1.3-1.8,1.4-2.8c0.1-1-0.2-2-0.7-2.9c-0.5-0.9-1.1-1.8-1.6-2.7c-0.5-0.9-0.9-2-0.9-3.1c0-1.1,0.5-2.1,1.1-2.9
					c0.5-0.9,1.1-1.7,1.5-2.5c0.4-0.8,0.6-1.8,0.4-2.6c-0.4-1.8-1.8-3.2-2.1-5.1c-0.2-0.9,0.1-1.9,0.6-2.6c0.5-0.7,1.1-1.3,1.7-1.9
					c0.6-0.6,1.1-1.1,1.5-1.8c0.4-0.7,0.5-1.4,0.6-2.1c0.1-1.5-0.3-2.9-0.2-4.3c0.1-1.4,0.5-2.7,1.2-3.7c1.3-2.1,3.3-3.2,4.9-3.5
					c1.7-0.4,3-0.1,3.9,0.1c0.9,0.3,1.3,0.5,1.3,0.5c0,0-0.4-0.2-1.3-0.4c-0.8-0.2-2.2-0.4-3.8,0c-1.6,0.4-3.5,1.4-4.7,3.5
					c-0.6,1-1,2.2-1.1,3.6c-0.1,1.3,0.3,2.8,0.2,4.3c0,0.8-0.2,1.6-0.6,2.3c-0.4,0.7-1,1.3-1.6,1.9c-0.6,0.6-1.2,1.1-1.7,1.8
					c-0.5,0.7-0.7,1.5-0.5,2.3c0.3,1.7,1.7,3.1,2.1,5c0.2,1,0,2-0.4,2.9c-0.4,0.9-1,1.7-1.5,2.6c-0.5,0.8-0.9,1.7-1,2.7
					c0,1,0.3,1.9,0.8,2.8c0.5,0.9,1.1,1.8,1.6,2.7c0.5,0.9,0.9,2.1,0.8,3.2c-0.1,1.2-0.8,2.2-1.5,3c-0.7,0.9-1.5,1.6-2.2,2.5
					c-0.7,0.9-1.1,1.9-1.1,3c0,1.1,0.5,2.1,1.1,3.1c0.6,1,1.2,1.9,1.7,3c0.5,1.1,0.7,2.3,0.5,3.5c-0.5,2.3-2,4.1-2.8,6
					c-0.4,1-0.6,2-0.5,3c0.1,1,0.5,2,0.9,2.9c0.4,1,0.8,1.9,1.1,2.9c0.3,1,0.2,2.2-0.5,3.1c-0.6,0.9-1.6,1.4-2.5,1.8
					c-0.9,0.4-1.8,0.7-2.6,1.1c-0.8,0.4-1.6,1-1.7,1.8c-0.2,0.8,0.2,1.6,0.8,2.3c0.6,0.7,1.3,1.2,1.8,1.9c0.6,0.6,1.1,1.5,1.1,2.4
					c0,0.9-0.4,1.7-0.8,2.4c-0.4,0.7-0.9,1.3-1.2,2c-0.4,0.6-0.6,1.3-0.5,2c0,0.7,0.4,1.3,0.8,1.8c0.4,0.6,0.8,1.1,1,1.7
					c0.2,0.6,0.2,1.4-0.1,1.9c-0.7,1.1-1.8,1.6-2.8,1.8c-1,0.2-1.9,0.3-2.7,0.6c-0.8,0.3-1.4,0.7-1.7,1.2c-0.3,0.5-0.4,1.1-0.4,1.5
					C221.4,215,222,215.2,221.9,215.2z"/>
			</g>
		</g>
		<g>
			<g>
				<g>
					<path class="st7" d="M345.2,353.3l-17.4-58l5.4-92c-11.1-6-24.2-10.8-43-11.6l-30,2.3l-33.1,16.5l7,55.6l11.2,48l-6.9,29.3
						C266.7,363.8,304.4,366,345.2,353.3z"/>
				</g>
				<path class="st7" d="M319,256.9c0,0,33.9,1.7,33.9-1.1c0-5.7-1.8-22-6.6-34.7c-3.7-9.6-10-16.6-13.4-18.1
					C325,199.7,319,256.9,319,256.9z"/>
				<path class="st7" d="M227.6,210.2c0,0-6.4,5.3-13.1,21.3c-8,18.9-10.3,22.8-10.3,22.8l20.1,27.1l10.9-12.2L227.6,210.2z"/>
			</g>
			<g>
				<path class="st9" d="M245.3,314.1c0,0,0-0.1-0.1-0.2c0-0.2-0.1-0.4-0.2-0.7c-0.2-0.6-0.4-1.5-0.6-2.6c-0.5-2.2-1.3-5.4-2.2-9.4
					c-1.8-8-4.2-19-6.8-31.2c-2.6-12.2-4.9-23.2-6.6-31.2c-0.9-4-1.5-7.2-2-9.5c-0.2-1.1-0.4-1.9-0.5-2.6c-0.1-0.3-0.1-0.5-0.1-0.7
					c0-0.2,0-0.2,0-0.2c0,0,0,0.1,0.1,0.2c0,0.2,0.1,0.4,0.2,0.7c0.2,0.6,0.4,1.5,0.6,2.6c0.5,2.2,1.3,5.4,2.2,9.4
					c1.8,8,4.2,19,6.8,31.2c2.6,12.2,4.9,23.2,6.6,31.2c0.9,4,1.6,7.2,2.1,9.5c0.2,1.1,0.4,1.9,0.5,2.6c0.1,0.3,0.1,0.5,0.1,0.7
					C245.3,314,245.3,314.1,245.3,314.1z"/>
			</g>
			<g class="st10">
				<path d="M324.1,198.7c-4.4-2.6-9.7-3.6-14.8-2.7c-5,0.9-9.7,3.5-13,7.5l-0.5-3.4c-0.3,3.7-3.2,7.8-2.8,10.2
					c0.4,2.4,2.4,4.6,4.8,4.7c3.4,0.1,6.6-3.7,9.8-2.4c1.1,0.4,1.8,1.4,2.9,1.8c2.3,1.1,5-0.4,7.1-1.9c2.4-1.7,4.8-3.5,7.1-5.3
					c1.3-1,2.7-2.2,2.8-3.9C327.6,201.4,325.9,199.8,324.1,198.7z"/>
			</g>
			<g>
				<path class="st9" d="M328.9,204.9c0.1,0.1-2.7,1.3-5.6,5c-1.5,1.8-2.8,4.3-3.9,7.2c-1.1,2.9-1.9,6.2-2.7,9.7
					c-0.8,3.5-1.1,6.9-1.3,10c-0.2,3.1-0.3,5.9-0.3,8.3c-0.1,2.4-0.2,4.3-0.3,5.6c-0.1,0.7-0.1,1.2-0.2,1.5c0,0.3-0.1,0.5-0.1,0.5
					c0,0,0-0.2,0-0.5c0-0.4,0-0.9,0.1-1.5c0.1-1.3,0.1-3.2,0.1-5.6c0-2.4,0.1-5.2,0.2-8.3c0.2-3.1,0.5-6.5,1.3-10.1
					c0.8-3.5,1.7-6.8,2.8-9.8c1.1-2.9,2.5-5.4,4-7.3c1.5-1.8,3-3,4.1-3.8c0.5-0.4,1-0.6,1.3-0.8C328.7,205,328.8,204.9,328.9,204.9z
					"/>
			</g>
			<g>
				<path class="st9" d="M300.4,334.1c0,0-0.2,0-0.5-0.1c-0.4-0.1-0.9-0.2-1.4-0.3c-1.2-0.2-3-0.6-5.2-1.1c-4.4-1-10.4-2.7-16.9-5
					c-6.5-2.3-12.2-4.8-16.3-6.7c-2-1-3.7-1.8-4.8-2.4c-0.5-0.3-0.9-0.5-1.3-0.7c-0.3-0.2-0.4-0.3-0.4-0.3c0,0,0.2,0,0.5,0.2
					c0.4,0.2,0.8,0.4,1.3,0.6c1.1,0.5,2.8,1.3,4.8,2.2c4.1,1.9,9.8,4.3,16.3,6.6c6.5,2.3,12.5,4,16.8,5.1c2.2,0.6,3.9,1,5.2,1.3
					c0.6,0.1,1,0.3,1.4,0.4C300.3,334,300.4,334,300.4,334.1z"/>
			</g>
			<g>
				<path class="st9" d="M302.8,322.7c0,0-0.2,0-0.5,0.1c-0.4,0-0.9,0.1-1.5,0.1c-1.3,0.1-3.2,0.2-5.5,0.2
					c-4.6,0.1-11.1-0.1-18.1-0.8c-7.1-0.8-13.4-2-17.9-3.1c-2.3-0.5-4.1-1-5.3-1.4c-0.6-0.2-1-0.3-1.4-0.4c-0.3-0.1-0.5-0.2-0.5-0.2
					c0,0,0.2,0,0.5,0.1c0.4,0.1,0.9,0.2,1.5,0.3c1.3,0.3,3.1,0.7,5.4,1.2c4.5,1,10.8,2.2,17.9,2.9c7,0.8,13.4,1,18.1,1
					c2.3,0,4.2,0,5.5,0c0.6,0,1.1,0,1.5,0C302.6,322.6,302.8,322.6,302.8,322.7z"/>
			</g>
			<g class="st10">
				<path d="M332.1,313.6c-1.8-2.9-5.3-4.2-8.5-5.5c-17.5-6.6-33.6-16.6-47.3-29.3c-6.5-6.1-12.7-12.9-20.9-16.4
					c-8.2-3.5-19.3-2.5-24.1,5l3,2c15.1,5,25.2,18.9,36.1,30.5c8.2,8.7,17.4,16.5,26.5,24.2c5.9,5,12.4,10.2,20.1,10.2
					c7.8,0,15.1-6.2,16.2-13.9C333.5,318.1,333.3,315.6,332.1,313.6z"/>
			</g>
		</g>
		<g>
			<g>
				<path class="st16" d="M178.4,167.7h-2.6c-2.2,0-4.2,1.3-5.2,3.3l0,0c-0.8,1.8-0.7,3.9,0.4,5.5l4,6.2c0,0-4,2.2-2.9,6.5
					c0,0-2.6,1.6-1.3,7c0,0-1.8,4.5,0.4,7.7c2.1,3.1,8.9,15.2,8.9,15.2v13.3l18-2.1V215c0,0,1.9-3,2.7-6.9
					c0.8-3.9-2.1-18.8-2.1-18.8l-8.3-9.6l-9.3-3.6c0,0-1,1.5-0.6,3.3c0,0.2,0.1,0.4,0.2,0.7l-1.4-0.6l-3.1-5.6v-0.8
					c0,0,7.6-1.7,4.7-4.4C180.4,168.1,179.4,167.7,178.4,167.7z"/>
				<g>
					<path class="st18" d="M189.8,203.3c0,0,0.2,0.2,0.4,0.8c0.2,0.5,0.4,1.4,0.1,2.4c-0.1,0.5-0.5,1.1-1.1,1.3
						c-0.6,0.3-1.3,0.3-2,0.1c-1.4-0.4-2.3-1.8-3.2-2.9c-0.5-0.6-1-1.1-1.5-1.5c-0.6-0.4-1.2-0.5-1.8-0.5c-1.3,0.1-2.4,0.1-3.5,0.2
						c-2,0.1-3.2,0.1-3.2,0.1c0-0.1,1.2-0.2,3.2-0.4c1-0.1,2.2-0.2,3.5-0.3c0.7-0.1,1.5,0.1,2.1,0.5c0.7,0.4,1.2,1,1.7,1.6
						c0.9,1.2,1.8,2.4,3,2.8c0.6,0.2,1.2,0.2,1.7,0c0.5-0.2,0.8-0.6,0.9-1c0.3-0.9,0.2-1.7,0-2.2
						C189.9,203.5,189.8,203.3,189.8,203.3z"/>
				</g>
				<g>
					<path class="st9" d="M183.1,181.9c0,0.1-0.4,0-0.9-0.3c-0.5-0.3-1.2-0.9-1.6-1.8c-0.4-0.9-0.4-1.8-0.2-2.3
						c0.1-0.6,0.4-0.9,0.4-0.9c0.1,0-0.4,1.5,0.3,3C181.8,181.2,183.2,181.8,183.1,181.9z"/>
				</g>
				<g>
					<path class="st18" d="M181.5,202.6c0.1,0,0.1,0.4-0.1,1.1c-0.2,0.7-0.5,1.5-1.2,2.3c-0.7,0.8-1.5,1.3-2.1,1.6
						c-0.6,0.3-1,0.3-1.1,0.2c-0.1-0.1,1.5-0.6,2.8-2.1C181.2,204.2,181.4,202.6,181.5,202.6z"/>
				</g>
				<g>
					<path class="st18" d="M192.6,213.1c-0.1,0.1-1.2-1.9-3.5-3.2c-2.3-1.3-4.6-1.1-4.5-1.2c0-0.1,0.5-0.2,1.4-0.2
						c0.9,0,2.1,0.3,3.4,1c1.2,0.7,2.1,1.6,2.6,2.3C192.5,212.5,192.7,213.1,192.6,213.1z"/>
				</g>
				<g>
					<path class="st1" d="M192.8,203.4c0.7,1.3,1.2,2.6,1.5,4c0.2,1.4,0.4,3,0.3,4.2c-0.4,2.3-1.4,8.7,0.1,10.2
						c1.5,1.5,11.4,9.6,11.4,9.6h6.2c0,0-12.7-7.8-14.4-13.1c-1.7-5.3-0.1-8.1-0.9-11.3c-0.9-3.5-4.3-10.5-4.3-10.5l-14.5-23.8
						l-2.4,0.6L192.8,203.4z"/>
					<g>
						<path class="st9" d="M192.8,203.4c0,0-0.1-0.2-0.3-0.5c-0.2-0.4-0.5-0.9-0.9-1.6c-0.8-1.4-2-3.5-3.5-6.1
							c-3-5.3-7.3-12.8-12.4-21.9l-0.1-0.3l0.3-0.1c0.7-0.2,1.6-0.4,2.4-0.6l0.2,0l0.1,0.1c4.3,7.1,9.2,15.2,14.5,23.8l0,0l0,0
							c1.2,2.6,2.4,5.3,3.5,8.1c0.5,1.4,1.1,2.9,1.1,4.5c0,1.5-0.2,3-0.1,4.5c0,1.5,0.2,2.9,0.6,4.2c0.4,1.4,1.1,2.5,2,3.6
							c1.8,2.1,3.9,3.9,6,5.5c2.1,1.6,4.3,3.1,6.4,4.4l0.7,0.4l-0.8,0c-2.2,0-4.2,0-6.2,0l-0.1,0l-0.1,0c-3.9-3.2-7.5-6.2-10.6-9
							c-0.4-0.4-0.8-0.7-1.1-1.2c-0.2-0.5-0.3-1-0.4-1.5c-0.1-1-0.1-1.9-0.1-2.8c0.1-1.8,0.3-3.4,0.6-4.9c0.3-1.4,0.2-2.7,0.1-3.9
							c-0.1-1.1-0.4-2.1-0.6-2.8c-0.2-0.7-0.5-1.3-0.7-1.7C192.9,203.6,192.8,203.4,192.8,203.4c0,0,0.5,0.7,1,2.2
							c0.3,0.7,0.5,1.7,0.7,2.8c0.2,1.1,0.3,2.5,0,3.9c-0.2,1.5-0.4,3.1-0.5,4.8c0,0.9-0.1,1.8,0.1,2.7c0.1,0.5,0.2,0.9,0.4,1.4
							c0.2,0.4,0.6,0.7,1,1.1c3.1,2.7,6.7,5.7,10.6,8.9l-0.1,0c2,0,4.1,0,6.2,0l-0.1,0.4c-2.1-1.3-4.3-2.8-6.4-4.5
							c-2.1-1.6-4.3-3.4-6.1-5.6c-0.9-1.1-1.7-2.4-2.1-3.8c-0.4-1.4-0.6-2.9-0.6-4.4c0-1.5,0.2-3,0.1-4.4c0-1.5-0.5-2.9-1-4.3
							c-1-2.8-2.3-5.5-3.4-8.1l0,0c-5.2-8.6-10.1-16.7-14.4-23.8l0.2,0.1c-0.8,0.2-1.7,0.4-2.4,0.6l0.1-0.3
							c5.1,9.1,9.3,16.6,12.3,21.9c1.4,2.6,2.6,4.7,3.4,6.1c0.4,0.7,0.7,1.2,0.9,1.6C192.7,203.2,192.8,203.4,192.8,203.4z"/>
					</g>
				</g>
				<g>
					<path class="st16" d="M174.6,183.6c1.6-1.8,4.1-2.6,6.5-2.3c2.4,0.2,4.6,1.3,6.5,2.8c1.9,1.5,3.5,3.3,5.1,5
						c1,1.1,2.1,2.3,2.4,3.8c0.3,1.5-0.5,3.3-2,3.5c-1.5,0.2-2.7-1.1-3.7-2.1c-1.4-1.5-2.9-2.8-4.6-3.9c-1-0.7-2.2-1.3-3.4-1.4
						c-1.5-0.2-3,0.3-4.4,0.8"/>
					<g>
						<path class="st18" d="M176.9,189.8c0,0,0.2-0.1,0.5-0.2c0.3-0.1,0.8-0.3,1.4-0.5c0.6-0.2,1.4-0.3,2.3-0.3
							c0.9,0,1.9,0.4,2.9,0.9c2,1.1,4.1,2.8,6.1,4.9c0.5,0.5,1.1,1,1.7,1.3c0.6,0.3,1.4,0.3,2-0.1c0.6-0.4,1-1.1,1.1-1.9
							c0.1-0.8-0.1-1.5-0.5-2.3c-0.8-1.4-2-2.6-3.1-3.8c-1.1-1.2-2.2-2.3-3.3-3.2c-2.2-1.9-4.7-3-6.9-3.3c-2.2-0.2-4,0.4-5,1
							c-1.1,0.6-1.5,1.2-1.5,1.2c0,0,0.1-0.2,0.3-0.4c0.2-0.2,0.6-0.6,1.1-0.9c1-0.7,2.9-1.4,5.1-1.2c2.3,0.2,4.8,1.3,7.1,3.3
							c1.2,0.9,2.3,2.1,3.3,3.2c1.1,1.2,2.3,2.3,3.2,3.9c0.4,0.8,0.7,1.7,0.5,2.6c-0.1,0.9-0.5,1.7-1.3,2.2
							c-0.7,0.5-1.8,0.5-2.5,0.1c-0.8-0.4-1.3-0.9-1.9-1.4c-2-2.2-4.1-3.8-6-4.9c-0.9-0.6-1.9-0.9-2.8-0.9c-0.9-0.1-1.6,0.1-2.2,0.2
							C177.6,189.7,176.9,189.9,176.9,189.8z"/>
					</g>
				</g>
				<g>
					<path class="st16" d="M174.2,195.7c3.2,0.8,6.7,0,9.5,1.7c0.9,0.6,1.7,1.3,2.5,2.1c1.5,1.5,2.9,3,4.4,4.5
						c0.8,0.8,1.9,1.7,3,1.2c0.5-0.2,0.8-0.8,0.9-1.3c0.2-1-0.3-1.9-0.8-2.8c-1-1.9-2.2-3.8-3.4-5.6c-0.6-0.9-1.3-1.8-2.2-2.6
						c-1.2-1.2-3-2.7-4.4-3.2c-2.3-0.7-3.9-1.1-6.2,0"/>
					<g>
						<path class="st18" d="M177.5,189.7c0,0,0.1-0.1,0.4-0.2c0.3-0.1,0.8-0.3,1.4-0.4c1.3-0.3,3.1,0,5.2,0.8c1,0.5,2,1.3,3,2.2
							c1,0.9,2,1.9,2.8,3.1c0.8,1.2,1.7,2.5,2.5,3.9c0.4,0.7,0.8,1.4,1.2,2.1c0.4,0.7,0.8,1.6,0.7,2.5c0,0.5-0.2,0.9-0.6,1.3
							c-0.3,0.4-0.8,0.6-1.3,0.6c-1,0-1.7-0.7-2.3-1.2c-1.1-1.2-2.2-2.3-3.2-3.3c-1-1-2-2.1-2.9-2.9c-1-0.8-2.1-1.3-3.2-1.5
							c-2.2-0.4-4-0.4-5.2-0.6c-0.6-0.1-1.1-0.2-1.4-0.2c-0.3-0.1-0.5-0.1-0.5-0.2c0,0,0.7,0.1,1.9,0.2c1.2,0.1,3,0,5.3,0.4
							c1.1,0.2,2.3,0.7,3.4,1.5c1,0.9,2,1.9,3,2.9c1,1.1,2.1,2.2,3.2,3.3c0.5,0.5,1.2,1.1,1.9,1c0.7,0,1.3-0.7,1.3-1.4
							c0.1-0.8-0.2-1.5-0.6-2.3c-0.4-0.7-0.8-1.4-1.2-2.1c-0.8-1.4-1.6-2.7-2.5-3.9c-0.8-1.2-1.8-2.2-2.7-3.1
							c-1-0.9-1.9-1.6-2.9-2.2c-2-0.9-3.8-1.2-5-1C178.2,189.4,177.5,189.8,177.5,189.7z"/>
					</g>
				</g>
				<g>
					<path class="st18" d="M179.9,171.9c0.1,0.1-1.5,0.9-3.6,1.5c-2.1,0.6-3.9,0.5-3.9,0.4c0-0.1,1.7-0.3,3.8-0.9
						C178.2,172.3,179.9,171.7,179.9,171.9z"/>
				</g>
			</g>
			<path class="st16" d="M202.5,254.5l-4.3-25.9l-18,3.3c0,0,0.9,35.3,1.8,44c1.4,14.1,8.4,29,19,26.4c9.9-2.5,21.7-23.2,21.7-23.2
				L202.5,254.5z"/>
		</g>
		<path class="st9" d="M292.9,108.5c0.7,1.1,2.5,0.9,3.4,0c0.9-1,1.1-2.3,1.4-3.6c0.2-1.3,0.6-2.7,1.6-3.5s2.9-0.7,3.3,0.5
			c-0.8-2.1,1.7-4.6,3.9-3.8c0.3-2.1,2.4-3.8,4.5-3.8c2.1,0,4.1,1.7,4.4,3.9c0.9-1,2.5-1.3,3.7-0.6c1.2,0.6,1.9,2.1,1.6,3.4
			c2.7,0.2,4.5,3.9,2.9,6.2c1.6,0.2,3.1,1.4,3.5,3c0.4,1.6-0.3,3.4-1.6,4.3c1.1,2.1-1,5.2-3.4,4.9c-1.4,2.6-5.1,3.5-7.6,1.9
			c-5,2-11,1.3-15.3-1.9"/>
		<g>
			<g>
				<g>
					<g>
						<g>
							<g>
								<g>
									<g>
										<g>
											<g>
												<g>
													<g>
														<path class="st16" d="M293.9,122.2c-0.2-3.2-2.8-5.8-6-5.9l-33.6-6.1c-10.6-0.4-16.8,13.1-16.7,23.7
															c0.1,11.8,0.6,26.3,2.6,35c4,17.5,17.7,18.8,17.7,18.8c0-0.1,0.1,5.5,0.5,13.2c0.5,10.5,9.6,18.5,20.1,17.7l0,0
															c9.9-0.8,17.4-9.1,17.2-19L293.9,122.2z"/>
														<g>
															<g>
																<g>
																	<g>
																		<g>
																			<g>
																				<g>
																					<path class="st9" d="M243.6,146.6c0,1.2,1.1,2.2,2.3,2.1c1.3,0,2.2-1,2.2-2.2c0-1.2-1.1-2.2-2.3-2.1
																						C244.6,144.4,243.6,145.4,243.6,146.6z"/>
																				</g>
																			</g>
																		</g>
																	</g>
																</g>
															</g>
															<g>
																<g>
																	<g>
																		<g>
																			<g>
																				<g>
																					<g>
																						<path class="st9" d="M241.6,140.1c0.3,0.3,1.9-1.1,4.4-1.3c2.4-0.2,4.3,0.9,4.6,0.6c0.1-0.1-0.2-0.7-1-1.2
																							c-0.8-0.5-2.2-1-3.7-0.9c-1.5,0.1-2.8,0.8-3.5,1.4C241.7,139.4,241.4,140,241.6,140.1z"/>
																					</g>
																				</g>
																			</g>
																		</g>
																	</g>
																</g>
															</g>
														</g>
														<g>
															<g>
																<g>
																	<g>
																		<g>
																			<g>
																				<g>
																					<path class="st9" d="M266.5,145.9c0,1.2,1.1,2.2,2.3,2.1c1.3,0,2.2-1,2.2-2.2c0-1.2-1.1-2.2-2.3-2.1
																						C267.4,143.7,266.4,144.7,266.5,145.9z"/>
																				</g>
																			</g>
																		</g>
																	</g>
																</g>
															</g>
															<g>
																<g>
																	<g>
																		<g>
																			<g>
																				<g>
																					<g>
																						<path class="st9" d="M265.7,140.1c0.3,0.3,1.9-1.1,4.4-1.3c2.4-0.2,4.3,0.9,4.6,0.6c0.1-0.1-0.2-0.7-1-1.2
																							c-0.8-0.5-2.2-1-3.7-0.9c-1.5,0.1-2.8,0.8-3.5,1.4C265.7,139.4,265.5,140,265.7,140.1z"/>
																					</g>
																				</g>
																			</g>
																		</g>
																	</g>
																</g>
															</g>
														</g>
														<g>
															<g>
																<g>
																	<g>
																		<g>
																			<g>
																				<g>
																					<path class="st9" d="M258.1,158.8c0-0.1-1.5-0.3-4-0.4c-0.6,0-1.2-0.1-1.4-0.5c-0.2-0.4,0-1.1,0.3-1.9
																						c0.5-1.5,1-3.2,1.5-4.9c2.1-6.9,3.6-12.6,3.3-12.7c-0.3-0.1-2.2,5.5-4.3,12.4c-0.5,1.7-1,3.3-1.4,4.9
																						c-0.2,0.7-0.5,1.6-0.2,2.5c0.2,0.5,0.7,0.8,1.1,0.8c0.4,0.1,0.8,0.1,1.1,0.1
																						C256.5,159,258.1,158.9,258.1,158.8z"/>
																				</g>
																			</g>
																		</g>
																	</g>
																</g>
															</g>
														</g>
														<g>
															<g>
																<g>
																	<g>
																		<g>
																			<g>
																				<path class="st18" d="M258,187.8c0,0,11.9,0,23.2-7.9c0,0-5.1,12.6-22.9,12.1L258,187.8z"/>
																			</g>
																		</g>
																	</g>
																</g>
															</g>
														</g>
													</g>
												</g>
											</g>
											<g>
												<g>
													<g>
														<g>
															<g>
																<g>
																	<path class="st9" d="M264.1,133.8c0.3,0.6,2.7,0.2,5.6,0.3c2.9,0.1,5.3,0.8,5.6,0.1c0.1-0.3-0.3-0.9-1.3-1.5
																		c-1-0.6-2.5-1.1-4.2-1.2c-1.7-0.1-3.3,0.3-4.3,0.8C264.4,132.9,264,133.5,264.1,133.8z"/>
																</g>
															</g>
														</g>
													</g>
												</g>
											</g>
											<g>
												<g>
													<g>
														<g>
															<g>
																<g>
																	<path class="st9" d="M242.1,134.1c0.5,0.5,2.1-0.2,4.1-0.3c2-0.2,3.8,0.1,4.1-0.5c0.2-0.3-0.2-0.8-0.9-1.3
																		c-0.8-0.5-2-0.8-3.4-0.7c-1.4,0.1-2.6,0.7-3.2,1.3C242.1,133.3,241.9,133.9,242.1,134.1z"/>
																</g>
															</g>
														</g>
													</g>
												</g>
											</g>
										</g>
									</g>
								</g>
							</g>
						</g>
					</g>
				</g>
				<path class="st9" d="M250.1,109.9c-1,2.2,3.2,6.2,5.5,7c2.4,0.8,5.3,0.4,6.5,2.5c1.4,2.4-1.5,6.2,3.3,8.8c1.5,0.8,3.7-0.9,5,0.3
					c1.6,1.4-0.5,3.9-0.4,6c0.1,4.1,7.6,4.5,8.1,8.5c0.3,2.6-2.6,5-1.6,7.4c1,2.4,5.1,2.2,6.2,4.7c1.3,3.1-4,5.9-3.3,9.2
					c0.7,3.3,6.2,3.3,7.3,6.5c1,2.7-2.1,5.7-1.1,8.4c1.2,3.1,6.4,2.6,7.8,5.6c1.7,3.6-4,7.8-2.1,11.2c0.6,1.2,2.1,1.6,3,2.6
					c2.8,3.2,2.6,10.3-0.3,13.1c0.7,0,1.4,0,2.1,0c6.3-0.1,12.2-3.4,15.6-8.7l0,0l1.7,4c5.5-1.8,9.9-5.4,14.3-9.1
					c2.2-1.9,5.2-2.5,8.1-1.8l1.2,0.3c3.7,0.3,8.6-1.6,11.7-3.6c-4.1-0.8-6.3-5.3-7.3-9.3c-1-4-1.6-8.5-4.7-11.4
					c-3.3-3.1-9-3.8-10.6-8c-1.2-3.3,1-7.2-0.1-10.5c-1.1-3.4-5.1-5.1-6.6-8.3c-2.1-4.4,0.9-10.2-1.7-14.3
					c-2.9-4.4-10.7-3.8-12.9-8.6c-1.2-2.7-0.2-6.3-2.3-8.3c-1.7-1.6-4.6-1.4-6.3-2.9c-2.6-2.3-1.3-6.9-3.6-9.5
					c-3.1-3.5-9.3-0.4-13.2-2.9c-2.5-1.6-3.3-4.9-5.7-6.6c-3.3-2.2-7.6-0.2-11.4,1.1c-2.9,1-6,1.6-8.8,2.8c-2.8,1.2-5.5,3.3-6.5,6.2
					C245.9,105.2,247.2,108.9,250.1,109.9"/>
				<g>
					<path class="st9" d="M343.3,178.6c0,0,0.1,0.1,0.3,0.3c0.2,0.2,0.5,0.4,0.8,0.8c0.3,0.4,0.8,0.8,1.2,1.4c0.4,0.6,0.8,1.4,1,2.4
						c0.1,1-0.1,2.1-0.9,3c-0.4,0.5-1,0.8-1.6,0.9c-0.7,0.1-1.4-0.1-1.9-0.6c-1.1-1-1.5-2.5-1.7-4c-0.1-1.6,0-3.2,0-4.9
						c0.1-1.7,0.2-3.5,0.5-5.3c0.1-0.9,0.3-1.9,0.4-2.8c0.2-0.9,0.3-1.9,0.2-2.9c-0.1-1-0.5-1.9-1.3-2.4c-0.8-0.5-1.9-0.6-2.9-0.5
						c-1,0.1-2.1,0.2-3.3,0.2c-1.1,0-2.3-0.5-3.1-1.5c-0.7-1-1-2.2-1.1-3.3c-0.1-1.2,0.1-2.4,0.3-3.5c0.2-1.2,0.3-2.3,0.1-3.5
						c-0.2-1.1-0.7-2.2-1.7-2.9c-0.9-0.7-2.1-1.1-3.3-1.6c-1.2-0.5-2.2-1.4-2.9-2.6c-1.3-2.3-1.3-5.1-1.2-7.6c0-1.3,0-2.6-0.2-3.8
						c-0.2-1.2-0.6-2.4-1.3-3.4c-1.5-2-3.9-2.8-6.1-3.8c-1.1-0.5-2.2-1-3.2-1.8c-1-0.7-1.8-1.8-2.2-2.9c-0.4-1.2-0.4-2.4-0.5-3.5
						c-0.1-1.1-0.4-2.2-1.2-2.9c-0.8-0.7-1.9-1-2.9-1.2c-1.1-0.2-2.2-0.4-3.2-0.8c-1-0.4-1.9-1.2-2.3-2.2c-0.4-1-0.6-2-0.6-3
						c-0.1-2-0.1-4-1-5.5c-0.9-1.6-2.4-2.6-4-3.2c-1.6-0.6-3.2-0.8-4.7-0.9c-1.5-0.1-3-0.1-4.3-0.1c-1.4-0.1-2.6-0.2-3.8-0.4
						c-1.1-0.3-2.1-0.7-3-1.2c-1.7-1-2.6-2.2-3-3.2c-0.4-0.9-0.4-1.5-0.4-1.5c0,0,0.1,0.5,0.5,1.4c0.4,0.9,1.3,2.1,3,3
						c0.8,0.5,1.8,0.9,2.9,1.1c1.1,0.3,2.4,0.4,3.7,0.4c1.3,0,2.8,0,4.3,0.1c1.5,0.1,3.2,0.3,4.8,0.9c1.6,0.6,3.2,1.6,4.2,3.3
						c1,1.7,0.9,3.8,1.1,5.7c0.1,1,0.2,2,0.6,2.9c0.4,0.9,1.2,1.6,2.1,2c0.9,0.4,2,0.5,3.1,0.7c1.1,0.2,2.2,0.5,3.2,1.3
						c0.9,0.8,1.3,2.1,1.4,3.2c0.1,1.2,0.2,2.3,0.5,3.4c0.4,1.1,1.1,2,2,2.7c0.9,0.7,2,1.2,3.1,1.7c1.1,0.5,2.3,1,3.4,1.6
						c1.1,0.6,2.2,1.4,3,2.4c0.8,1.1,1.2,2.3,1.4,3.6c0.2,1.3,0.2,2.6,0.2,3.9c-0.1,2.6,0,5.2,1.2,7.4c0.6,1.1,1.5,1.8,2.6,2.4
						c1.1,0.5,2.3,0.9,3.3,1.7c1.1,0.7,1.7,2,1.9,3.2c0.2,1.2,0,2.4-0.1,3.6c-0.2,1.2-0.3,2.3-0.3,3.4c0.1,1.1,0.3,2.2,1,3.1
						c0.6,0.8,1.7,1.2,2.7,1.3c1.1,0.1,2.1-0.1,3.2-0.1c1.1-0.1,2.2,0,3.2,0.6c1,0.6,1.4,1.7,1.5,2.7c0.1,1,0,2-0.2,3
						c-0.2,1-0.3,1.9-0.4,2.8c-0.2,1.8-0.4,3.6-0.5,5.3c-0.1,1.7-0.2,3.3-0.1,4.8c0.1,1.5,0.6,2.9,1.5,3.8c0.5,0.4,1.1,0.6,1.7,0.5
						c0.6-0.1,1.1-0.4,1.5-0.8c0.7-0.8,1-1.9,0.9-2.8c-0.1-0.9-0.5-1.7-0.9-2.3c-0.4-0.6-0.8-1.1-1.1-1.4c-0.3-0.4-0.6-0.6-0.8-0.8
						C343.4,178.8,343.3,178.7,343.3,178.6z"/>
				</g>
				<g>
					<path class="st17" d="M304.6,204.2c0,0,0.2-0.1,0.5-0.2c0.3-0.1,0.8-0.3,1.4-0.6c0.6-0.3,1.3-0.7,1.9-1.5
						c0.5-0.7,0.9-2,0.3-3.1c-0.3-0.5-0.9-0.9-1.5-1.1c-0.7-0.2-1.4-0.3-2.1-0.6c-0.4-0.1-0.8-0.3-1.1-0.6c-0.3-0.3-0.5-0.7-0.5-1.2
						c0-0.9,0.5-1.7,0.9-2.5c0.5-0.8,0.8-1.6,0.9-2.5c0.1-0.9-0.1-1.9-0.5-2.7c-0.8-1.7-2.9-3-5.1-2.7l-0.2,0l0-0.2
						c-0.1-1.6,0.6-3.1,1.4-4.4c0.9-1.3,1.9-2.6,2.6-4.1c0.3-0.7,0.5-1.5,0.6-2.4c0-0.8-0.2-1.6-0.7-2.2c-1.1-1.3-2.9-1.6-4.6-2.3
						c-0.8-0.4-1.7-1-2.1-1.9c-0.4-0.9-0.3-2,0-2.9c0.6-1.8,1.8-3.5,1.7-5.3c0-0.9-0.4-1.8-1.1-2.5c-0.6-0.7-1.4-1.3-2.2-1.8
						c-1.6-1-3.6-1.7-5.2-3c-1-0.8-1.8-1.9-2-3.2c-0.3-1.3,0-2.6,0.4-3.7c0.3-1.2,0.8-2.3,1-3.5c0.1-0.6,0.2-1.1,0.1-1.7
						c-0.1-0.5-0.2-1.1-0.5-1.5c-0.6-0.9-1.6-1.5-2.7-1.8c-1.1-0.4-2.2-0.7-3.2-1.3c-1-0.6-1.8-1.6-2-2.8c-0.2-1.2,0-2.3,0.2-3.3
						c0.2-1.1,0.5-2.1,0.6-3.1c0.1-1,0.1-2-0.3-2.9c-0.4-0.9-1.1-1.6-1.9-2.1c-0.8-0.5-1.7-0.9-2.6-1.1c-1.8-0.5-3.7-0.6-5.4-1.3
						c-0.9-0.3-1.7-0.7-2.3-1.3c-0.7-0.6-1.2-1.3-1.5-2c-0.8-1.5-1.2-3-1.8-4.3c-0.6-1.3-1.5-2.4-2.5-3.2c-2.1-1.5-4.5-1.8-6.2-1.4
						c-1.8,0.4-3,1.3-3.6,1.9c-0.7,0.7-1,1.1-1,1.1c0,0,0.2-0.5,0.9-1.1c0.7-0.7,1.9-1.6,3.7-2c1.8-0.5,4.3-0.3,6.4,1.3
						c1.1,0.8,2,1.9,2.6,3.3c0.6,1.3,1.1,2.9,1.8,4.3c0.4,0.7,0.8,1.4,1.5,1.9c0.6,0.5,1.4,0.9,2.2,1.2c1.7,0.6,3.5,0.7,5.4,1.2
						c0.9,0.3,1.9,0.6,2.8,1.1c0.9,0.5,1.6,1.3,2.1,2.3c0.4,1,0.4,2.1,0.3,3.2c-0.1,1.1-0.4,2.1-0.6,3.2c-0.2,1-0.4,2.1-0.2,3.2
						c0.2,1,0.8,1.9,1.8,2.5c0.9,0.5,2,0.8,3.1,1.2c1.1,0.4,2.3,0.9,2.9,2c0.4,0.5,0.5,1.2,0.6,1.8c0,0.6,0,1.3-0.1,1.8
						c-0.2,1.2-0.7,2.3-1,3.5c-0.3,1.1-0.6,2.3-0.3,3.5c0.2,1.2,0.9,2.2,1.9,2.9c1.5,1.3,3.4,1.9,5.2,3c0.9,0.5,1.7,1.1,2.3,1.9
						c0.7,0.8,1.1,1.8,1.2,2.8c0.1,2.1-1.2,3.8-1.7,5.5c-0.3,0.9-0.4,1.8,0,2.5c0.4,0.8,1.1,1.3,1.9,1.7c0.8,0.4,1.7,0.6,2.5,1
						c0.8,0.3,1.7,0.8,2.3,1.5c0.6,0.7,0.9,1.7,0.8,2.6c0,0.9-0.3,1.7-0.6,2.5c-0.7,1.6-1.8,2.8-2.6,4.1c-0.9,1.3-1.5,2.7-1.4,4.1
						l-0.2-0.2c2.3-0.2,4.5,1.1,5.5,3c0.9,1.9,0.6,4.1-0.4,5.6c-0.4,0.8-0.9,1.5-0.9,2.3c0,0.8,0.7,1.4,1.4,1.6
						c0.7,0.2,1.4,0.3,2.1,0.6c0.7,0.2,1.3,0.6,1.6,1.2c0.3,0.6,0.3,1.3,0.2,1.8c-0.1,0.6-0.3,1.1-0.6,1.5c-0.6,0.8-1.4,1.2-2,1.5
						C305.3,204.1,304.6,204.2,304.6,204.2z"/>
				</g>
				<g>
					<path class="st17" d="M333,195c0,0,0.4-0.4,0.7-1.4c0.3-0.9,0.6-2.6-0.3-4.3c-0.4-0.9-1.2-1.7-2.2-2.2c-0.5-0.3-1.1-0.6-1.6-1
						c-0.5-0.4-1-1-1.1-1.8c-0.2-1.5,0.8-2.9,0.8-4.4c0-0.7-0.4-1.5-1.1-1.9c-0.6-0.5-1.4-0.8-2.2-1.2c-0.8-0.4-1.7-0.7-2.4-1.3
						c-0.8-0.6-1.3-1.5-1.4-2.5c-0.3-2,0.3-4,0.4-6c0-1-0.1-2-0.7-2.9c-0.6-0.8-1.5-1.3-2.5-1.8c-1-0.4-2.1-0.7-3.1-1.3
						c-1-0.5-1.9-1.6-2.1-2.8c-0.2-1.2,0.1-2.4,0.2-3.6c0.1-1.1,0.1-2.4-0.6-3.3c-0.7-0.9-1.9-1.3-3.1-1.7c-1.1-0.4-2.4-1-3.2-2.1
						c-0.8-1.1-0.8-2.6-0.7-3.9c0.1-1.3,0.6-2.6,1-3.8c0.4-1.2,0.7-2.5,0.5-3.8c-0.1-1.3-0.9-2.4-1.9-3.1c-1.1-0.7-2.4-1-3.7-1.3
						c-1.3-0.3-2.6-0.5-3.9-0.8c-1.3-0.4-2.5-0.9-3.5-1.9c-0.9-1-1.6-2.2-2-3.4c-0.8-2.5-1-5-1.5-7.3c-0.3-1.2-0.6-2.3-1.1-3.3
						c-0.6-1-1.4-1.8-2.3-2.4c-2-1.1-4.4-0.8-6.5-0.7c-1.1,0.1-2.2,0.1-3.3-0.1c-1.1-0.2-2.1-0.6-3-1.2c-1.7-1.3-2.6-3.2-3.7-4.7
						c-0.5-0.8-1.1-1.5-1.8-2.1c-0.7-0.6-1.4-1.1-2.2-1.5c-3.1-1.5-6.5-1.3-9.1-0.5c-2.6,0.8-4.6,2.2-6.1,3.5
						c-1.5,1.3-2.5,2.4-3.2,3.2c-0.3,0.4-0.6,0.7-0.8,0.9c-0.2,0.2-0.3,0.3-0.3,0.3s0.1-0.1,0.2-0.3c0.2-0.2,0.4-0.5,0.7-0.9
						c0.7-0.8,1.7-2,3.2-3.3c1.5-1.3,3.5-2.7,6.2-3.6c2.7-0.9,6.1-1,9.4,0.5c0.8,0.4,1.6,0.9,2.3,1.5c0.7,0.6,1.3,1.4,1.9,2.2
						c1.1,1.6,2.1,3.4,3.7,4.6c0.8,0.6,1.8,1,2.8,1.2c1,0.2,2.1,0.1,3.2,0.1c1.1-0.1,2.2-0.2,3.4-0.1c1.1,0,2.3,0.2,3.4,0.8
						c1,0.6,1.9,1.5,2.5,2.6c0.6,1.1,0.9,2.3,1.2,3.5c0.5,2.4,0.7,4.9,1.5,7.2c0.4,1.2,1,2.3,1.9,3.2c0.8,0.9,2,1.4,3.3,1.8
						c1.2,0.4,2.5,0.6,3.8,0.8c1.3,0.3,2.6,0.6,3.8,1.3c1.2,0.8,2,2.1,2.2,3.5c0.2,1.4-0.2,2.7-0.5,4c-0.4,1.3-0.8,2.5-0.9,3.7
						c-0.2,1.2-0.1,2.5,0.6,3.5c0.6,1,1.8,1.5,2.9,1.9c1.1,0.4,2.4,0.9,3.3,1.9c0.4,0.5,0.7,1.1,0.8,1.8c0.1,0.6,0,1.3,0,1.8
						c-0.1,1.2-0.4,2.4-0.2,3.4c0.2,1.1,0.9,2,1.9,2.5c1,0.5,2,0.9,3.1,1.3c1,0.4,2.1,1,2.7,1.9c0.7,0.9,0.8,2.1,0.8,3.1
						c-0.1,2.1-0.7,4.1-0.4,5.9c0.1,0.9,0.6,1.7,1.3,2.3c0.7,0.6,1.5,0.9,2.3,1.3c0.8,0.4,1.6,0.7,2.3,1.2c0.7,0.5,1.2,1.4,1.2,2.2
						c0,1.7-1,3-0.9,4.3c0.1,0.7,0.5,1.2,1,1.6c0.5,0.4,1,0.7,1.6,1c1.1,0.6,1.9,1.5,2.3,2.4c0.9,1.8,0.6,3.5,0.2,4.5
						C333.5,194.6,333,195,333,195z"/>
				</g>
			</g>
			<path class="st18" d="M261.2,166.7c-0.8-1.1-0.7-2.8,0.1-3.9c0.9-1.1,2.5-1.4,3.8-0.9c0.8,0.4,1.4,1.1,2,1.8
				c0.5,0.8,1,1.7,0.7,2.6c-0.2,0.7-0.8,1.3-1.5,1.7c-1,0.6-2.3,0.7-3.4,0.3s-2-1.3-2.3-2.5"/>
			<g>
				<path class="st9" d="M266.9,161.5c0.2,0,0.3,0.6,0,1.5c-0.3,0.9-1,2.1-2.2,2.9c-1.2,0.9-2.5,1.2-3.4,1.2c-0.9,0-1.5-0.2-1.5-0.4
					c0-0.4,2.1-0.6,4-2C265.7,163.3,266.5,161.4,266.9,161.5z"/>
			</g>
		</g>
		<g>
			<path class="st7" d="M203.7,229.4c-0.5-1.5,0-3.3,1.1-4.4c1.1-1.2,2.7-1.8,4.3-1.9c1.4-0.1,2.9,0.1,4.1,0.8
				c1.2,0.7,2.3,1.8,2.6,3.1c0.5,1.7-0.1,3.6-1.3,4.9c-1.2,1.3-2.9,2-4.7,2.2c-1.5,0.1-3-0.2-4.2-1.2
				C204.6,232,203.7,230.6,203.7,229.4"/>
			<path class="st8" d="M188.8,235c-5.9,1.6-12.4-4.6-14.2-8.9c-0.2-0.4-0.3-1-0.1-1.4c0.3-0.4,0.9-0.5,1.4-0.4
				c3,0.2,5.9,1.3,8.2,3.2C186.4,229.5,188,232.1,188.8,235"/>
			<path class="st7" d="M181.7,232.3c-0.5-1.5,0-3.3,1.1-4.4c1.1-1.2,2.7-1.8,4.3-1.9c1.4-0.1,2.9,0.1,4.1,0.8
				c1.2,0.7,2.3,1.8,2.6,3.1c0.5,1.7-0.1,3.6-1.3,4.9c-1.2,1.3-2.9,2-4.7,2.2c-1.5,0.1-3-0.2-4.2-1.2
				C182.6,234.8,181.7,233.5,181.7,232.3"/>
			<path class="st8" d="M212.9,231.1c-0.2-3.1,1.7-7.1,3.3-9.8c1.6-2.7,4.1-4.8,7-6.1c0.2-0.1,0.4-0.2,0.6-0.1
				c0.2,0.1,0.3,0.3,0.4,0.5c1.6,3.5,1.1,7.9-1.2,11C220.7,229.8,216.7,231.5,212.9,231.1"/>
			<path class="st8" d="M234.3,224c1-1.5,2.1-3,2.8-4.7c0.7-1.7,1.2-3.5,0.9-5.3c0-0.3-0.1-0.6-0.3-0.7c-0.2-0.1-0.5-0.1-0.8,0
				c-3.3,1-6.3,3.1-8.4,5.9c-2.1,2.8-3.3,6.2-3.4,9.7l-0.1,0.9c3.1,1.5,6.3,1.6,9.6,0.7c2.5-0.7,5.1-1.8,7.1-3.5
				c2.1-1.7,3.6-4.1,4-6.7C241.7,219.7,237.3,221.1,234.3,224z"/>
			<path class="st8" d="M196.5,221.7c-3-2.7-7.1-3.9-11.1-4.5c-0.2,4,1.3,8.1,4.1,11c2.7,2.9,6.7,4.7,10.7,4.8l0.2-0.4
				C201.4,228.6,199.5,224.3,196.5,221.7z"/>
			<g>
				<path class="st1" d="M176.4,232.2c0,0,7,24,20.9,32.5c18.2,11.1,45.5-3.7,47.8-9.5c2.3-5.8,6.4-29.4,6.4-29.4L176.4,232.2z"/>
				<g>
					<path class="st9" d="M176.4,232.2c0,0,0.1,0,0.4,0c0.3,0,0.6-0.1,1.1-0.1c1-0.1,2.4-0.2,4.2-0.4c3.7-0.3,9-0.8,15.7-1.4
						c13.4-1.2,32.2-2.8,53.8-4.7l0.3,0l-0.1,0.3c-1.3,7.3-2.7,14.9-4.5,22.8c-0.4,1.7-0.8,3.3-1.3,4.9c-0.1,0.4-0.3,0.8-0.4,1.2
						c-0.1,0.2-0.1,0.4-0.2,0.6c-0.1,0.2-0.2,0.4-0.3,0.6c-0.5,0.7-1.1,1.4-1.7,1.9c-2.5,2.3-5.3,3.9-8.2,5.4
						c-2.9,1.4-5.8,2.6-8.8,3.5c-3,0.9-5.9,1.5-8.9,1.9c-5.9,0.7-11.7,0.1-16.6-1.9c-4.9-2-8.6-5.5-11.5-8.9
						c-2.9-3.5-4.9-6.9-6.6-10.1c-1.7-3.1-2.9-5.9-3.8-8.3c-0.9-2.3-1.6-4.1-2-5.4c-0.2-0.6-0.3-1.1-0.4-1.4
						C176.4,232.4,176.4,232.2,176.4,232.2c0,0,0.1,0.2,0.2,0.5c0.1,0.3,0.3,0.8,0.5,1.4c0.4,1.2,1.1,3.1,2.1,5.4
						c1,2.3,2.2,5.1,3.9,8.2c1.7,3.1,3.8,6.6,6.6,10c2.8,3.4,6.5,6.8,11.4,8.7c4.8,2,10.5,2.5,16.3,1.9c5.8-0.7,11.8-2.5,17.5-5.4
						c2.8-1.5,5.7-3.1,8.1-5.3c0.6-0.6,1.2-1.2,1.6-1.8l0.3-0.5c0.1-0.2,0.1-0.4,0.2-0.6c0.1-0.4,0.3-0.8,0.4-1.2
						c0.5-1.6,0.9-3.2,1.3-4.9c1.8-7.8,3.2-15.5,4.5-22.7l0.3,0.3c-21.5,1.8-40.2,3.3-53.6,4.4c-6.7,0.5-12,1-15.7,1.3
						c-1.8,0.1-3.3,0.3-4.2,0.3c-0.5,0-0.8,0.1-1.1,0.1C176.5,232.2,176.4,232.2,176.4,232.2z"/>
				</g>
			</g>
			<g>
				<path class="st2" d="M194.8,259.5c0,0-0.3-0.2-0.9-0.8c-0.5-0.5-1.3-1.3-2.1-2.2c-1.8-1.9-4-4.7-6.2-8.1c-2.2-3.3-3.9-6.5-5-8.9
					c-0.5-1.2-1-2.2-1.2-2.8c-0.3-0.7-0.4-1.1-0.4-1.1c0,0,0.2,0.3,0.5,1c0.3,0.7,0.8,1.6,1.4,2.8c1.2,2.3,2.9,5.5,5.1,8.8
					c2.2,3.3,4.4,6.1,6.1,8.1c0.8,1,1.5,1.8,2,2.3C194.5,259.2,194.8,259.5,194.8,259.5z"/>
			</g>
			<g>
				<path class="st2" d="M247.5,229.9c0,0-0.2,0.1-0.7,0.1c-0.5,0.1-1.2,0.2-2,0.3c-1.7,0.2-4.2,0.5-7.4,0.9
					c-6.2,0.7-14.8,1.5-24.3,2.3c-9.5,0.7-18.1,1.2-24.4,1.4c-3.1,0.1-5.7,0.2-7.4,0.2c-0.8,0-1.5,0-2,0c-0.5,0-0.7,0-0.7,0
					c0,0,0.2,0,0.7-0.1c0.5,0,1.2-0.1,2-0.1c1.8-0.1,4.3-0.2,7.4-0.4c6.2-0.3,14.9-0.9,24.4-1.6c9.5-0.7,18.1-1.5,24.3-2.1
					c3.1-0.3,5.6-0.5,7.4-0.7c0.8-0.1,1.5-0.1,2-0.2C247.3,229.9,247.5,229.9,247.5,229.9z"/>
			</g>
		</g>
		<g>
			<g>
				<path class="st16" d="M317.1,257.4l-5,25.9L260.6,256L249,268.2c0,0,49.1,44.9,59.3,53.1c10.2,8.1,24.3-1.3,28.4-16.5
					c4.1-15.2,9.5-34.9,11.1-47.6L317.1,257.4z"/>
				<path class="st16" d="M265,259.2c0,0-14.9-11.3-20.2-10.1c-2.1,0.5-3.6,1-4.6,1.5c-1.8,0.8-3.7,1.3-5.6,1.3
					c-1.9,0-4.4,0-6.8-0.1c-4.6-0.2-6,1-6.4,2.8c-0.4,1.7,0.8,3.3,2.6,3.5c2.8,0.2,7,0.6,8.8,1.2c2.8,0.9-0.5,0.3-3.9,2.6
					s-17.5,2.7-17.5,2.7l-7.6-5.8c-2.1-1.6-5,0.6-3.9,3c0,0,0,0.1,0.1,0.1l-0.7-0.7c-1.7-1.7-4.5,0.2-3.5,2.4c0,0,0,0.1,0,0.1l6.2,6
					l9.4,3.9l16.3-1.6c0,0,12-4.4,14.3-5.1c2.3-0.7,9.9,1.5,15.8,8L265,259.2z"/>
				<g>
					<path class="st18" d="M324.5,305.9c-0.1,0-0.5-1.4-1.4-3.6c-0.8-2.2-2.1-5.3-3.9-8.5c-1.8-3.2-3.6-5.9-5.1-7.8
						c-1.4-1.9-2.4-3-2.3-3.1c0,0,0.3,0.2,0.8,0.7c0.5,0.5,1.1,1.2,1.9,2.2c1.5,1.9,3.5,4.6,5.2,7.8c1.8,3.2,3,6.3,3.8,8.6
						c0.4,1.1,0.7,2.1,0.8,2.7C324.5,305.6,324.6,305.9,324.5,305.9z"/>
				</g>
			</g>
			<g>
				<path class="st18" d="M228,271.8c0,0-0.5,0.1-1.4,0.2c-0.9,0.1-2.2,0.3-3.8,0.4c-3.2,0.3-7.7,0.6-12.6,0.8
					c-1.2,0.1-2.5,0.1-3.7-0.2c-1.2-0.3-2.2-0.8-3.1-1.4c-1.8-1.2-3.1-2.7-4.2-3.9c-1.1-1.2-1.9-2.3-2.4-3c-0.6-0.7-0.9-1.1-0.8-1.1
					c0,0,0.4,0.3,1,1c0.7,0.8,1.5,1.7,2.5,2.9c1.1,1.2,2.4,2.6,4.2,3.7c0.9,0.6,1.9,1,3,1.3c1.1,0.2,2.3,0.2,3.5,0.2
					c5-0.2,9.4-0.4,12.6-0.7c1.5-0.1,2.8-0.2,3.8-0.2C227.5,271.8,228,271.8,228,271.8z"/>
			</g>
			<g>
				<path class="st18" d="M224,271.4c0,0-0.3,0.1-1,0.1c-0.7,0-1.6,0-2.6,0c-2.2,0-5.3,0-8.9-0.1l0,0l0,0c-0.5-0.1-1-0.2-1.6-0.4
					c-0.9-0.3-1.9-0.6-2.7-1.1c-0.8-0.5-1.5-1.1-2.1-1.7c-1.1-1.3-2-2.5-2.8-3.5c-0.8-1-1.3-1.9-1.7-2.5c-0.4-0.6-0.6-0.9-0.5-1
					c0,0,0.3,0.3,0.7,0.9c0.4,0.6,1.1,1.4,1.9,2.4c0.8,1,1.8,2.2,2.8,3.4c1.1,1.3,2.7,2.1,4.5,2.6c0.5,0.1,1.1,0.3,1.6,0.4l0,0
					c3.5,0.1,6.6,0.2,8.8,0.3c1,0.1,1.9,0.1,2.6,0.1C223.6,271.4,224,271.4,224,271.4z"/>
			</g>
			<g>
				<path class="st18" d="M242.9,261c0,0.1-2-0.4-4.4-0.7c-2.4-0.3-4.4-0.4-4.4-0.5c0-0.1,2-0.3,4.5,0
					C241.1,260.1,243,260.8,242.9,261z"/>
			</g>
		</g>
		<g>
			<path class="st17" d="M306.8,123.2c0,0-0.3,0.1-0.8,0c-0.5-0.1-1.3-0.3-2-0.8c-0.8-0.5-1.5-1.5-1.9-2.7c-0.3-1.2-0.3-2.6-0.7-3.8
				c-0.2-0.6-0.6-1.1-1.1-1.4c-0.5-0.3-1.1-0.5-1.7-0.6c-0.6-0.1-1.2-0.3-1.7-0.6c-0.5-0.3-0.9-0.7-1.2-1.1c-0.5-0.8-0.7-1.5-0.9-2
				c-0.1-0.5-0.2-0.8-0.1-0.8c0,0,0.1,0.3,0.3,0.7c0.2,0.5,0.5,1.2,1,1.9c0.3,0.3,0.6,0.7,1.1,0.9c0.4,0.2,1,0.4,1.6,0.5
				c0.6,0.1,1.2,0.3,1.9,0.6c0.6,0.4,1.1,1,1.3,1.7c0.5,1.4,0.4,2.8,0.7,3.9c0.3,1.1,0.9,2,1.6,2.5
				C305.6,123.2,306.8,123.1,306.8,123.2z"/>
		</g>
		<g>
			<path class="st17" d="M325.5,106.7c0,0,0.1,0.2,0.3,0.5c0.1,0.4,0.2,0.9-0.1,1.6c-0.2,0.7-0.8,1.5-1.9,1.7
				c-1,0.2-2.3-0.1-3.1-1.2l0.4,0c-0.5,1.5-1.8,2.9-3.6,3.6c-0.9,0.3-1.9,0.4-2.9,0.1c-1-0.3-1.9-0.8-2.7-1.5
				c-0.8-0.8-1.3-1.8-1.5-2.8l0.4,0.1c-1.7,1.5-3.8,2.3-5.6,2.7c-1.9,0.4-3.6,0.2-5-0.1c-1.4-0.3-2.4-0.8-3.1-1.2
				c-0.3-0.2-0.6-0.4-0.8-0.5c-0.2-0.1-0.2-0.2-0.2-0.2c0-0.1,1.4,1,4.2,1.5c1.4,0.3,3,0.3,4.8-0.1c1.8-0.4,3.7-1.2,5.4-2.6l0.3-0.3
				l0.1,0.4c0.2,0.9,0.7,1.8,1.4,2.6c0.7,0.7,1.5,1.2,2.4,1.4c0.9,0.2,1.8,0.2,2.6-0.1c1.7-0.5,2.9-1.8,3.4-3.2l0.1-0.4l0.2,0.4
				c0.6,1,1.8,1.3,2.6,1.1c0.9-0.2,1.5-0.9,1.7-1.5c0.3-0.6,0.2-1.2,0.2-1.5C325.6,106.9,325.5,106.7,325.5,106.7z"/>
		</g>
		<g>
			<path class="st17" d="M316.3,96.3c0,0,0.2,0,0.4,0.2c0.2,0.2,0.4,0.6,0.3,1.2c-0.1,0.6-0.6,1.1-1.3,1.3c-0.7,0.2-1.6,0.1-2.4-0.2
				l0.3-0.3c0.7,1.5-0.3,3.6-2,4.5c-1.4,0.7-2.9,0.8-4.1,0.9c-1.3,0-2.5,0-3.4-0.4c-1-0.3-1.6-0.9-1.9-1.4c-0.3-0.5-0.3-0.8-0.3-0.8
				c0,0,0.1,0.3,0.5,0.7c0.3,0.4,0.9,0.9,1.8,1.2c0.9,0.3,2,0.3,3.3,0.2c1.3-0.1,2.7-0.2,3.9-0.8c1.5-0.8,2.3-2.6,1.8-3.9l-0.2-0.5
				l0.5,0.2c0.8,0.3,1.5,0.5,2.1,0.3c0.6-0.1,1.1-0.6,1.2-1c0.1-0.4,0-0.8-0.1-1C316.4,96.4,316.3,96.3,316.3,96.3z"/>
		</g>
	</g>
</g>
</svg>
